<svg viewBox="490.7999999999997 -16.305555555555657 2126.8 1630.5555555555554" fill="none" xmlns="http://www.w3.org/2000/svg" xmlns:xlink="http://www.w3.org/1999/xlink" overflow="visible" width="2126.8px" height="1630.5555555555554px"><g id="Master/Scenes/Working from Home"><g id="Window" transform="translate(505 226) scale(1 1)"><g id="Window/Squared"><g id="Window"><path id="Fill 1981" fill-rule="evenodd" clip-rule="evenodd" d="M20.5391 443.387H571.571V3.6001H20.5391V443.387Z" fill="#EDE8D6"/><path id="Fill 1983" fill-rule="evenodd" clip-rule="evenodd" d="M296.056 443.246C295.168 443.246 294.449 442.526 294.449 441.639V1.85169C294.449 0.96469 295.168 0.24469 296.056 0.24469C296.944 0.24469 297.663 0.96469 297.663 1.85169V441.639C297.663 442.526 296.944 443.246 296.056 443.246" fill="#21211D"/><path id="Fill 1984" fill-rule="evenodd" clip-rule="evenodd" d="M571.573 225.101H20.5406C19.6536 225.101 18.9336 224.381 18.9336 223.494C18.9336 222.606 19.6536 221.886 20.5406 221.886H571.573C572.461 221.886 573.18 222.606 573.18 223.494C573.18 224.381 572.461 225.101 571.573 225.101" fill="#21211D"/><path id="Fill 1985" fill-rule="evenodd" clip-rule="evenodd" d="M47.0938 197.842H269.081V27.9091H47.0938V197.842Z" fill="#B6CCFC"/><path id="Fill 1986" fill-rule="evenodd" clip-rule="evenodd" d="M47.0938 419.078H269.081V249.145H47.0938V419.078Z" fill="#B6CCFC"/><path id="Fill 1987" fill-rule="evenodd" clip-rule="evenodd" d="M321.695 197.842H543.682V27.9091H321.695V197.842Z" fill="#B6CCFC"/><path id="Fill 1988" fill-rule="evenodd" clip-rule="evenodd" d="M321.695 419.078H543.682V249.145H321.695V419.078Z" fill="#B6CCFC"/><path id="Fill 1989" fill-rule="evenodd" clip-rule="evenodd" d="M0.597656 474.718H591.667V444.429H0.597656V474.718Z" fill="#f0b5aa"/><path id="Fill 1990" fill-rule="evenodd" clip-rule="evenodd" d="M571.573 444.995H20.5406C19.6536 444.995 18.9336 444.275 18.9336 443.388C18.9336 442.5 19.6536 441.78 20.5406 441.78H571.573C572.461 441.78 573.18 442.5 573.18 443.388C573.18 444.275 572.461 444.995 571.573 444.995" fill="#21211D"/><g id="Object"><mask id="mask045bf6b58-7a25-46f9-88d8-fe275acd62d4" mask-type="alpha" maskUnits="userSpaceOnUse" x="20" y="3" width="552" height="386" fill="#ffffff"><path id="Clip 1993" fill-rule="evenodd" clip-rule="evenodd" d="M20.5391 3.6001H571.571V388.806H20.5391V3.6001Z" fill="#ffffff"/></mask><g mask="url(#mask045bf6b58-7a25-46f9-88d8-fe275acd62d4)"><path id="Fill 1992" opacity="0.35" fill-rule="evenodd" clip-rule="evenodd" d="M-97.0039 315.861L516.253 -15L614.339 10.304L-75.1369 388.806L-97.0039 315.861Z" fill="white"/></g></g><mask id="mask145bf6b58-7a25-46f9-88d8-fe275acd62d4" mask-type="alpha" maskUnits="userSpaceOnUse" x="20" y="19" width="552" height="425" fill="#ffffff"><path id="Clip 1996" fill-rule="evenodd" clip-rule="evenodd" d="M20.5391 19.7062H571.571V443.387H20.5391V19.7062Z" fill="#ffffff"/></mask><g mask="url(#mask145bf6b58-7a25-46f9-88d8-fe275acd62d4)"><path id="Fill 1995" opacity="0.35" fill-rule="evenodd" clip-rule="evenodd" d="M-49.4102 398.476L637.461 19.7062L650.989 154.765L48.2468 504.419C48.2468 504.419 -46.8372 544.43 -49.4102 398.476" fill="white"/></g></g></g></g><g id="Wall Objects" transform="translate(1861 118) scale(1 1)"><g id="Wall Objects/Book Shelf"><g id="Group 36"><path id="Fill 1" fill-rule="evenodd" clip-rule="evenodd" d="M222.738 366.553L232.942 466.512H253.036L263.24 366.553H222.738Z" fill="#D6A47F"/><path id="Fill 2" fill-rule="evenodd" clip-rule="evenodd" d="M618.332 366.553L628.536 466.512H648.63L658.834 366.553H618.332Z" fill="#D6A47F"/><path id="Fill 3" fill-rule="evenodd" clip-rule="evenodd" d="M232.785 355.159H250.813V286.66H232.785V355.159Z" fill="#74262E"/><path id="Fill 4" fill-rule="evenodd" clip-rule="evenodd" d="M214.758 355.159H232.786V286.66L214.758 355.159Z" fill="#74262E"/><path id="Fill 5" fill-rule="evenodd" clip-rule="evenodd" d="M451.871 355.159H469.899V286.66H451.871V355.159Z" fill="#74262E"/><path id="Fill 6" fill-rule="evenodd" clip-rule="evenodd" d="M487.926 355.159H469.898V286.66L487.926 355.159Z" fill="#74262E"/><path id="Fill 7" fill-rule="evenodd" clip-rule="evenodd" d="M308.754 348.463H367.779V110.001H308.754V348.463Z" fill="#B6CCFC"/><g id="Group 28"><path id="Fill 8" fill-rule="evenodd" clip-rule="evenodd" d="M338.268 305.281C337.479 305.281 336.84 304.641 336.84 303.853V167.211C336.84 166.422 337.479 165.782 338.268 165.782C339.057 165.782 339.696 166.422 339.696 167.211V303.853C339.696 304.641 339.057 305.281 338.268 305.281" fill="#21211D"/><mask id="mask02ccf529a-80e6-4e71-bec5-4e9033516ead" mask-type="alpha" maskUnits="userSpaceOnUse" x="158" y="110" width="566" height="357" fill="#ffffff"><path id="Clip 11" fill-rule="evenodd" clip-rule="evenodd" d="M158 466.512H723.57V110H158V466.512Z" fill="#ffffff"/></mask><g mask="url(#mask02ccf529a-80e6-4e71-bec5-4e9033516ead)"><path id="Fill 10" fill-rule="evenodd" clip-rule="evenodd" d="M367.93 348.462H411.093V155.061H367.93V348.462Z" fill="#2E4C9E"/><path id="Fill 12" fill-rule="evenodd" clip-rule="evenodd" d="M389.514 313.091C388.725 313.091 388.086 312.451 388.086 311.663V201.867C388.086 201.078 388.725 200.439 389.514 200.439C390.303 200.439 390.942 201.078 390.942 201.867V311.663C390.942 312.451 390.303 313.091 389.514 313.091" fill="#21211D"/><path id="Fill 13" fill-rule="evenodd" clip-rule="evenodd" d="M400.433 179.96C400.433 185.992 395.543 190.881 389.511 190.881C383.48 190.881 378.59 185.992 378.59 179.96C378.59 173.928 383.48 169.038 389.511 169.038C395.543 169.038 400.433 173.928 400.433 179.96" fill="white"/><path id="Fill 14" fill-rule="evenodd" clip-rule="evenodd" d="M394.973 328.415C394.973 331.431 392.528 333.875 389.512 333.875C386.496 333.875 384.051 331.431 384.051 328.415C384.051 325.399 386.496 322.954 389.512 322.954C392.528 322.954 394.973 325.399 394.973 328.415" fill="white"/><path id="Fill 15" fill-rule="evenodd" clip-rule="evenodd" d="M250.09 348.462H309.115V155.061H250.09V348.462Z" fill="#EDC829"/><path id="Fill 16" fill-rule="evenodd" clip-rule="evenodd" d="M279.604 312.315C278.815 312.315 278.176 311.675 278.176 310.887V205.032C278.176 204.243 278.815 203.604 279.604 203.604C280.393 203.604 281.032 204.243 281.032 205.032V310.887C281.032 311.675 280.393 312.315 279.604 312.315" fill="#21211D"/><path id="Fill 17" fill-rule="evenodd" clip-rule="evenodd" d="M290.523 179.96C290.523 185.992 285.633 190.881 279.601 190.881C273.57 190.881 268.68 185.992 268.68 179.96C268.68 173.928 273.57 169.038 279.601 169.038C285.633 169.038 290.523 173.928 290.523 179.96" fill="white"/><path id="Fill 18" fill-rule="evenodd" clip-rule="evenodd" d="M292.11 336.122H267.1C264.614 336.122 262.598 334.106 262.598 331.62C262.598 329.134 264.614 327.118 267.1 327.118H292.11C294.596 327.118 296.612 329.134 296.612 331.62C296.612 334.106 294.596 336.122 292.11 336.122" fill="white"/><path id="Fill 19" fill-rule="evenodd" clip-rule="evenodd" d="M410.98 348.462H451.869V201.282H410.98V348.462Z" fill="#D5962F"/><path id="Fill 20" fill-rule="evenodd" clip-rule="evenodd" d="M431.428 306.769C430.639 306.769 430 306.129 430 305.341V233.788C430 232.999 430.639 232.359 431.428 232.359C432.217 232.359 432.856 232.999 432.856 233.788V305.341C432.856 306.129 432.217 306.769 431.428 306.769" fill="#21211D"/><path id="Fill 21" fill-rule="evenodd" clip-rule="evenodd" d="M438.763 326.539C438.763 330.591 435.478 333.875 431.427 333.875C427.375 333.875 424.09 330.591 424.09 326.539C424.09 322.487 427.375 319.203 431.427 319.203C435.478 319.203 438.763 322.487 438.763 326.539" fill="white"/><path id="Fill 22" fill-rule="evenodd" clip-rule="evenodd" d="M439.899 220.413H422.955C420.468 220.413 418.453 218.397 418.453 215.911C418.453 213.425 420.468 211.409 422.955 211.409H439.899C442.385 211.409 444.401 213.425 444.401 215.911C444.401 218.397 442.385 220.413 439.899 220.413" fill="white"/><path id="Fill 23" fill-rule="evenodd" clip-rule="evenodd" d="M325.512 150.513H351.022V125.003H325.512V150.513Z" fill="white"/><path id="Fill 24" fill-rule="evenodd" clip-rule="evenodd" d="M325.512 331.958H351.022V319.203H325.512V331.958Z" fill="white"/><path id="Fill 25" fill-rule="evenodd" clip-rule="evenodd" d="M663.826 286.66C663.826 321.919 635.243 350.502 599.983 350.502C564.724 350.502 536.141 321.919 536.141 286.66C536.141 251.401 564.724 222.817 599.983 222.817C635.243 222.817 663.826 251.401 663.826 286.66" fill="#FF6D7B"/><path id="Fill 26" fill-rule="evenodd" clip-rule="evenodd" d="M613.153 234.594H586.81L568.295 172.472C567.56 170.005 569.408 167.525 571.983 167.525H627.98C630.555 167.525 632.403 170.005 631.668 172.472L613.153 234.594Z" fill="#FF6D7B"/><path id="Fill 27" fill-rule="evenodd" clip-rule="evenodd" d="M627.732 187.112H572.234C571.445 187.112 570.805 186.472 570.805 185.684C570.805 184.895 571.445 184.256 572.234 184.256H627.732C628.521 184.256 629.16 184.895 629.16 185.684C629.16 186.472 628.521 187.112 627.732 187.112" fill="#21211D"/></g></g><g id="Group 31"><mask id="mask12ccf529a-80e6-4e71-bec5-4e9033516ead" mask-type="alpha" maskUnits="userSpaceOnUse" x="536" y="167" width="128" height="184" fill="#ffffff"><path id="Clip 30" fill-rule="evenodd" clip-rule="evenodd" d="M571.986 167.525C569.411 167.525 567.562 170.005 568.298 172.473V172.473L583.912 224.861C556.433 231.987 536.141 256.953 536.141 286.66V286.66C536.141 321.92 564.724 350.503 599.984 350.503V350.503C635.243 350.503 663.826 321.92 663.826 286.66V286.66C663.826 256.953 643.535 231.987 616.056 224.861V224.861L631.67 172.473C632.405 170.005 630.557 167.525 627.982 167.525V167.525H571.986Z" fill="#ffffff"/></mask><g mask="url(#mask12ccf529a-80e6-4e71-bec5-4e9033516ead)"><path id="Fill 29" fill-rule="evenodd" clip-rule="evenodd" d="M638.611 228.278L572.246 293.38L587.949 293.068L574.198 313.382L590.769 311.872L580.774 334.087L618.947 313.874L582.507 341.615L622.176 327.568L610.174 353.429L691.591 303.45L638.611 228.278Z" fill="#2E4C9E"/></g></g><g id="Group 35"><mask id="mask22ccf529a-80e6-4e71-bec5-4e9033516ead" mask-type="alpha" maskUnits="userSpaceOnUse" x="158" y="346" width="566" height="41" fill="#ffffff"><path id="Clip 33" fill-rule="evenodd" clip-rule="evenodd" d="M158 346.302H723.57V386.804H158V346.302Z" fill="#ffffff"/></mask><g mask="url(#mask22ccf529a-80e6-4e71-bec5-4e9033516ead)"><path id="Fill 32" fill-rule="evenodd" clip-rule="evenodd" d="M158.219 386.804H723.352V346.302H158.219V386.804Z" fill="#F4BF8E"/><path id="Fill 34" fill-rule="evenodd" clip-rule="evenodd" d="M722.142 367.981H159.429C158.64 367.981 158 367.341 158 366.553C158 365.764 158.64 365.125 159.429 365.125H722.142C722.931 365.125 723.57 365.764 723.57 366.553C723.57 367.341 722.931 367.981 722.142 367.981" fill="#F4BF8E"/></g></g></g></g></g><g id="Hanging Lamp" transform="translate(1323 -7) scale(1 1)"><g id="Hanging Lamp/Big Lamp"><g id="Group 119"><g id="Group 30"><g id="Group 23"><mask id="mask0665b2101-926e-4142-92a0-e9bfc3b8e379" mask-type="alpha" maskUnits="userSpaceOnUse" x="130" y="2" width="4" height="295" fill="#ffffff"><path id="Clip 22" fill-rule="evenodd" clip-rule="evenodd" d="M130.559 2.475H133.773V296.657H130.559V2.475Z" fill="#ffffff"/></mask><g mask="url(#mask0665b2101-926e-4142-92a0-e9bfc3b8e379)"><path id="Fill 21" fill-rule="evenodd" clip-rule="evenodd" d="M132.166 296.657C131.278 296.657 130.559 295.938 130.559 295.05V4.082C130.559 3.195 131.278 2.475 132.166 2.475C133.054 2.475 133.773 3.195 133.773 4.082V295.05C133.773 295.938 133.054 296.657 132.166 296.657" fill="#21211D"/></g></g><path id="Fill 24" fill-rule="evenodd" clip-rule="evenodd" d="M174.566 426.831C174.566 450.248 155.583 469.231 132.167 469.231C108.75 469.231 89.7656 450.248 89.7656 426.831C89.7656 403.414 108.75 384.431 132.167 384.431C155.583 384.431 174.566 403.414 174.566 426.831" fill="#EDC829"/><path id="Fill 26" fill-rule="evenodd" clip-rule="evenodd" d="M0.384766 426.831C0.384766 354.05 59.3848 295.05 132.166 295.05C204.947 295.05 263.947 354.05 263.947 426.831H0.384766Z" fill="#F73132"/><path id="Fill 28" fill-rule="evenodd" clip-rule="evenodd" d="M138.026 458.598C137.305 458.598 136.65 458.11 136.467 457.379C136.253 456.518 136.777 455.646 137.638 455.431C156.256 450.789 156.511 435.857 156.512 435.224C156.515 434.338 157.234 433.619 158.12 433.619C159.005 433.619 159.724 434.333 159.727 435.218C159.727 435.398 159.542 453.283 138.416 458.55C138.285 458.582 138.155 458.598 138.026 458.598" fill="white"/></g><g id="Group 46"><g id="Group 33"><mask id="mask1665b2101-926e-4142-92a0-e9bfc3b8e379" mask-type="alpha" maskUnits="userSpaceOnUse" x="0" y="295" width="264" height="132" fill="#ffffff"><path id="Clip 32" fill-rule="evenodd" clip-rule="evenodd" d="M0.384766 426.831H263.946C263.946 354.051 204.947 295.05 132.167 295.05V295.05C59.3848 295.05 0.384766 354.051 0.384766 426.831" fill="#ffffff"/></mask><g mask="url(#mask1665b2101-926e-4142-92a0-e9bfc3b8e379)"><path id="Fill 31" fill-rule="evenodd" clip-rule="evenodd" d="M-36.4086 438.3C-36.7326 438.3 -37.0596 438.202 -37.3436 438C-38.0646 437.483 -38.2306 436.479 -37.7146 435.758C-21.1996 412.678 -2.77758 388.571 19.9994 368.612C44.6134 347.045 71.7464 333.16 98.4644 328.457C108.719 326.654 115.748 328.105 119.945 332.9C124.601 338.223 124.524 346.934 119.737 356.201C117.905 359.747 115.725 363.135 113.615 366.412C110.819 370.756 107.927 375.248 105.931 380.023C102.967 387.111 101.689 397.752 107.838 404.411C111.437 408.307 117.413 410.433 124.307 410.271C138.703 409.909 151.009 401.244 164.46 390.811L293.666 290.603C294.367 290.059 295.377 290.186 295.921 290.888C296.465 291.589 296.338 292.599 295.637 293.143L166.431 393.351C155.702 401.672 141.01 413.066 124.387 413.484C116.601 413.684 109.703 411.167 105.477 406.592C98.2934 398.814 99.6354 386.75 102.966 378.782C105.071 373.747 108.041 369.133 110.912 364.672C112.982 361.459 115.12 358.136 116.882 354.726C118.44 351.711 123.089 341.376 117.525 335.016C114.132 331.139 108.077 330.028 99.0214 331.623C72.8824 336.223 46.2894 349.85 22.1184 371.029C-0.413576 390.773 -18.6976 414.706 -35.1006 437.628C-35.4146 438.066 -35.9076 438.3 -36.4086 438.3" fill="#ED7AD8"/></g></g><g id="Group 36"><mask id="mask2665b2101-926e-4142-92a0-e9bfc3b8e379" mask-type="alpha" maskUnits="userSpaceOnUse" x="0" y="295" width="264" height="132" fill="#ffffff"><path id="Clip 35" fill-rule="evenodd" clip-rule="evenodd" d="M0.384766 426.831H263.946C263.946 354.051 204.947 295.05 132.167 295.05V295.05C59.3848 295.05 0.384766 354.051 0.384766 426.831" fill="#ffffff"/></mask><g mask="url(#mask2665b2101-926e-4142-92a0-e9bfc3b8e379)"><path id="Fill 34" fill-rule="evenodd" clip-rule="evenodd" d="M158.759 361.706C152.627 361.706 146.531 359.383 143.136 354.112C139.439 348.374 140.07 341.005 141.032 335.227C145.114 310.721 156.905 287.42 174.231 269.616C174.848 268.98 175.865 268.966 176.503 269.585C177.139 270.204 177.153 271.222 176.533 271.857C159.661 289.196 148.179 311.889 144.202 335.755C143.335 340.963 142.737 347.559 145.837 352.371C150.167 359.091 160.076 359.884 167.153 356.767C174.973 353.323 180.905 345.965 185.67 340.053C213.452 305.591 240.753 269.973 266.816 234.188C267.337 233.471 268.341 233.313 269.061 233.835C269.779 234.358 269.936 235.363 269.413 236.081C243.321 271.908 215.988 307.568 188.172 342.071C183.188 348.254 176.985 355.949 168.447 359.708C165.502 361.006 162.125 361.706 158.759 361.706" fill="#ED7AD8"/></g></g><g id="Group 39"><mask id="mask3665b2101-926e-4142-92a0-e9bfc3b8e379" mask-type="alpha" maskUnits="userSpaceOnUse" x="0" y="295" width="264" height="132" fill="#ffffff"><path id="Clip 38" fill-rule="evenodd" clip-rule="evenodd" d="M0.384766 426.831H263.946C263.946 354.051 204.947 295.05 132.167 295.05V295.05C59.3848 295.05 0.384766 354.051 0.384766 426.831" fill="#ffffff"/></mask><g mask="url(#mask3665b2101-926e-4142-92a0-e9bfc3b8e379)"><path id="Fill 37" fill-rule="evenodd" clip-rule="evenodd" d="M252.561 442.468C247.217 442.468 242.077 441.665 237.323 440.036C221.215 434.517 210.056 418.342 211.918 403.212C213.04 394.096 218.549 384.958 227.851 376.786C247.059 359.911 274.498 352.864 299.46 358.392C300.327 358.584 300.874 359.442 300.682 360.309C300.491 361.176 299.636 361.723 298.765 361.53C274.79 356.218 248.424 362.99 229.972 379.201C223.906 384.531 216.402 393.092 215.108 403.605C213.425 417.283 223.64 431.95 238.364 436.995C251.088 441.356 266.874 439.354 281.673 431.503C295.187 424.333 306.499 413.572 317.438 403.166C318.081 402.555 319.098 402.579 319.709 403.222C320.322 403.865 320.296 404.883 319.653 405.495C308.557 416.051 297.082 426.966 283.179 434.343C273.061 439.711 262.463 442.468 252.561 442.468" fill="#ED7AD8"/></g></g><g id="Group 42"><mask id="mask4665b2101-926e-4142-92a0-e9bfc3b8e379" mask-type="alpha" maskUnits="userSpaceOnUse" x="0" y="295" width="264" height="132" fill="#ffffff"><path id="Clip 41" fill-rule="evenodd" clip-rule="evenodd" d="M0.384766 426.831H263.946C263.946 354.051 204.947 295.05 132.167 295.05V295.05C59.3848 295.05 0.384766 354.051 0.384766 426.831" fill="#ffffff"/></mask><g mask="url(#mask4665b2101-926e-4142-92a0-e9bfc3b8e379)"><path id="Fill 40" fill-rule="evenodd" clip-rule="evenodd" d="M62.2447 497.011C62.1177 497.011 61.9887 496.996 61.8597 496.964C60.9977 496.752 60.4717 495.881 60.6827 495.019C67.0967 468.966 73.7287 442.026 71.6527 414.827C70.7617 403.15 67.5117 395.613 61.7187 391.786C53.3907 386.286 41.9947 389.885 33.9017 393.874C7.26874 406.999 -13.9943 431.73 -22.9793 460.028C-23.2483 460.874 -24.1503 461.342 -24.9973 461.073C-25.8433 460.805 -26.3123 459.902 -26.0433 459.055C-16.7983 429.94 5.07974 404.495 32.4797 390.991C41.3287 386.631 53.8887 382.762 63.4897 389.104C70.1667 393.514 73.8857 401.849 74.8577 414.583C76.9737 442.294 70.2777 469.489 63.8047 495.788C63.6237 496.521 62.9677 497.011 62.2447 497.011" fill="#ED7AD8"/></g></g><g id="Group 45"><mask id="mask5665b2101-926e-4142-92a0-e9bfc3b8e379" mask-type="alpha" maskUnits="userSpaceOnUse" x="0" y="295" width="264" height="132" fill="#ffffff"><path id="Clip 44" fill-rule="evenodd" clip-rule="evenodd" d="M0.384766 426.831H263.946C263.946 354.051 204.947 295.05 132.167 295.05V295.05C59.3848 295.05 0.384766 354.051 0.384766 426.831" fill="#ffffff"/></mask><g mask="url(#mask5665b2101-926e-4142-92a0-e9bfc3b8e379)"><path id="Fill 43" fill-rule="evenodd" clip-rule="evenodd" d="M60.466 324.103C53.218 324.103 44.607 320.687 41.213 312.907C40.859 312.093 41.231 311.145 42.044 310.791C42.86 310.435 43.806 310.808 44.16 311.622C46.621 317.265 53.509 321.057 60.967 320.882C68.444 320.69 75.597 317.026 80.992 313.854C110.551 296.486 132.802 267.727 152.433 242.352C152.978 241.651 153.987 241.522 154.688 242.065C155.39 242.608 155.519 243.617 154.976 244.319C135.166 269.923 112.714 298.943 82.621 316.626C76.892 319.993 69.262 323.885 61.049 324.095C60.856 324.1 60.661 324.103 60.466 324.103" fill="#ED7AD8"/></g></g></g></g></g></g><g id="Chair" transform="translate(764 837) scale(1 1)"><g id="Chair/Office Chair "><g id="Group 37"><g id="Group 72"><path id="Fill 30" fill-rule="evenodd" clip-rule="evenodd" d="M712.445 356.091C729.134 361.695 730.905 384.564 715.243 392.603C663.938 418.941 611.348 443.256 554.92 454.122C487.146 467.172 411.793 458.236 358.477 414.408C307.401 372.421 283.982 305.682 270.603 240.931C256.799 174.125 251.191 105.631 253.9 37.4685C254.694 17.4915 271.041 1.66846 291.034 1.66846C309.833 1.66846 325.707 15.7035 327.919 34.3715C338.466 123.387 344.171 334.533 499.644 334.533C618.939 334.533 680.626 345.405 712.445 356.091" fill="#EDC829"/><path id="Fill 32" fill-rule="evenodd" clip-rule="evenodd" d="M724.104 385.02C723.998 385.02 723.891 385.008 723.783 384.983C671.016 372.871 594.202 366.729 495.473 366.729C455.393 366.729 420.799 354.951 392.653 331.72C368.578 311.85 348.545 282.995 333.109 245.955C304.95 178.386 296.677 96.4017 290.635 36.5407C289.446 24.7527 288.322 13.6197 287.164 3.84868C287.087 3.23368 287 2.60968 286.902 1.99568C286.778 1.21668 287.31 0.484676 288.088 0.360676C288.87 0.239676 289.599 0.768676 289.723 1.54668C289.826 2.19268 289.917 2.84868 290 3.50368C291.162 13.3077 292.287 24.4537 293.478 36.2537C299.5 95.9377 307.75 177.678 335.746 244.856C351.001 281.462 370.759 309.946 394.471 329.517C422.092 352.314 456.074 363.873 495.473 363.873C594.416 363.873 671.446 370.039 724.422 382.199C725.191 382.376 725.671 383.142 725.495 383.911C725.343 384.572 724.754 385.02 724.104 385.02" fill="#21211D"/><mask id="mask086fd56be-0eb9-4620-b51f-be93a51a23ec" mask-type="alpha" maskUnits="userSpaceOnUse" x="251" y="388" width="477" height="366" fill="#ffffff"><path id="Clip 35" fill-rule="evenodd" clip-rule="evenodd" d="M251.809 388.148H727.464V753.455H251.809V388.148Z" fill="#ffffff"/></mask><g mask="url(#mask086fd56be-0eb9-4620-b51f-be93a51a23ec)"><path id="Fill 34" fill-rule="evenodd" clip-rule="evenodd" d="M726.037 753.455C725.477 753.455 724.946 753.124 724.718 752.575L602.672 459.219C585.432 417.78 545.291 391.004 500.409 391.004C479.646 391.004 459.363 396.816 441.752 407.811C424.14 418.807 410.013 434.478 400.896 453.132L254.52 752.653C254.175 753.362 253.318 753.657 252.61 753.309C251.901 752.963 251.608 752.108 251.954 751.399L398.33 451.878C407.682 432.744 422.173 416.667 440.239 405.389C458.305 394.11 479.111 388.148 500.409 388.148C546.448 388.148 587.624 415.614 605.308 458.122L727.355 751.477C727.658 752.206 727.313 753.042 726.585 753.345C726.406 753.419 726.22 753.455 726.037 753.455" fill="#21211D"/></g></g></g></g></g><g id="Master/Characters/Sitting" transform="translate(743 -7) scale(1 1)"><g id="Master/Characters/Sitting"><g id="Sitting/Lower Body" transform="translate(461 1003) scale(1 1)"><g id="Sitting/Lower Body/Pants 4"><g id="Group 54"><path id="Fill 1" fill-rule="evenodd" clip-rule="evenodd" d="M971.844 338.105L531.893 33.6875L439.812 145.303L822.297 519.379L971.844 338.105Z" fill="#B6CCFC"/><path id="Fill 1 Copy" opacity="0.059082" fill-rule="evenodd" clip-rule="evenodd" d="M971.844 338.105L531.893 33.6875L439.812 145.303L822.297 519.379L971.844 338.105Z" fill="#343434"/><g id="Group 53"><path id="Fill 2" fill-rule="evenodd" clip-rule="evenodd" d="M820.571 517.926C829.069 525.038 849.021 520.397 871.686 506.429C890.566 494.775 911.318 476.651 928.913 453.443C940.053 438.747 949.836 424.08 957.705 410.369C977.2 376.45 985.098 348.3 973.572 339.56C960.976 330.02 927.085 348.258 894.437 380.877C885.125 390.189 875.899 400.672 867.301 412.012C852.434 431.635 840.38 450.387 831.84 466.582C818.129 492.547 813.445 511.97 820.571 517.926" fill="#21211D"/><g id="Group 6"><mask id="mask052ce7635-5285-4a1c-aa53-dd97c2ef04dc" mask-type="alpha" maskUnits="userSpaceOnUse" x="831" y="380" width="299" height="209" fill="#ffffff"><path id="Clip 5" fill-rule="evenodd" clip-rule="evenodd" d="M831.84 380.877H1129.42V588.692H831.84V380.877Z" fill="#ffffff"/></mask><g mask="url(#mask052ce7635-5285-4a1c-aa53-dd97c2ef04dc)"><path id="Fill 4" fill-rule="evenodd" clip-rule="evenodd" d="M831.84 466.582L871.686 506.428L953.95 588.692L1129.42 413.211C1129.42 413.211 1102.04 393.459 1020.17 412.34C999.923 417.024 979.672 415.682 960.748 411.154C959.748 410.912 958.734 410.655 957.706 410.369C937.34 404.756 911.175 390.703 894.437 380.877C885.126 390.188 875.899 400.671 867.301 412.011C852.434 431.634 840.381 450.386 831.84 466.582" fill="#EDE8D6"/></g></g><path id="Fill 7" fill-rule="evenodd" clip-rule="evenodd" d="M865.585 412.154C865.261 412.154 864.935 412.044 864.668 411.819L609.127 197.163C608.523 196.656 608.444 195.755 608.952 195.151C609.46 194.547 610.36 194.468 610.964 194.976L866.504 409.632C867.108 410.14 867.187 411.04 866.68 411.644C866.397 411.981 865.993 412.154 865.585 412.154" fill="#21211D"/><path id="Fill 9" fill-rule="evenodd" clip-rule="evenodd" d="M784.054 478.673C783.952 478.673 783.85 478.662 783.747 478.64C782.976 478.471 782.489 477.71 782.658 476.939C796.223 414.989 835.464 372.129 865.994 347.083C899.046 319.968 929.331 307.298 929.633 307.173C930.362 306.872 931.197 307.219 931.498 307.948C931.8 308.677 931.454 309.512 930.725 309.813C930.426 309.937 900.467 322.48 867.736 349.349C837.583 374.101 798.831 416.435 785.448 477.55C785.302 478.218 784.71 478.673 784.054 478.673" fill="#21211D"/><path id="Fill 11" fill-rule="evenodd" clip-rule="evenodd" d="M941.952 577.342C941.592 577.342 941.231 577.206 940.953 576.934C940.389 576.383 940.38 575.478 940.931 574.915L1106.32 405.996C1106.88 405.433 1107.78 405.423 1108.34 405.975C1108.91 406.527 1108.92 407.431 1108.37 407.995L942.973 576.913C942.693 577.199 942.323 577.342 941.952 577.342" fill="#21211D"/><path id="Fill 13" fill-rule="evenodd" clip-rule="evenodd" d="M914.925 550.88C914.548 550.88 914.171 550.732 913.89 550.436C913.346 549.865 913.368 548.962 913.94 548.418C914.264 548.109 946.667 517.842 973.288 543.908C973.852 544.46 973.862 545.364 973.31 545.928C972.758 546.491 971.853 546.5 971.29 545.949C960.986 535.86 948.599 533.51 934.469 538.967C923.745 543.109 915.986 550.414 915.909 550.487C915.633 550.75 915.279 550.88 914.925 550.88" fill="#21211D"/><path id="Fill 15" fill-rule="evenodd" clip-rule="evenodd" d="M895.693 453.42C902.464 460.049 902.578 470.912 895.949 477.683C889.319 484.454 878.457 484.568 871.686 477.939C864.915 471.31 864.8 460.447 871.43 453.676C878.059 446.905 888.922 446.791 895.693 453.42" fill="white"/><path id="Fill 17" fill-rule="evenodd" clip-rule="evenodd" d="M945.849 433.72C945.644 433.72 945.436 433.676 945.238 433.582C944.525 433.244 944.222 432.392 944.559 431.68L955.193 409.252C955.531 408.54 956.383 408.235 957.096 408.574C957.808 408.912 958.112 409.763 957.774 410.476L947.141 432.903C946.896 433.418 946.384 433.72 945.849 433.72" fill="#21211D"/><path id="Fill 19" fill-rule="evenodd" clip-rule="evenodd" d="M963.705 440.643C963.508 440.643 963.308 440.602 963.116 440.515C962.398 440.19 962.08 439.343 962.405 438.625L973.513 414.121C973.838 413.402 974.685 413.083 975.403 413.409C976.122 413.735 976.44 414.581 976.114 415.3L965.007 439.804C964.768 440.331 964.248 440.643 963.705 440.643" fill="#21211D"/><path id="Fill 21" fill-rule="evenodd" clip-rule="evenodd" d="M986.053 441.692C985.869 441.692 985.683 441.657 985.504 441.582C984.776 441.278 984.432 440.442 984.736 439.714L995.174 414.691C995.477 413.963 996.314 413.619 997.041 413.922C997.769 414.226 998.113 415.062 997.809 415.79L987.371 440.813C987.143 441.362 986.612 441.692 986.053 441.692" fill="#21211D"/><path id="Fill 23" fill-rule="evenodd" clip-rule="evenodd" d="M1002.07 312.68C1001.02 312.68 999.959 312.901 998.874 313.343C990.062 316.93 980.13 334.641 970.151 364.559C964.727 380.823 960.659 396.671 958.747 404.538C964.049 398.868 974.383 387.5 984.442 374.64C1003.2 350.659 1012.5 332.459 1011.35 322.005C1010.97 318.525 1009.46 315.968 1006.73 314.188C1005.19 313.182 1003.64 312.68 1002.07 312.68M956.142 410.783C955.91 410.783 955.677 410.727 955.463 410.611C954.901 410.307 954.61 409.667 954.749 409.044C954.798 408.823 959.769 386.666 967.435 363.676C977.834 332.491 988.048 314.666 997.796 310.698C1001.4 309.232 1004.93 309.602 1008.29 311.796C1011.73 314.041 1013.72 317.371 1014.19 321.693C1017.15 348.553 959.615 407.842 957.165 410.353C956.889 410.635 956.518 410.783 956.142 410.783" fill="#21211D"/><path id="Fill 25" fill-rule="evenodd" clip-rule="evenodd" d="M1022.53 355.264C1013.67 355.264 999.841 364.402 982.448 381.772C972.787 391.42 964.42 401.248 960.291 406.249C975.151 402.21 1024.64 387.564 1031.94 369.942C1033.32 366.617 1033.05 363.445 1031.11 360.246C1029.22 357.116 1026.66 355.494 1023.28 355.287C1023.04 355.272 1022.78 355.264 1022.53 355.264M956.428 410.169C955.95 410.169 955.495 409.929 955.228 409.514C954.898 409.002 954.929 408.336 955.306 407.857C957.136 405.535 1000.37 351.026 1023.46 352.436C1027.78 352.701 1031.17 354.831 1033.56 358.766C1035.96 362.742 1036.31 366.87 1034.58 371.036C1025.47 393.034 959.57 409.44 956.769 410.128C956.655 410.156 956.541 410.169 956.428 410.169" fill="#21211D"/><path id="Fill 27" fill-rule="evenodd" clip-rule="evenodd" d="M0 71.246C0 131.939 49.662 180.986 110.347 180.025C145.169 179.473 179.991 179.301 214.813 179.307C279.611 179.417 344.408 180.396 409.206 182.045C416.013 182.218 409.142 182.058 409.142 182.058C409.142 182.058 418.169 224.076 420.29 234.009C423.876 251.574 423.296 251.97 426.747 269.571C433.795 304.734 440.497 339.987 446.777 375.351L451.411 401.894L455.844 428.489C458.77 446.227 461.461 464.026 463.936 481.882L691.29 422.427C684.706 405.646 678.34 388.807 672.208 371.908L663.053 346.547L654.101 321.134C642.264 287.223 635.134 270.34 624.066 236.228C618.459 219.192 613.105 202.088 607.634 185.016C602.317 167.904 596.893 150.819 591.689 133.677L587.771 120.824L585.812 114.398L584.794 111.043L583.511 107.014C582.619 104.338 581.761 101.666 580.664 99.054C579.608 96.432 578.508 93.827 577.368 91.245C576.25 88.656 574.902 86.16 573.615 83.646C571.068 78.596 568.078 73.799 564.995 69.071C558.657 59.75 551.459 51.006 543.273 43.335C527.091 27.785 507.415 16.141 486.244 8.956C483.587 8.093 480.899 7.311 478.21 6.547L474.167 5.445C472.812 5.109 471.444 4.827 470.079 4.533C467.345 3.955 464.602 3.423 461.855 2.936C459.102 2.513 456.333 2.186 453.564 1.877C448.025 1.182 442.486 1.106 436.944 1.008L435.919 1L435.5 1.011L434.661 1.035L432.982 1.081L429.626 1.173C358.021 3.149 286.417 3.318 214.813 3.439C147.12 2.425 74.562 3.439 0 3.439V71.246Z" fill="#B6CCFC"/><path id="Fill 29" fill-rule="evenodd" clip-rule="evenodd" d="M463.939 481.878C466.867 493.289 487.133 498.259 515.754 497.303C536.477 496.617 561.584 492.832 587.648 486.148C609.114 480.65 628.723 473.68 644.99 466.111C675.782 451.801 694.591 435.305 691.292 422.423C687.764 408.641 659.829 402.671 622.068 405.799C605.929 407.127 587.992 410.14 569.397 414.896C549.716 419.938 531.421 426.536 515.754 433.82C481.992 449.53 460.498 468.439 463.939 481.878" fill="#21211D"/><path id="Fill 31" fill-rule="evenodd" clip-rule="evenodd" d="M515.754 433.82V588.692H763.915C763.915 588.692 758.517 555.359 687.279 510.828C669.655 499.817 656.273 484.549 646.105 467.968C645.733 467.354 645.362 466.74 644.99 466.111C633.765 447.088 626.609 423.794 622.068 405.799C605.929 407.127 587.992 410.141 569.397 414.897C549.716 419.938 531.421 426.536 515.754 433.82" fill="#EDE8D6"/><path id="Fill 33" fill-rule="evenodd" clip-rule="evenodd" d="M569.393 415.468C568.786 415.468 568.222 415.077 568.031 414.467L484.717 148.754C474.004 114.162 442.48 90.9237 406.273 90.9237H129.135C104.9 90.9237 85.1836 71.2077 85.1836 46.9727V5.95168C85.1836 5.16268 85.8236 4.52368 86.6116 4.52368C87.4006 4.52368 88.0396 5.16268 88.0396 5.95168V46.9727C88.0396 69.6327 106.476 88.0677 129.135 88.0677H406.273C443.74 88.0677 476.36 112.114 487.444 147.904L570.756 413.612C570.992 414.365 570.574 415.166 569.821 415.402C569.679 415.447 569.535 415.468 569.393 415.468" fill="#21211D"/><path id="Fill 35" fill-rule="evenodd" clip-rule="evenodd" d="M454.722 424.037C454.307 424.037 453.895 423.857 453.613 423.51C453.116 422.898 453.208 421.999 453.82 421.501C500.317 383.676 556.956 372.121 596.283 369.089C638.857 365.807 670.909 371.534 671.228 371.592C672.004 371.734 672.518 372.478 672.376 373.254C672.235 374.03 671.492 374.545 670.715 374.402C670.399 374.345 638.644 368.678 596.422 371.943C557.525 374.952 501.524 386.376 455.622 423.717C455.357 423.932 455.038 424.037 454.722 424.037" fill="#21211D"/><path id="Fill 37" fill-rule="evenodd" clip-rule="evenodd" d="M756.149 574.496H516.502C515.713 574.496 515.074 573.857 515.074 573.068C515.074 572.279 515.713 571.64 516.502 571.64H756.149C756.938 571.64 757.577 572.279 757.577 573.068C757.577 573.857 756.938 574.496 756.149 574.496" fill="#21211D"/><path id="Fill 39" fill-rule="evenodd" clip-rule="evenodd" d="M559.871 574.496C559.082 574.496 558.443 573.857 558.443 573.068C558.443 558.647 551.454 548.152 537.671 541.874C527.209 537.108 516.561 536.675 516.455 536.672C515.667 536.643 515.051 535.982 515.079 535.194C515.107 534.405 515.782 533.791 516.556 533.817C517.003 533.833 561.299 535.81 561.299 573.068C561.299 573.857 560.66 574.496 559.871 574.496" fill="#21211D"/><path id="Fill 41" fill-rule="evenodd" clip-rule="evenodd" d="M571.667 454.317C571.667 463.793 563.985 471.474 554.509 471.474C545.034 471.474 537.352 463.793 537.352 454.317C537.352 444.841 545.034 437.159 554.509 437.159C563.985 437.159 571.667 444.841 571.667 454.317" fill="white"/><path id="Fill 43" fill-rule="evenodd" clip-rule="evenodd" d="M621.249 476.796C620.657 476.796 620.103 476.425 619.899 475.833C619.642 475.088 620.038 474.275 620.783 474.017L644.247 465.925C644.992 465.667 645.806 466.064 646.063 466.81C646.32 467.555 645.924 468.368 645.179 468.625L621.715 476.718C621.561 476.771 621.403 476.796 621.249 476.796" fill="#21211D"/><path id="Fill 45" fill-rule="evenodd" clip-rule="evenodd" d="M629.397 494.404C628.814 494.404 628.266 494.044 628.055 493.464C627.785 492.723 628.167 491.904 628.908 491.633L655.438 481.972C656.177 481.703 656.999 482.083 657.269 482.825C657.539 483.566 657.157 484.386 656.416 484.656L629.886 494.318C629.725 494.376 629.56 494.404 629.397 494.404" fill="#21211D"/><path id="Fill 47" fill-rule="evenodd" clip-rule="evenodd" d="M644.284 511.105C643.717 511.105 643.18 510.765 642.957 510.206C642.665 509.473 643.022 508.642 643.754 508.35L670.175 497.808C670.906 497.516 671.739 497.872 672.031 498.605C672.323 499.337 671.966 500.168 671.234 500.46L644.813 511.003C644.639 511.072 644.46 511.105 644.284 511.105" fill="#21211D"/><path id="Fill 49" fill-rule="evenodd" clip-rule="evenodd" d="M737.028 428.854C726.596 428.854 709.65 434.45 687.234 445.361C671.821 452.864 657.663 461.038 650.708 465.173C658.469 464.994 673.821 464.426 690.048 462.615C720.305 459.24 739.82 453.156 746.484 445.02C748.702 442.312 749.471 439.442 748.834 436.247C748.235 433.241 746.634 431.212 743.942 430.043C742.11 429.249 739.799 428.854 737.028 428.854V428.854ZM645.445 468.11C644.807 468.11 644.247 467.688 644.071 467.075C643.896 466.461 644.149 465.805 644.692 465.469C644.884 465.349 664.193 453.4 685.984 442.793C715.541 428.406 735.422 423.234 745.079 427.423C748.644 428.97 750.85 431.751 751.635 435.689C752.438 439.718 751.448 443.466 748.693 446.83C731.57 467.736 648.955 468.105 645.447 468.11H645.445Z" fill="#21211D"/><path id="Fill 51" fill-rule="evenodd" clip-rule="evenodd" d="M726.638 493.272C729.978 491.93 732.054 489.517 732.985 485.894C733.895 482.351 733.262 479.386 731.05 476.83C725.266 470.147 708.843 466.465 683.557 466.182C669.904 466.03 657.029 466.926 650.567 467.475C663.846 475.265 708.94 500.386 726.638 493.272ZM645.331 467.672C644.813 467.35 644.556 466.735 644.692 466.141C644.827 465.547 645.325 465.103 645.931 465.038C648.869 464.721 718.07 457.468 733.21 474.96C736.041 478.231 736.896 482.149 735.752 486.605C734.595 491.106 731.887 494.241 727.703 495.923C725.261 496.904 722.379 497.342 719.186 497.342C693.498 497.342 647.511 469.024 645.331 467.672Z" fill="#21211D"/></g></g></g></g><g id="Upper Body" transform="translate(0 314) scale(1 1)"><g id="Upper Body/Using Laptop 1"><g id="Group 51"><path id="Fill 1" fill-rule="evenodd" clip-rule="evenodd" d="M636.436 530.59C662.357 524.681 688.095 518.029 713.783 511.15L752.283 500.679L754.688 500.022L755.29 499.858C754.831 499.976 754.244 500.112 753.722 500.214C752.676 500.435 751.484 500.558 750.538 500.676C746.671 501.058 742.669 500.875 738.853 500.019C731.199 498.306 724.289 494.303 719.071 488.433C716.444 485.525 714.251 482.154 712.65 478.539C712.235 477.65 711.866 476.734 711.549 475.804C711.24 474.916 711.004 474.274 710.788 473.477L710.636 472.903L710.565 472.615C710.558 472.583 710.534 472.485 710.54 472.505L710.563 472.582L710.75 473.195L711.121 474.42L714.097 484.22L726.016 523.412L738.11 562.549L752.834 625.901L765.162 664.954C773.31 690.763 800.398 704.939 825.667 696.618C849.747 688.687 863.484 663.188 857.672 638.471L857.625 638.284L845.648 574.453L836.066 534.921L826.417 495.416L816.59 455.967L814.131 446.107L813.822 444.874L813.669 444.259L813.08 442.142C812.603 440.537 812.166 439.066 811.55 437.387C810.909 435.672 810.216 433.972 809.477 432.298C806.436 425.614 802.368 419.391 797.49 413.969C787.706 403.16 774.763 395.554 760.552 392.54C753.473 391.028 746.104 390.599 738.922 391.388C737.144 391.553 735.139 391.894 733.269 392.239C732.337 392.415 731.338 392.622 730.47 392.817L729.858 392.96L727.41 393.529L688.242 402.678C662.153 408.879 636.113 415.307 610.257 422.477C581.191 430.538 564.027 461.138 571.919 490.826C579.581 519.649 608.047 537.013 636.297 530.622L636.436 530.59Z" fill="#ffa4ea"/><path id="Fill 3" fill-rule="evenodd" clip-rule="evenodd" d="M441 701L510.627 474.233C515.782 430.912 552.378 404.503 595.226 406.066L672.755 412.004C709.618 413.349 741.661 432.033 750.473 468.488L771 701H441Z" fill="#ffa4ea"/><g id="Group 7"><mask id="mask09eeab014-746d-450c-8f4b-9eadf406996d" mask-type="alpha" maskUnits="userSpaceOnUse" x="336" y="383" width="342" height="325" fill="#ffffff"><path id="Clip 6" fill-rule="evenodd" clip-rule="evenodd" d="M336.75 383.969H677.513V707.586H336.75V383.969Z" fill="#ffffff"/></mask><g mask="url(#mask09eeab014-746d-450c-8f4b-9eadf406996d)"><path id="Fill 5" fill-rule="evenodd" clip-rule="evenodd" d="M635.873 413.611C623.917 410.629 611.923 407.819 599.942 404.95L563.941 396.606L527.893 388.472L518.873 386.476L516.618 385.977L515.491 385.728L513.265 385.272L510.79 384.834C504.167 383.796 497.297 383.658 490.587 384.601C477.136 386.4 464.427 392.193 454.166 401.04C449.043 405.483 444.523 410.675 440.789 416.425C437.083 422.2 434.217 428.486 432.25 434.963L435.366 426.938L411.533 479.777C403.598 497.394 395.609 514.985 387.778 532.654L364.191 585.616C356.419 603.315 348.564 620.971 340.871 638.709C330.121 663.495 341.127 692.464 365.455 703.418C388.586 713.831 415.518 704.039 427.343 681.76C436.351 664.676 445.197 647.513 454.126 630.389L480.644 578.888C489.515 561.736 498.228 544.506 506.995 527.302L533.266 475.677L536.382 467.652C535.375 471.149 533.811 474.578 531.773 477.712C529.773 480.87 527.311 483.706 524.52 486.104C518.985 490.939 512.102 494.054 504.765 495.071C501.102 495.545 497.342 495.549 493.754 494.967C493.306 494.901 492.859 494.823 492.415 494.733L491.324 494.49L492.447 494.758L494.694 495.297L503.678 497.453L539.65 505.93L575.668 514.196C587.695 516.863 599.706 519.59 611.757 522.145C641.291 528.407 670.215 509.09 676.361 479.001C682.369 449.582 664.279 420.734 635.873 413.611" fill="#ffa4ea"/></g></g><path id="Fill 8" fill-rule="evenodd" clip-rule="evenodd" d="M435.263 427.419C426.659 444.672 418.293 462.043 410 479.45L397.65 505.606L385.441 531.83C377.319 549.323 369.173 566.804 361.179 584.359C353.105 601.874 345.203 619.477 337.277 637.066L335.637 640.708C323.93 666.688 335.154 697.399 360.707 709.302C372.435 714.765 385.228 715.29 396.679 711.776L655.778 631.852C676.043 625.601 687.486 603.83 681.338 583.226C675.592 563.966 656.332 552.582 637.316 556.276L371.547 608.898L430.949 683.607C439.726 666.44 448.531 649.287 457.16 632.047C465.869 614.847 474.428 597.571 483.01 580.308L495.857 554.399L508.564 528.421C516.974 511.072 525.313 493.688 533.412 476.185C546.257 448.428 534.539 415.342 507.24 402.283C480.457 389.47 448.586 400.778 435.263 427.419" fill="#ffa4ea"/><path id="Fill 10" fill-rule="evenodd" clip-rule="evenodd" d="M473.608 613C473.396 613 473.182 612.951 472.98 612.845C472.88 612.792 462.701 607.516 444.053 601.952C426.845 596.816 398.699 590.378 362.335 588.869C361.568 588.837 360.97 588.169 361.001 587.377C361.032 586.585 361.681 585.965 362.446 586.001C399.138 587.525 427.549 594.033 444.921 599.223C463.79 604.862 473.821 610.067 474.239 610.286C474.923 610.644 475.196 611.508 474.849 612.214C474.604 612.713 474.115 613 473.608 613" fill="#21211D"/><path id="Fill 12" fill-rule="evenodd" clip-rule="evenodd" d="M623.033 484C611.565 484 600.63 480.302 591.41 473.306C578.229 463.302 570.226 446.922 570.004 429.486C569.955 425.695 570.354 421.712 571.224 417.31L574.21 400.169C574.344 399.4 575.06 398.884 575.821 399.022C576.576 399.159 577.08 399.894 576.946 400.663L573.953 417.835C573.117 422.071 572.736 425.859 572.782 429.45C572.995 446.01 580.578 461.557 593.07 471.037C601.807 477.666 612.168 481.17 623.033 481.17C633.199 481.17 643.007 478.069 651.398 472.201C664.89 462.764 673.047 446.75 673.219 429.362C673.256 425.596 672.82 421.632 671.885 417.241L669.753 407.835C669.58 407.073 670.047 406.314 670.794 406.138C671.54 405.962 672.288 406.437 672.46 407.199L674.597 416.623C675.58 421.242 676.037 425.412 675.998 429.391C675.816 447.699 667.208 464.575 652.971 474.532C644.116 480.726 633.763 484 623.033 484" fill="#21211D"/><path id="Fill 14" fill-rule="evenodd" clip-rule="evenodd" d="M469.372 589C469.284 589 469.195 588.991 469.105 588.973C468.363 588.821 467.879 588.075 468.026 587.307L487.286 486.145C487.432 485.376 488.152 484.875 488.895 485.027C489.637 485.179 490.121 485.925 489.974 486.694L470.714 587.855C470.585 588.532 470.012 589 469.372 589" fill="#21211D"/><path id="Fill 16" fill-rule="evenodd" clip-rule="evenodd" d="M778.048 701L744.009 490.632C743.898 489.948 744.878 489.738 745.041 490.412L794 690.741L778.048 701Z" fill="#21211D"/><path id="Fill 18" fill-rule="evenodd" clip-rule="evenodd" d="M401.208 713.701C411.862 710.495 422.5 707.223 433.131 703.923L465.031 694.051C486.285 687.425 507.556 680.861 528.769 674.059C549.989 667.288 571.143 660.252 592.328 653.342L624.058 642.776L655.743 632.031C675.864 625.209 686.729 603.107 680.014 582.667C673.936 564.172 655.538 553.382 637.188 556.548L604.25 562.199L571.357 568.027C549.46 572.048 527.534 575.941 505.672 580.1C483.802 584.229 461.991 588.594 440.165 592.898L407.442 599.42C396.532 601.585 385.629 603.779 374.742 606.037C345.16 612.174 326.076 641.51 332.116 671.562C338.155 701.615 367.034 721.003 396.615 714.866C398.142 714.549 399.74 714.138 401.208 713.701Z" fill="#963716"/><path id="Fill 20" fill-rule="evenodd" clip-rule="evenodd" d="M604.186 605.519C617.009 601.686 629.789 597.677 642.551 593.582L661.671 587.334L666.444 585.742C667.992 585.229 669.788 584.619 670.877 584.287C673.418 583.482 675.809 582.905 677.548 582.622C679.338 582.339 680.526 582.284 681.793 582.463C683.045 582.644 684.546 583.203 686.316 584.336C688.075 585.469 690.041 586.982 691.992 588.888L692.614 589.458L693.117 589.951C693.45 590.289 693.772 590.648 694.086 591.02L694.323 591.299L694.442 591.444L694.629 591.702L695.371 592.74L696.859 594.813C704.796 605.87 712.869 616.842 721.434 627.509C724.702 631.578 730.587 632.177 734.58 628.848C737.873 626.102 738.843 621.531 737.251 617.735C731.926 605.064 726.108 592.698 720.154 580.417L719.037 578.115L718.479 576.963L718.338 576.675L718.129 576.275L717.695 575.472C717.1 574.412 716.46 573.374 715.778 572.354C715.436 571.846 715.084 571.342 714.721 570.842L714.166 570.098L713.69 569.488C711.24 566.251 708.394 562.98 704.899 559.885C701.408 556.814 697.047 553.862 691.937 551.879C686.85 549.865 681.279 549.022 676.387 549.001C671.428 548.969 667.196 549.586 663.21 550.28C661.025 550.668 659.596 550.983 657.902 551.321L652.958 552.323L633.209 556.447C620.059 559.268 606.927 562.173 593.838 565.256C582.843 567.843 575.989 579.023 578.529 590.226C581.068 601.43 592.04 608.414 603.034 605.826C603.401 605.74 603.828 605.624 604.186 605.519" fill="#963716"/><path id="Fill 22" fill-rule="evenodd" clip-rule="evenodd" d="M590.849 632.439L677.626 597.968L664.482 596.052V596.052C664.362 595.93 664.649 596.099 664.774 596.157L665.316 596.461C665.688 596.675 666.082 596.919 666.476 597.169C667.265 597.666 668.061 598.22 668.851 598.784C670.431 599.926 671.977 601.164 673.451 602.471C676.4 605.089 679.086 607.978 681.317 611.09C682.447 612.643 683.467 614.252 684.342 615.916C685.237 617.576 686.014 619.287 686.622 621.051C687.914 624.571 688.527 628.302 688.623 632.196L688.638 632.812C688.766 638.014 693.009 642.126 698.116 641.997C702.538 641.885 706.155 638.625 706.967 634.378C708.075 628.573 708.349 622.414 707.508 616.406C707.13 613.392 706.484 610.424 705.642 607.535C704.817 604.635 703.775 601.822 702.57 599.113C700.179 593.668 697.147 588.641 693.71 583.985C691.986 581.655 690.156 579.42 688.205 577.26C687.224 576.181 686.223 575.119 685.158 574.069C684.627 573.542 684.087 573.022 683.511 572.491L682.622 571.686C682.266 571.381 682.069 571.19 681.458 570.721L681.456 570.719C677.883 568.113 673.53 567.426 669.581 568.462L668.311 568.802L578.232 592.94C567.324 595.863 560.808 607.24 563.677 618.351C566.547 629.462 577.716 636.1 588.624 633.177C589.382 632.973 590.136 632.721 590.849 632.439" fill="#963716"/><path id="Fill 24" fill-rule="evenodd" clip-rule="evenodd" d="M574.863 641.647L661.684 607.057L650.013 606.043L650.012 606.042C649.84 605.94 649.857 605.94 649.863 605.935C649.858 605.924 649.858 605.914 649.889 605.924C649.938 605.937 649.965 605.931 650.037 605.961C650.159 605.999 650.294 606.047 650.448 606.114C650.744 606.235 651.071 606.385 651.401 606.55C652.063 606.885 652.753 607.257 653.428 607.681C654.79 608.511 656.115 609.483 657.362 610.542C659.869 612.661 662.054 615.16 663.8 617.996C665.569 620.825 666.878 624.023 667.713 627.527C668.524 631.034 668.869 634.84 668.716 638.806L668.702 639.154C668.501 644.382 672.486 648.786 677.603 648.993C682.033 649.17 685.858 646.14 686.937 641.934C688.281 636.71 689.051 631.134 688.997 625.364C688.923 619.606 687.977 613.65 686.03 607.969C684.112 602.272 681.251 596.87 677.679 592.046C675.894 589.627 673.943 587.339 671.796 585.193C670.731 584.113 669.602 583.078 668.41 582.056C667.812 581.544 667.196 581.041 666.532 580.532C666.208 580.281 665.859 580.022 665.494 579.76L664.906 579.351L664.561 579.123C664.442 579.048 664.335 578.976 664.037 578.805L664.034 578.803C660.697 576.935 656.95 576.566 653.536 577.475L652.363 577.79L562.24 602.011C551.326 604.944 544.806 616.36 547.677 627.51C550.549 638.659 561.724 645.319 572.637 642.387C573.396 642.182 574.149 641.93 574.863 641.647" fill="#963716"/><path id="Fill 26" fill-rule="evenodd" clip-rule="evenodd" d="M560.576 651.292L648.569 612.717L633.183 609.639H633.182C633.351 609.713 633.801 610.06 634.132 610.304L635.225 611.148C635.959 611.725 636.692 612.323 637.417 612.932C638.864 614.151 640.271 615.413 641.609 616.693C644.277 619.241 646.71 621.939 648.429 624.366C649.291 625.565 649.944 626.692 650.334 627.431C650.743 628.204 650.859 628.378 651.186 628.129C651.343 628.029 651.554 627.914 651.68 627.956C651.807 627.991 651.823 628.173 651.662 628.443C651.357 628.996 650.299 629.773 648.975 630.432L648.17 630.833C643.583 633.116 641.688 638.739 643.939 643.393C645.853 647.352 650.156 649.331 654.221 648.428C657.017 647.808 660.028 646.933 663.246 644.93C664.84 643.925 666.471 642.622 667.936 640.935C669.401 639.258 670.659 637.192 671.497 635.013C672.345 632.832 672.782 630.589 672.932 628.513C673.083 626.43 672.969 624.501 672.732 622.725C672.242 619.168 671.299 616.183 670.253 613.457C668.126 608.023 665.518 603.53 662.76 599.27C661.375 597.149 659.94 595.108 658.447 593.115C657.7 592.118 656.939 591.134 656.154 590.153L654.951 588.678C654.51 588.157 654.18 587.746 653.556 587.076L653.553 587.073C649.637 583.277 644.17 582.146 639.332 583.631L638.166 583.995L546.487 612.394C535.683 615.742 529.598 627.341 532.897 638.302C536.197 649.264 547.631 655.437 558.436 652.09C559.166 651.863 559.891 651.591 560.576 651.292" fill="#963716"/><path id="Fill 28" fill-rule="evenodd" clip-rule="evenodd" d="M710.604 615C710.085 615 709.585 614.705 709.345 614.199C709.241 613.98 698.755 592.223 685.856 586.725C685.145 586.421 684.81 585.59 685.11 584.868C685.408 584.147 686.227 583.808 686.939 584.111C700.813 590.026 711.416 612.033 711.86 612.967C712.196 613.671 711.906 614.518 711.21 614.859C711.015 614.954 710.808 615 710.604 615" fill="#21211D"/><path id="Fill 30" fill-rule="evenodd" clip-rule="evenodd" d="M688.328 634C688.265 634 688.203 633.996 688.14 633.987C687.384 633.882 686.855 633.17 686.958 632.397C686.991 632.147 690.106 607.273 673.944 601.751C673.22 601.504 672.83 600.704 673.072 599.964C673.313 599.225 674.097 598.826 674.819 599.073C682.465 601.685 687.458 608.397 689.26 618.484C690.588 625.919 689.731 632.504 689.694 632.78C689.599 633.488 689.007 634 688.328 634" fill="#21211D"/><path id="Fill 32" fill-rule="evenodd" clip-rule="evenodd" d="M668.564 641C668.366 641 668.164 640.957 667.973 640.868C667.265 640.538 666.957 639.692 667.282 638.978C667.321 638.891 671.206 630.211 667.691 622.972C665.519 618.499 660.944 615.418 654.093 613.812C653.334 613.634 652.861 612.869 653.037 612.103C653.214 611.336 653.973 610.86 654.732 611.037C662.46 612.847 667.677 616.448 670.236 621.739C674.335 630.209 670.031 639.773 669.845 640.175C669.606 640.694 669.097 641 668.564 641" fill="#21211D"/><path id="Fill 34" fill-rule="evenodd" clip-rule="evenodd" d="M641.417 636C640.82 636 640.264 635.631 640.069 635.05C639.829 634.329 640.235 633.554 640.98 633.32L646.912 631.451L644.379 630.686C643.632 630.46 643.216 629.69 643.449 628.965C643.681 628.241 644.473 627.836 645.221 628.063L652.004 630.111C652.594 630.29 652.996 630.817 653 631.415C653.004 632.013 652.608 632.545 652.022 632.729L641.854 635.932C641.709 635.978 641.562 636 641.417 636" fill="#21211D"/><path id="Fill 36" fill-rule="evenodd" clip-rule="evenodd" d="M753 702H1002.98L1070 510H828.739C823.511 510 818.845 513.346 817.089 518.357L753 702Z" fill="#21211D"/><path id="Fill 38" fill-rule="evenodd" clip-rule="evenodd" d="M772.957 702H1018.58C1019.41 702 1020.15 701.47 1020.42 700.678L1082.45 522.784C1084.63 516.552 1080.09 510 1073.59 510H847.24C841.188 510 835.79 513.875 833.756 519.679L771.115 699.34C770.661 700.636 771.606 702 772.957 702" fill="#2E4C9E"/><g id="Group 44"><mask id="mask19eeab014-746d-450c-8f4b-9eadf406996d" mask-type="alpha" maskUnits="userSpaceOnUse" x="770" y="510" width="313" height="193" fill="#ffffff"><path id="Clip 43" fill-rule="evenodd" clip-rule="evenodd" d="M1073.11 510.774C1079.6 510.774 1084.14 517.307 1081.96 523.52V523.52L1019.97 700.879C1019.69 701.669 1018.96 702.197 1018.13 702.197V702.197H772.655C771.304 702.197 770.36 700.837 770.814 699.544V699.544L833.417 520.425C835.449 514.638 840.844 510.774 846.892 510.774V510.774H1073.11Z" fill="#ffffff"/></mask><g mask="url(#mask19eeab014-746d-450c-8f4b-9eadf406996d)"><path id="Fill 42" fill-rule="evenodd" clip-rule="evenodd" d="M1057.64 471.371L749.555 686.757L827.994 738.552L1114.64 554.139L1057.64 471.371Z" fill="#4965CC"/></g></g><path id="Fill 46" fill-rule="evenodd" clip-rule="evenodd" d="M926.621 614C919.24 614 914.095 607.956 915.133 600.499C916.171 593.043 922.996 587 930.379 587C937.761 587 942.905 593.043 941.867 600.499C940.829 607.956 934.004 614 926.621 614ZM941 702H635C635 692.059 642.76 684 652.331 684H941V702Z" fill="#2E4C9E"/><path id="Fill 47" fill-rule="evenodd" clip-rule="evenodd" d="M1024.61 685H776.392C775.623 685 775 684.329 775 683.501C775 682.672 775.623 682 776.392 682H1024.61C1025.38 682 1026 682.672 1026 683.501C1026 684.329 1025.38 685 1024.61 685" fill="#21211D"/><path id="Fill 49" fill-rule="evenodd" clip-rule="evenodd" d="M662.824 408.766L664.723 425.111C664.979 427.443 665.076 430.061 664.935 432.482C663.588 455.63 643.946 473.289 621.064 471.926C598.182 470.563 580.725 450.693 582.073 427.545L583.619 401C583.619 401 612.151 410.493 662.824 408.766" fill="#963716"/></g></g></g><g id="Hairstyle" transform="translate(445 415) scale(1 1)"><g id="Hairstyle/Curly Afro"><g id="Group 28"><path id="Fill 1" fill-rule="evenodd" clip-rule="evenodd" d="M249.646 239.457C241.417 239.457 234.723 249.87 234.723 262.668C234.723 275.467 241.417 285.88 249.646 285.88C257.875 285.88 264.569 275.467 264.569 262.668C264.569 249.87 257.875 239.457 249.646 239.457M249.646 288.568C239.935 288.568 232.035 276.949 232.035 262.668C232.035 248.387 239.935 236.769 249.646 236.769C259.357 236.769 267.257 248.387 267.257 262.668C267.257 276.949 259.357 288.568 249.646 288.568" fill="#EDC829"/><g id="Group 5"><path id="Fill 3" fill-rule="evenodd" clip-rule="evenodd" d="M245.184 202.001C243.732 206.975 236.499 209.771 234.376 214.409C232.225 219.1 234.846 226.4 232.063 230.701C229.281 235.03 221.551 235.675 218.19 239.547C214.83 243.432 215.287 251.162 211.402 254.536C207.53 257.897 199.935 256.351 195.606 259.133C191.305 261.903 189.57 269.458 184.879 271.608C180.241 273.732 173.385 270.103 168.425 271.555C163.545 272.993 159.741 279.755 154.605 280.48C149.578 281.193 144.039 275.789 138.824 275.789C133.607 275.789 128.069 281.193 123.055 280.48C117.92 279.755 114.115 272.993 109.236 271.555C104.262 270.103 97.419 273.732 92.782 271.608C88.09 269.458 86.356 261.903 82.054 259.133C77.726 256.337 70.13 257.897 66.259 254.536C62.373 251.162 62.83 243.418 59.456 239.547C56.096 235.662 48.379 235.03 45.583 230.701C42.814 226.4 45.422 219.1 43.285 214.409C41.161 209.771 33.928 206.975 32.463 202.001C31.038 197.121 35.609 190.87 34.869 185.721C34.157 180.707 28 175.989 28 170.773C28 165.557 34.157 160.839 34.869 155.824C35.609 150.676 31.038 144.425 32.463 139.545C33.928 134.571 41.161 131.789 43.285 127.137C45.422 122.446 42.814 115.159 45.583 110.845C48.379 106.516 56.096 105.884 59.456 101.999C62.83 98.1269 62.373 90.3839 66.259 87.0229C70.13 83.6629 77.726 85.2089 82.054 82.4129C86.356 79.6429 88.09 72.0879 92.782 69.9379C97.419 67.8139 104.262 71.4429 109.236 69.9909C114.115 68.5529 117.92 61.8049 123.055 61.0649C128.069 60.3529 133.607 65.7569 138.824 65.7569C141.552 65.7569 144.362 64.2779 147.144 62.9739C149.685 61.7779 152.199 60.7289 154.605 61.0649C159.741 61.8049 163.545 68.5529 168.425 69.9909C173.398 71.4429 180.241 67.8139 184.879 69.9379C189.57 72.0879 191.305 79.6429 195.606 82.4129C199.935 85.2089 207.53 83.6629 211.402 87.0229C215.287 90.3839 214.83 98.1269 218.19 102.012C221.551 105.884 229.281 106.529 232.063 110.858C234.846 115.159 232.225 122.446 234.376 127.137C236.499 131.789 243.732 134.571 245.184 139.545C245.265 139.827 245.331 140.11 245.372 140.405C246.111 145.151 242.092 150.972 242.791 155.824C243.503 160.839 249.647 165.557 249.647 170.773C249.647 175.989 243.503 180.707 242.791 185.721C242.052 190.87 246.622 197.121 245.184 202.001" fill="#654206"/><mask id="mask045c4c36e-301b-4f4b-80e3-ab350afe5b63" mask-type="alpha" maskUnits="userSpaceOnUse" x="28" y="61" width="222" height="220" fill="#ffffff"><path id="Clip 4" fill-rule="evenodd" clip-rule="evenodd" d="M28 61.0003H249.647V280.545H28V61.0003Z" fill="#ffffff"/></mask><g mask="url(#mask045c4c36e-301b-4f4b-80e3-ab350afe5b63)"/></g><path id="Fill 3" fill-rule="evenodd" clip-rule="evenodd" d="M206.638 203.484L219.639 314.071C222.206 335.911 206.583 355.698 184.743 358.265C162.904 360.833 143.117 345.21 140.549 323.37C140.281 321.085 140.23 318.602 140.346 316.379L146.893 205.223C147.867 188.682 162.065 176.063 178.606 177.038C193.355 177.906 204.983 189.301 206.638 203.484" fill="#963716"/><path id="Fill 12" fill-rule="evenodd" clip-rule="evenodd" d="M214.999 274.716C214.999 274.716 207.488 273.553 195.097 267.185C193.581 266.407 192.084 268.25 193.174 269.559L217.73 297.95L214.999 274.716Z" fill="#21211D"/><path id="Fill 6" fill-rule="evenodd" clip-rule="evenodd" d="M119.366 185.886C121.226 197.641 122.323 197.05 123.866 204.088C124.111 205.228 124.428 206.367 124.803 207.492C128.597 218.843 138.549 229.459 147.737 236.67C147.737 236.67 183.809 268.733 215.396 275.065C227.771 277.546 239.483 276.075 248.05 267.147C275.57 238.43 242.209 183.333 229.17 164.251C228.997 163.977 228.824 163.688 228.637 163.415C225.579 158.554 221.742 154.184 217.315 150.491C215.237 148.76 213.16 147.231 211.012 145.919C206.814 143.323 202.357 141.491 197.194 140.28C189.564 138.505 181.645 138.001 173.843 138.505C171.636 138.635 169.429 138.866 167.222 139.155C153.708 140.958 138.78 144.26 128.9 154.313C122.51 160.804 119.193 169.313 118.89 178.169C118.804 180.722 118.962 183.304 119.366 185.886" fill="#963716"/><path id="Fill 10" fill-rule="evenodd" clip-rule="evenodd" d="M151.325 225.864C150.609 238.226 140.006 247.666 127.644 246.95C115.282 246.233 105.841 235.63 106.558 223.268C107.275 210.906 117.877 201.466 130.24 202.182C142.601 202.899 152.042 213.502 151.325 225.864" fill="#963716"/><path id="Fill 16" fill-rule="evenodd" clip-rule="evenodd" d="M136.967 227.352C136.781 227.352 136.592 227.316 136.41 227.24L118.805 219.864C118.07 219.557 117.724 218.712 118.032 217.977C118.34 217.242 119.184 216.896 119.919 217.204L137.525 224.579C138.259 224.887 138.606 225.732 138.298 226.467C138.066 227.019 137.53 227.352 136.967 227.352" fill="#21211D"/><path id="Fill 18" fill-rule="evenodd" clip-rule="evenodd" d="M126.024 230.445C125.853 230.445 125.679 230.414 125.51 230.35C124.766 230.065 124.393 229.232 124.677 228.488L127.206 221.869C127.489 221.125 128.321 220.752 129.067 221.037C129.812 221.321 130.185 222.154 129.9 222.899L127.372 229.517C127.152 230.092 126.605 230.445 126.024 230.445" fill="#21211D"/><path id="Fill 21" fill-rule="evenodd" clip-rule="evenodd" d="M245.371 140.405C243.933 140.997 242.521 141.602 241.351 142.489C238.421 144.693 236.674 148.941 233.326 150.635C230.073 152.289 225.623 151.186 222.007 152.289C218.391 153.391 215.312 156.779 211.683 157.222C207.959 157.679 204.155 155.125 200.485 154.937C196.748 154.735 192.688 156.859 189.099 156.012C185.819 155.246 183.291 152.154 180.334 150.501C180.012 150.312 179.702 150.151 179.366 150.017C175.952 148.565 171.408 149.17 168.289 147.154C165.184 145.124 163.907 140.728 161.178 138.187C158.476 135.673 153.999 134.705 151.754 131.721C149.55 128.777 149.846 124.206 148.152 120.859C146.498 117.606 142.614 115.159 141.524 111.543C140.422 107.927 142.277 103.733 141.834 100.103C141.376 96.3802 138.567 92.7502 138.768 89.0932C138.916 86.3112 140.718 83.7702 141.968 81.1762C142.412 80.2882 142.775 79.3882 142.99 78.4602C143.837 74.8312 142.438 70.4612 143.891 67.0602C144.562 65.4882 145.799 64.2112 147.143 62.9742C149.684 61.7772 152.198 60.7292 154.604 61.0652C159.74 61.8042 163.544 68.5532 168.424 69.9912C173.397 71.4432 180.24 67.8132 184.878 69.9372C189.569 72.0882 191.304 79.6432 195.605 82.4122C199.934 85.2082 207.529 83.6632 211.401 87.0232C215.286 90.3842 214.829 98.1272 218.189 102.012C221.55 105.884 229.28 106.529 232.062 110.858C234.845 115.159 232.224 122.445 234.375 127.137C236.498 131.788 243.731 134.571 245.183 139.545C245.264 139.827 245.33 140.109 245.371 140.405" fill="#654206"/><path id="Fill 7" fill-rule="evenodd" clip-rule="evenodd" d="M144.741 240.503C144.741 240.503 147.772 238.696 149.955 235.496C150.287 235.009 151.041 235.148 151.155 235.727C151.932 239.679 152.628 250.138 143.691 258.748L144.741 240.503Z" fill="#21211D"/><path id="Combined Shape" fill-rule="evenodd" clip-rule="evenodd" d="M180.77 126.595C181.087 124.394 181.407 122.17 180.786 120.131C180.164 118.091 178.659 116.423 177.169 114.772C176.018 113.497 174.875 112.231 174.156 110.812C173.406 109.332 173.046 107.614 172.688 105.905C172.235 103.744 171.785 101.595 170.553 99.9565C169.289 98.2759 167.318 97.2334 165.354 96.1951C163.827 95.3875 162.305 94.5824 161.125 93.4815C159.926 92.3634 159.006 90.8849 158.088 89.4078C156.919 87.5294 155.752 85.6532 154.015 84.5235C152.27 83.3895 150.077 83.0833 147.885 82.7772C146.164 82.5369 144.444 82.2968 142.942 81.6565C141.447 81.0193 140.088 79.9482 138.727 78.8754C136.986 77.5035 135.241 76.1287 133.206 75.6545C131.196 75.1863 129.04 75.6443 126.877 76.1038C125.173 76.4658 123.465 76.8286 121.821 76.7405C120.22 76.655 118.592 76.1199 116.956 75.582C114.843 74.8875 112.717 74.1884 110.616 74.4465C108.599 74.6945 106.751 75.8512 104.886 77.0186C103.398 77.9503 101.898 78.8888 100.294 79.3775C98.6895 79.8662 96.9216 79.9228 95.1664 79.9791C92.9673 80.0495 90.788 80.1193 88.9756 81.0375C87.0868 81.9946 85.7108 83.7608 84.3441 85.5151C83.2859 86.8733 82.2333 88.2245 80.9526 89.1875C79.636 90.1776 78.0156 90.8285 76.3993 91.4777C74.3475 92.3019 72.3025 93.1233 70.8946 94.6325C69.4694 96.1604 68.7875 98.2739 68.107 100.383C67.5747 102.033 67.0433 103.68 66.1576 105.043C65.2674 106.412 63.9728 107.57 62.6778 108.729C61.0283 110.205 59.3782 111.681 58.5626 113.595C57.7504 115.501 57.8271 117.709 57.9038 119.919C57.9642 121.658 58.0246 123.399 57.6526 124.996C57.2863 126.568 56.4714 128.085 55.6538 129.607C54.6031 131.564 53.5481 133.528 53.4356 135.628C53.3262 137.676 54.1499 139.71 54.9786 141.757C55.6339 143.375 56.2923 145.001 56.4946 146.647C56.689 148.228 56.446 149.916 56.2012 151.617C55.8844 153.819 55.5645 156.042 56.1856 158.081C56.8067 160.12 58.3116 161.787 59.8019 163.438C60.9533 164.714 62.096 165.98 62.8156 167.401C63.566 168.881 63.9259 170.598 64.2841 172.308C64.7368 174.468 65.1868 176.616 66.4196 178.256C67.6826 179.935 69.6529 180.977 71.6154 182.015C73.1429 182.823 74.6657 183.629 75.8466 184.73C77.0452 185.849 77.9649 187.327 78.8836 188.804C80.052 190.683 81.219 192.559 82.9566 193.688C84.7007 194.822 86.894 195.129 89.0865 195.435C90.8072 195.675 92.5275 195.915 94.0296 196.556C95.5242 197.192 96.8837 198.264 98.2454 199.336C99.9862 200.708 101.731 202.082 103.766 202.556C105.775 203.025 107.931 202.567 110.094 202.107C111.798 201.745 113.507 201.382 115.152 201.471C116.751 201.556 118.378 202.091 120.014 202.629C122.127 203.323 124.254 204.023 126.356 203.765C127.662 203.604 128.898 203.061 130.114 202.382C130.411 202.427 130.741 202.471 131.099 202.518C135.714 203.135 145.039 204.382 150.734 215.412L154.432 222.443C156.164 225.909 160.255 227.496 163.88 226.099C166.865 224.949 168.699 222.094 168.699 219.081C168.699 218.237 168.553 217.377 168.262 216.547C168.262 216.547 165.777 203.92 158.757 187.487C159.352 187.223 159.962 186.978 160.572 186.733C162.624 185.909 164.669 185.088 166.077 183.579C167.502 182.051 168.184 179.937 168.864 177.828C169.396 176.178 169.928 174.531 170.814 173.169C171.704 171.8 172.998 170.642 174.293 169.483C175.942 168.007 177.593 166.53 178.409 164.617C179.221 162.71 179.144 160.503 179.067 158.293C179.007 156.553 178.946 154.813 179.319 153.215C179.685 151.643 180.5 150.126 181.317 148.604C182.368 146.647 183.423 144.683 183.536 142.584C183.645 140.536 182.821 138.502 181.992 136.455C181.337 134.836 180.678 133.21 180.476 131.564C180.282 129.983 180.525 128.296 180.77 126.595Z" fill="#654206"/><path id="Fill 24" fill-rule="evenodd" clip-rule="evenodd" d="M127.974 239.457C119.745 239.457 113.051 249.87 113.051 262.668C113.051 275.467 119.745 285.88 127.974 285.88C136.203 285.88 142.897 275.467 142.897 262.668C142.897 249.87 136.203 239.457 127.974 239.457M127.974 288.568C118.263 288.568 110.363 276.949 110.363 262.668C110.363 248.387 118.263 236.769 127.974 236.769C137.685 236.769 145.585 248.387 145.585 262.668C145.585 276.949 137.685 288.568 127.974 288.568" fill="#EDC829"/><path id="Fill 26" fill-rule="evenodd" clip-rule="evenodd" d="M132.879 238.113C132.879 240.822 130.683 243.018 127.975 243.018C125.266 243.018 123.07 240.822 123.07 238.113C123.07 235.404 125.266 233.208 127.975 233.208C130.683 233.208 132.879 235.404 132.879 238.113" fill="#EDC829"/></g></g></g><g id="Expression" transform="translate(605 580) scale(1 1)"><g id="Expression/Smiling"><g id="Expressiion"><path id="Fill 344" fill-rule="evenodd" clip-rule="evenodd" d="M104.883 41.3925C104.883 41.3925 97.4453 50.5875 85.3503 50.1565C80.2243 49.9655 74.2583 48.0695 67.6963 42.9765C67.6963 42.9765 74.0883 35.6425 84.7273 34.9335C90.3653 34.5395 97.1823 35.9885 104.883 41.3925" fill="white"/><path id="Fill 346" fill-rule="evenodd" clip-rule="evenodd" d="M104.883 41.3925C104.883 41.3925 97.4451 50.5875 85.3501 50.1565C83.6511 48.1045 82.6201 45.5385 82.4981 42.6785C82.3761 39.8175 83.2081 37.1215 84.7271 34.9335C90.3651 34.5395 97.1821 35.9885 104.883 41.3925" fill="#21211D"/><path id="Stroke 348" d="M57.6222 35.9662C58.3755 35.7594 59.1525 36.1642 59.4244 36.88L59.4694 37.0177L65.7074 59.7426C66.8291 63.8275 63.8235 67.8577 59.6296 67.9893L59.3997 67.9926L54.2067 67.9776C53.3766 67.9752 52.7056 67.3003 52.708 66.4702C52.7103 65.6863 53.3124 65.0442 54.0785 64.9773L54.2154 64.9716L59.4081 64.9866C61.6706 64.9927 63.3326 62.899 62.8535 60.7202L62.8086 60.5384L56.5706 37.8134C56.3509 37.013 56.8217 36.1859 57.6222 35.9662Z" fill="#21211D"/><path id="Stroke 350" d="M72.7464 23.3731C81.6696 19.8771 91.6982 19.8981 101.811 25.7772C102.528 26.1944 102.772 27.1144 102.355 27.832C101.937 28.5496 101.017 28.7931 100.3 28.3759C91.0615 23.005 81.9748 22.986 73.843 26.1719C72.6672 26.6326 71.622 27.1249 70.722 27.6148L70.2521 27.8776C69.9782 28.0355 69.7837 28.157 69.6729 28.2318C68.9852 28.6966 68.0509 28.516 67.586 27.8282C67.1212 27.1405 67.3019 26.2062 67.9896 25.7413L68.1803 25.6169C68.4357 25.4548 68.806 25.2352 69.2848 24.9746C70.2915 24.4266 71.4498 23.8811 72.7464 23.3731Z" fill="#21211D"/><path id="Fill 352" fill-rule="evenodd" clip-rule="evenodd" d="M52.5561 41.3925C52.5561 41.3925 45.1181 50.5875 33.0231 50.1565C27.8971 49.9655 21.9311 48.0695 15.3691 42.9765C15.3691 42.9765 21.7601 35.6425 32.4001 34.9335C38.0381 34.5395 44.8551 35.9885 52.5561 41.3925" fill="white"/><path id="Fill 354" fill-rule="evenodd" clip-rule="evenodd" d="M52.556 41.3925C52.556 41.3925 45.118 50.5875 33.023 50.1565C31.324 48.1045 30.293 45.5385 30.171 42.6785C30.049 39.8175 30.881 37.1215 32.4 34.9335C38.038 34.5395 44.855 35.9885 52.556 41.3925" fill="#21211D"/><path id="Stroke 356" d="M15.7478 25.7772C25.8597 19.8981 35.8884 19.8771 44.8119 23.3731C46.1086 23.8811 47.2669 24.4266 48.2736 24.9746L48.6573 25.1875C49.0736 25.4233 49.3796 25.6134 49.5689 25.7413C50.2566 26.2061 50.4373 27.1405 49.9725 27.8282C49.5077 28.5159 48.5734 28.6966 47.8856 28.2318L47.6572 28.0859C47.4638 27.9669 47.1888 27.8065 46.8365 27.6148C45.9365 27.1249 44.8911 26.6326 43.7154 26.1719C35.5832 22.986 26.4965 23.005 17.2587 28.3759C16.5411 28.7931 15.6211 28.5496 15.2039 27.832C14.7867 27.1144 15.0302 26.1944 15.7478 25.7772Z" fill="#21211D"/><path id="Stroke 358" d="M44.7858 71.0715C45.5226 70.8117 46.3263 71.1604 46.6485 71.8549L46.7542 72.1187C46.811 72.2527 46.9035 72.4496 47.0343 72.6923C47.3494 73.2769 47.7532 73.8639 48.2499 74.4088C49.8878 76.2055 52.107 77.1368 55.1388 76.7755C55.9631 76.6773 56.7109 77.2659 56.8091 78.0901C56.9073 78.9144 56.3187 79.6622 55.4945 79.7604C51.4503 80.2423 48.2919 78.917 46.0284 76.4339C44.8723 75.1656 44.1881 73.8961 43.8682 72.9888C43.5921 72.2059 44.003 71.3475 44.7858 71.0715Z" fill="#21211D"/></g></g></g><g id="Facial Hair" transform="translate(445 415) scale(1 1)"><g id="Facial Hair/None"><path id="Path 5 Copy" opacity="0.01" d="M194.243 232.218C199.141 228.68 204.97 228.076 211.402 230.327C218.029 232.645 222.561 234.667 224.866 242.113C225.356 243.696 224.47 245.376 222.887 245.866C221.305 246.356 219.624 245.47 219.134 243.887C217.372 238.193 214.178 237.654 209.421 235.99C204.761 234.36 200.983 234.751 197.757 237.082C196.414 238.052 194.539 237.75 193.569 236.407C192.598 235.064 192.9 233.189 194.243 232.218Z" fill="#654206"/></g></g><g id="Accesories" transform="translate(571 593) scale(1 1)"><g id="Accesories/Designer Glasses 5"><g id="Group 26"><path id="Fill 7" fill-rule="evenodd" clip-rule="evenodd" d="M44.9111 20.7315C44.8333 20.7538 44.7537 20.7703 44.6716 20.7814L2.8567 26.4081C1.9431 26.5307 1.10404 25.8902 0.980503 24.9768C0.858207 24.0642 1.50081 23.2287 2.41152 23.0997L44.2267 17.4739C45.14 17.3504 45.9794 17.9919 46.1029 18.9052C46.2141 19.7357 45.6936 20.5071 44.9111 20.7315" fill="#20201D"/><path id="Combined Shape" fill-rule="evenodd" clip-rule="evenodd" d="M42 29.4685C42 42.4647 52.5212 53 65.5 53C78.4788 53 89 42.4647 89 29.4685V14H42V29.4685ZM85 31.2889V19H48V31.2889C48 34.4185 48.7584 37.3678 50.097 39.9602C51.7572 43.1536 54.3068 45.8109 57.4026 47.5867C59.4026 48.7283 61.6283 49.5107 63.9995 49.8198C64.8223 49.9339 65.6451 50 66.4994 50C67.2082 50 67.9035 49.9669 68.5964 49.8688C77.8219 48.8264 85 40.9045 85 31.2889Z" fill="#20201D"/><path id="Combined Shape_2" fill-rule="evenodd" clip-rule="evenodd" d="M100 30.4685C100 43.4647 110.52 54 123.499 54C136.479 54 147 43.4647 147 30.4685V15H100V30.4685ZM142 31.2889V19H105V31.2889C105 34.7606 105.936 38.0042 107.564 40.7745C109.42 44.0021 112.225 46.5933 115.564 48.2071C117.823 49.2826 120.322 49.9179 122.968 49.9829C123.144 50 123.322 50 123.5 50C124.984 50 126.419 49.8198 127.79 49.4948C135.936 47.5388 142 40.1232 142 31.2889Z" fill="#20201D"/><path id="Fill 12" fill-rule="evenodd" clip-rule="evenodd" d="M39 14H44V19H41.9593C40.3246 19 39 17.6751 39 16.0411V14Z" fill="#20201D"/><path id="Fill 14" fill-rule="evenodd" clip-rule="evenodd" d="M151 15H146V20H148.041C149.676 20 151 18.6751 151 17.0411V15Z" fill="#20201D"/><path id="Fill 24" fill-rule="evenodd" clip-rule="evenodd" d="M104.324 18C104.04 18 103.751 17.9272 103.487 17.7746C94.8782 12.7846 86.8111 17.0267 86.4713 17.2098C85.6593 17.6478 84.6423 17.3448 84.2029 16.5324C83.7635 15.7199 84.0611 14.7043 84.8707 14.2616C85.275 14.0409 94.8887 8.91357 105.165 14.8698C105.964 15.3336 106.238 16.3598 105.775 17.1617C105.464 17.6994 104.902 18 104.324 18" fill="#20201D"/></g></g></g></g></g><g id="Small Objects" transform="translate(1790 479) scale(1 1)"><g id="Small Objects/Books"><g id="Group 28"><g id="Group 3"><mask id="mask0c4e54bf4-36d4-4e15-9c79-53ea53d28aa2" mask-type="alpha" maskUnits="userSpaceOnUse" x="47" y="466" width="270" height="64" fill="#ffffff"><path id="Clip 2" fill-rule="evenodd" clip-rule="evenodd" d="M47 466.297H316.809V530H47V466.297Z" fill="#ffffff"/></mask><g mask="url(#mask0c4e54bf4-36d4-4e15-9c79-53ea53d28aa2)"><path id="Fill 1" fill-rule="evenodd" clip-rule="evenodd" d="M316.809 466.297H78.5235C61.1136 466.297 47 480.557 47 498.148V498.149C47 515.739 61.1136 530 78.5235 530H316.809V466.297Z" fill="#B6CCFC"/></g></g><path id="Fill 4" fill-rule="evenodd" clip-rule="evenodd" d="M317 476H198.314C185.991 476 176 486.074 176 498.5C176 510.926 185.991 521 198.314 521H317V476Z" fill="white"/><path id="Fill 6" fill-rule="evenodd" clip-rule="evenodd" d="M350 403H111.545C94.1229 403 80 417.103 80 434.5V434.5C80 451.896 94.1229 466 111.545 466H350V403Z" fill="#4965CC"/><path id="Fill 8" fill-rule="evenodd" clip-rule="evenodd" d="M350 412H231.314C218.991 412 209 422.074 209 434.5V434.5C209 446.926 218.991 457 231.314 457H350V412Z" fill="white"/><path id="Fill 10" fill-rule="evenodd" clip-rule="evenodd" d="M349.838 425H212.163C211.521 425 211 424.552 211 424C211 423.448 211.521 423 212.163 423H349.838C350.48 423 351 423.448 351 424C351 424.552 350.48 425 349.838 425" fill="#21211D"/><path id="Fill 12" fill-rule="evenodd" clip-rule="evenodd" d="M349.837 436H209.163C208.521 436 208 435.552 208 435C208 434.448 208.521 434 209.163 434H349.837C350.479 434 351 434.448 351 435C351 435.552 350.479 436 349.837 436" fill="#21211D"/><path id="Fill 14" fill-rule="evenodd" clip-rule="evenodd" d="M349.838 446H212.163C211.521 446 211 445.552 211 445C211 444.448 211.521 444 212.163 444H349.838C350.48 444 351 444.448 351 445C351 445.552 350.48 446 349.838 446" fill="#21211D"/><path id="Fill 16" fill-rule="evenodd" clip-rule="evenodd" d="M317.838 488H180.163C179.521 488 179 487.552 179 487C179 486.448 179.521 486 180.163 486H317.838C318.48 486 319 486.448 319 487C319 487.552 318.48 488 317.838 488" fill="#21211D"/><path id="Fill 18" fill-rule="evenodd" clip-rule="evenodd" d="M317.837 499H177.163C176.521 499 176 498.552 176 498C176 497.448 176.521 497 177.163 497H317.837C318.479 497 319 497.448 319 498C319 498.552 318.479 499 317.837 499" fill="#21211D"/><path id="Fill 20" fill-rule="evenodd" clip-rule="evenodd" d="M317.838 510H180.163C179.521 510 179 509.552 179 509C179 508.448 179.521 508 180.163 508H317.838C318.48 508 319 508.448 319 509C319 509.552 318.48 510 317.838 510" fill="#21211D"/><path id="Fill 22" fill-rule="evenodd" clip-rule="evenodd" d="M186.713 439H111.288C108.367 439 106 436.537 106 433.5C106 430.463 108.367 428 111.288 428H186.713C189.633 428 192 430.463 192 433.5C192 436.537 189.633 439 186.713 439" fill="#B6CCFC"/><path id="Fill 24" fill-rule="evenodd" clip-rule="evenodd" d="M155.681 501H95.3199C92.3818 501 90 498.537 90 495.5C90 492.463 92.3818 490 95.3199 490H155.681C158.619 490 161 492.463 161 495.5C161 498.537 158.619 501 155.681 501" fill="#4965CC"/><path id="Fill 26" fill-rule="evenodd" clip-rule="evenodd" d="M80 495C80 499.418 76.4179 503 72 503C67.5815 503 64 499.418 64 495C64 490.582 67.5815 487 72 487C76.4179 487 80 490.582 80 495" fill="#4965CC"/></g></g></g><g id="Lamp"><path id="Fill 1" fill-rule="evenodd" clip-rule="evenodd" d="M2239.8 999.526C2239.63 999.526 2239.46 999.5 2239.29 999.445C2238.45 999.167 2237.99 998.258 2238.27 997.415L2322.77 741.366L2106.17 552.941C2105.5 552.359 2105.43 551.343 2106.02 550.674C2106.6 550.005 2107.61 549.933 2108.28 550.516L2325.69 739.642C2326.18 740.067 2326.36 740.743 2326.16 741.359L2241.32 998.422C2241.1 999.098 2240.47 999.526 2239.8 999.526" fill="#21211D"/><path id="Fill 3" fill-rule="evenodd" clip-rule="evenodd" d="M2341.94 740.855C2341.94 755.343 2330.19 767.087 2315.7 767.087C2301.22 767.087 2289.47 755.343 2289.47 740.855C2289.47 726.367 2301.22 714.622 2315.7 714.622C2330.19 714.622 2341.94 726.367 2341.94 740.855" fill="#B6CCFC"/><path id="Fill 5" fill-rule="evenodd" clip-rule="evenodd" d="M2315.7 733.531C2311.67 733.531 2308.38 736.816 2308.38 740.854C2308.38 744.892 2311.67 748.177 2315.7 748.177C2319.74 748.177 2323.03 744.892 2323.03 740.854C2323.03 736.816 2319.74 733.531 2315.7 733.531M2315.7 751.391C2309.89 751.391 2305.17 746.664 2305.17 740.854C2305.17 735.044 2309.89 730.317 2315.7 730.317C2321.51 730.317 2326.24 735.044 2326.24 740.854C2326.24 746.664 2321.51 751.391 2315.7 751.391" fill="#21211D"/><g id="Group 9"><mask id="mask0352e69be-e07f-4663-b8ad-2e5d3602aaec" mask-type="alpha" maskUnits="userSpaceOnUse" x="2149" y="984" width="200" height="23" fill="#ffffff"><path id="Clip 8" fill-rule="evenodd" clip-rule="evenodd" d="M2150 984.203H2348.63V1006.53H2150V984.203Z" fill="#ffffff"/></mask><g mask="url(#mask0352e69be-e07f-4663-b8ad-2e5d3602aaec)"><path id="Fill 7" fill-rule="evenodd" clip-rule="evenodd" d="M2326.31 984.203H2172.32C2159.99 984.203 2150 994.199 2150 1006.53H2348.63C2348.63 994.199 2338.64 984.203 2326.31 984.203" fill="#B6CCFC"/></g></g><path id="Fill 10" fill-rule="evenodd" clip-rule="evenodd" d="M2055.63 708.495L1928.83 581.694L1960.37 550.152C1995.39 515.137 2052.16 515.137 2087.17 550.152C2122.19 585.167 2122.19 641.938 2087.17 676.953L2055.63 708.495Z" fill="#B6CCFC"/><path id="Fill 12" fill-rule="evenodd" clip-rule="evenodd" d="M2096.56 582.522L2054.8 540.763L2074.97 520.599C2081.1 514.467 2091.04 514.467 2097.17 520.599L2116.73 540.152C2122.86 546.284 2122.86 556.226 2116.73 562.358L2096.56 582.522Z" fill="#B6CCFC"/><g id="Group 16"><mask id="mask1352e69be-e07f-4663-b8ad-2e5d3602aaec" mask-type="alpha" maskUnits="userSpaceOnUse" x="1922" y="574" width="142" height="142" fill="#ffffff"><path id="Clip 15" fill-rule="evenodd" clip-rule="evenodd" d="M1922 574.867H2063.09V715.958H1922V574.867Z" fill="#ffffff"/></mask><g mask="url(#mask1352e69be-e07f-4663-b8ad-2e5d3602aaec)"><path id="Fill 14" fill-rule="evenodd" clip-rule="evenodd" d="M2055.63 708.495C2038.21 725.917 1995.84 711.794 1961.01 676.956C1926.16 642.113 1912.04 599.745 1929.46 582.324C1942.44 569.349 1969.27 573.881 1996.52 591.452C2005.83 597.456 2015.21 604.992 2024.09 613.874C2032.97 622.75 2040.5 632.123 2046.51 641.439C2064.08 668.68 2068.61 695.515 2055.63 708.495" fill="#2E4C9E"/></g></g><path id="Fill 17" fill-rule="evenodd" clip-rule="evenodd" d="M2040.01 650.191C2025.59 664.616 2002.19 664.622 1987.77 650.196C1973.34 635.766 1973.34 612.367 1987.77 597.942C1990.41 595.294 1993.37 593.125 1996.52 591.452C2005.83 597.457 2015.21 604.992 2024.09 613.875C2032.96 622.751 2040.5 632.124 2046.51 641.44C2044.83 644.586 2042.66 647.542 2040.01 650.191" fill="#EDC829"/><path id="Fill 19" fill-rule="evenodd" clip-rule="evenodd" d="M2104.22 576.473C2103.56 576.473 2102.95 576.073 2102.71 575.426C2102.62 575.178 2093.13 550.475 2062.33 533.887C2061.55 533.466 2061.26 532.491 2061.68 531.709C2062.1 530.927 2063.07 530.637 2063.86 531.056C2095.78 548.253 2105.33 573.252 2105.72 574.308C2106.03 575.14 2105.61 576.063 2104.78 576.372C2104.59 576.44 2104.4 576.473 2104.22 576.473" fill="#21211D"/><path id="Fill 21" fill-rule="evenodd" clip-rule="evenodd" d="M2348.12 1003.39H2150C2149.11 1003.39 2148.39 1002.67 2148.39 1001.78C2148.39 1000.9 2149.11 1000.18 2150 1000.18H2348.12C2349.01 1000.18 2349.73 1000.9 2349.73 1001.78C2349.73 1002.67 2349.01 1003.39 2348.12 1003.39" fill="#21211D"/></g><g id="Table"><path id="Fill 1_2" fill-rule="evenodd" clip-rule="evenodd" d="M981.015 1584.58C980.31 1584.58 979.663 1584.12 979.467 1583.4L835.994 1063.9C835.758 1063.04 836.26 1062.16 837.116 1061.92C837.971 1061.68 838.856 1062.19 839.093 1063.04L982.565 1582.55C982.802 1583.4 982.299 1584.29 981.444 1584.53C981.301 1584.56 981.157 1584.58 981.015 1584.58" fill="#21211D"/><path id="Fill 3_2" fill-rule="evenodd" clip-rule="evenodd" d="M830.759 1584.58C830.617 1584.58 830.473 1584.57 830.33 1584.53C829.475 1584.29 828.972 1583.4 829.209 1582.55L972.681 1063.04C972.918 1062.19 973.804 1061.68 974.658 1061.92C975.514 1062.16 976.016 1063.04 975.78 1063.9L832.307 1583.4C832.111 1584.12 831.464 1584.58 830.759 1584.58" fill="#21211D"/><path id="Fill 5_2" fill-rule="evenodd" clip-rule="evenodd" d="M2449.84 1584.58C2449.14 1584.58 2448.49 1584.12 2448.29 1583.4L2304.82 1063.9C2304.58 1063.04 2305.09 1062.16 2305.94 1061.92C2306.79 1061.68 2307.68 1062.19 2307.92 1063.04L2451.39 1582.55C2451.63 1583.4 2451.13 1584.29 2450.27 1584.53C2450.13 1584.56 2449.98 1584.58 2449.84 1584.58" fill="#21211D"/><path id="Fill 7_2" fill-rule="evenodd" clip-rule="evenodd" d="M2299.59 1584.58C2299.45 1584.58 2299.3 1584.57 2299.16 1584.53C2298.3 1584.29 2297.8 1583.4 2298.04 1582.55L2441.51 1063.04C2441.75 1062.19 2442.63 1061.68 2443.49 1061.92C2444.34 1062.16 2444.84 1063.04 2444.61 1063.9L2301.14 1583.4C2300.94 1584.12 2300.29 1584.58 2299.59 1584.58" fill="#21211D"/><mask id="mask2352e69be-e07f-4663-b8ad-2e5d3602aaec" mask-type="alpha" maskUnits="userSpaceOnUse" x="796" y="1006" width="1680" height="579" fill="#ffffff"><path id="Clip 10" fill-rule="evenodd" clip-rule="evenodd" d="M796 1584.58H2475.75V1006H796V1584.58Z" fill="#ffffff"/></mask><g mask="url(#mask2352e69be-e07f-4663-b8ad-2e5d3602aaec)"><path id="Fill 9" fill-rule="evenodd" clip-rule="evenodd" d="M796.002 1063.47H2475.76V1006H796.002V1063.47Z" fill="#ED7AD8"/><path id="Fill 11" fill-rule="evenodd" clip-rule="evenodd" d="M2471.67 1027.73H799.406C798.302 1027.73 797.406 1026.83 797.406 1025.73C797.406 1024.62 798.302 1023.73 799.406 1023.73H2471.67C2472.77 1023.73 2473.67 1024.62 2473.67 1025.73C2473.67 1026.83 2472.77 1027.73 2471.67 1027.73" fill="white"/></g></g></g></svg>