<svg viewBox="-30 -30 2370 1679.9999999999998" fill="none" xmlns="http://www.w3.org/2000/svg" xmlns:xlink="http://www.w3.org/1999/xlink" overflow="visible" width="2370px" height="1679.9999999999998px"><g id="Master/Scenes/Small Talk"><g id="Master/Backgrounds/User Interface" transform="scale(1 1)"><g id="Master/Backgrounds/User Interface"><g id="Big Plants" transform="matrix(-1 0 0 1 1064 49) scale(1 1)"><g id="Big Plants/1"><g id="Assets 9"><path id="Fill 1" fill-rule="evenodd" clip-rule="evenodd" d="M170.146 1360C170.146 1360 -36.4123 1236.21 5.65104 1012.23C30.7592 878.521 115.925 885.075 165.218 783.85C196.677 719.246 148.878 545.865 246.991 431.808C338.645 325.258 488.511 334.916 536.783 311.771C601.478 280.75 626.117 215.582 644.609 162.06C713.567 -37.4858 872.886 -32.097 898.819 67.179C930.086 186.868 900.15 259.004 753.048 376.302C642.517 464.441 804.348 563.327 708.082 723.805C654.29 813.477 509.646 860.087 580.301 976.035C677.053 1134.81 658.88 1290.9 609.553 1360H170.146Z" fill="#D3E2F2"/><path id="Fill 10" fill-rule="evenodd" clip-rule="evenodd" d="M772.813 169.151C771.247 167.603 768.722 167.617 767.173 169.191C766.654 169.716 714.488 222.933 646.564 314.949C583.902 399.847 494.563 536.155 424.821 703.398C362.868 851.969 294.235 1060.83 313.216 1360H321.209C302.22 1062.21 370.528 854.329 432.181 706.476C565.022 387.914 770.788 176.894 772.852 174.799C774.398 173.231 774.38 170.698 772.813 169.151" fill="white"/><path id="Fill 4" fill-rule="evenodd" clip-rule="evenodd" d="M909.457 628C896.972 628 884.26 638.327 884.26 650.841C884.26 652.922 884.564 654.926 885.088 656.842C779.394 708.805 685.128 776.102 604.639 857.123C536.159 926.056 477.442 1005.01 430.121 1091.79C388.019 1169 362.916 1238.25 349.272 1282.75C336.51 1324.37 331.103 1352.75 329.818 1360H337.927C339.537 1351.2 344.946 1324.09 356.9 1285.1C370.437 1240.96 395.342 1172.25 437.123 1095.63C484.083 1009.51 542.348 931.166 610.295 862.769C690.142 782.394 783.664 715.624 888.534 664.058C892.637 669.765 899.309 673.495 906.863 673.495C919.348 673.495 929.818 665.528 929.818 653.016C929.818 640.505 921.94 628 909.457 628" fill="white"/><path id="Fill 7" fill-rule="evenodd" clip-rule="evenodd" d="M1042.67 885.906C1030.16 885.906 1017.42 896.234 1017.42 908.748V908.754C978.675 915.698 913.295 930.202 794.467 973.952C636.303 1032.19 526.979 1133.86 463.121 1208.89C393.917 1290.2 361.629 1358.77 361.309 1359.46C361.227 1359.63 361.177 1359.82 361.123 1360H369.947C376.705 1346.41 408.681 1285.16 469.389 1213.87C532.609 1139.64 640.801 1039.06 797.233 981.46C915.455 937.934 980.391 923.524 1018.85 916.624C1022.05 925.248 1030.33 931.404 1040.07 931.404C1052.59 931.404 1063.08 923.438 1063.08 910.924C1063.08 898.41 1055.19 885.906 1042.67 885.906" fill="white"/></g></g></g><g id="Object" transform="translate(1684.59 52.4185) scale(1 1)"><g id="Object/Chat"><g id="bubble"><path id="Stroke 1" fill-rule="evenodd" clip-rule="evenodd" d="M280.5 333.193C280.5 286.606 324.915 249.061 379.479 249.061C434.043 249.061 478.458 286.606 478.458 333.193C478.458 361.426 461.987 387.202 435.188 402.731L435.104 402.778L435.131 403.809C435.56 418.474 438.289 428.417 443.16 430.843L443.504 431.008C446.144 432.382 445.352 436.441 442.308 436.653C429.514 437.542 419.125 434.693 410.992 428.934C405.763 425.23 401.871 420.646 399.111 415.75L399.056 415.653L398.72 415.713C392.804 416.708 386.81 417.249 380.773 417.316L379.479 417.324C324.915 417.324 280.5 379.78 280.5 333.193ZM472.458 333.193C472.458 290.164 430.932 255.061 379.479 255.061C328.026 255.061 286.5 290.164 286.5 333.193C286.5 376.222 328.026 411.324 379.479 411.324C386.436 411.324 393.338 410.66 400.127 409.365C401.454 409.112 402.787 409.777 403.382 410.99C405.761 415.835 409.376 420.437 414.46 424.037C419.869 427.868 426.489 430.215 434.498 430.713L434.704 430.725L434.478 430.352C430.824 424.199 429.248 414.349 429.085 401.672L429.078 401.074C429.068 399.974 429.66 398.956 430.622 398.423C456.576 384.017 472.458 359.707 472.458 333.193Z" fill="#141414"/><path id="Fill 3" fill-rule="evenodd" clip-rule="evenodd" d="M349.684 335.305C349.684 340.983 345.082 345.585 339.405 345.585C333.727 345.585 329.125 340.983 329.125 335.305C329.125 329.628 333.727 325.026 339.405 325.026C345.082 325.026 349.684 329.628 349.684 335.305" fill="#141414"/><path id="Fill 5" fill-rule="evenodd" clip-rule="evenodd" d="M390.024 335.305C390.024 340.983 385.422 345.585 379.744 345.585C374.067 345.585 369.465 340.983 369.465 335.305C369.465 329.628 374.067 325.026 379.744 325.026C385.422 325.026 390.024 329.628 390.024 335.305" fill="#141414"/><path id="Fill 7" fill-rule="evenodd" clip-rule="evenodd" d="M430.36 335.305C430.36 340.983 425.758 345.585 420.08 345.585C414.403 345.585 409.801 340.983 409.801 335.305C409.801 329.628 414.403 325.026 420.08 325.026C425.758 325.026 430.36 329.628 430.36 335.305" fill="#141414"/><path id="Fill 9" fill-rule="evenodd" clip-rule="evenodd" d="M137 302.416C137 257.608 179.97 221.284 232.979 221.284C285.987 221.284 328.958 257.608 328.958 302.416C328.958 347.224 285.987 383.546 232.979 383.546C225.687 383.546 218.595 382.837 211.769 381.535C208.101 389.005 197.141 404.743 170.359 402.883C178.19 399.32 180.25 384.26 180.38 370.268C154.261 355.769 137 330.803 137 302.416" fill="#FF4B33"/><path id="Fill 11" fill-rule="evenodd" clip-rule="evenodd" d="M202.051 306.179C202.051 311.857 197.449 316.459 191.772 316.459C186.094 316.459 181.492 311.857 181.492 306.179C181.492 300.502 186.094 295.9 191.772 295.9C197.449 295.9 202.051 300.502 202.051 306.179" fill="white"/><path id="Fill 13" fill-rule="evenodd" clip-rule="evenodd" d="M242.387 306.179C242.387 311.857 237.785 316.459 232.108 316.459C226.43 316.459 221.828 311.857 221.828 306.179C221.828 300.502 226.43 295.9 232.108 295.9C237.785 295.9 242.387 300.502 242.387 306.179" fill="white"/><path id="Fill 15" fill-rule="evenodd" clip-rule="evenodd" d="M282.727 306.179C282.727 311.857 278.125 316.459 272.447 316.459C266.77 316.459 262.168 311.857 262.168 306.179C262.168 300.502 266.77 295.9 272.447 295.9C278.125 295.9 282.727 300.502 282.727 306.179" fill="white"/><path id="Stroke 17" d="M460.89 215.695C461.473 214.144 463.203 213.359 464.754 213.942C466.25 214.504 467.033 216.132 466.564 217.639L466.507 217.806L456.688 243.937C456.105 245.488 454.375 246.273 452.824 245.69C451.329 245.128 450.546 243.5 451.014 241.993L451.071 241.827L460.89 215.695Z" fill="#141414"/><path id="Stroke 19" d="M492.359 238.905C493.64 237.854 495.531 238.041 496.581 239.322C497.592 240.553 497.458 242.349 496.307 243.419L496.164 243.544L475.106 260.816C473.825 261.867 471.934 261.68 470.884 260.399C469.873 259.167 470.007 257.372 471.158 256.302L471.301 256.177L492.359 238.905Z" fill="#141414"/><path id="Stroke 21" d="M508.282 274.056C509.922 273.822 511.442 274.962 511.676 276.602C511.902 278.183 510.85 279.653 509.304 279.966L509.13 279.996L484.932 283.45C483.292 283.684 481.772 282.544 481.538 280.904C481.313 279.323 482.364 277.853 483.91 277.54L484.084 277.51L508.282 274.056Z" fill="#141414"/></g></g></g><g id="Object" transform="translate(148 0) scale(1 1)"><g id="Object/Chat"><g id="bubble"><path id="Stroke 1" fill-rule="evenodd" clip-rule="evenodd" d="M280.5 333.193C280.5 286.606 324.915 249.061 379.479 249.061C434.043 249.061 478.458 286.606 478.458 333.193C478.458 361.426 461.987 387.202 435.188 402.731L435.104 402.778L435.131 403.809C435.56 418.474 438.289 428.417 443.16 430.843L443.504 431.008C446.144 432.382 445.352 436.441 442.308 436.653C429.514 437.542 419.125 434.693 410.992 428.934C405.763 425.23 401.871 420.646 399.111 415.75L399.056 415.653L398.72 415.713C392.804 416.708 386.81 417.249 380.773 417.316L379.479 417.324C324.915 417.324 280.5 379.78 280.5 333.193ZM472.458 333.193C472.458 290.164 430.932 255.061 379.479 255.061C328.026 255.061 286.5 290.164 286.5 333.193C286.5 376.222 328.026 411.324 379.479 411.324C386.436 411.324 393.338 410.66 400.127 409.365C401.454 409.112 402.787 409.777 403.382 410.99C405.761 415.835 409.376 420.437 414.46 424.037C419.869 427.868 426.489 430.215 434.498 430.713L434.704 430.725L434.478 430.352C430.824 424.199 429.248 414.349 429.085 401.672L429.078 401.074C429.068 399.974 429.66 398.956 430.622 398.423C456.576 384.017 472.458 359.707 472.458 333.193Z" fill="#141414"/><path id="Fill 3" fill-rule="evenodd" clip-rule="evenodd" d="M349.684 335.305C349.684 340.983 345.082 345.585 339.405 345.585C333.727 345.585 329.125 340.983 329.125 335.305C329.125 329.628 333.727 325.026 339.405 325.026C345.082 325.026 349.684 329.628 349.684 335.305" fill="#141414"/><path id="Fill 5" fill-rule="evenodd" clip-rule="evenodd" d="M390.024 335.305C390.024 340.983 385.422 345.585 379.744 345.585C374.067 345.585 369.465 340.983 369.465 335.305C369.465 329.628 374.067 325.026 379.744 325.026C385.422 325.026 390.024 329.628 390.024 335.305" fill="#141414"/><path id="Fill 7" fill-rule="evenodd" clip-rule="evenodd" d="M430.36 335.305C430.36 340.983 425.758 345.585 420.08 345.585C414.403 345.585 409.801 340.983 409.801 335.305C409.801 329.628 414.403 325.026 420.08 325.026C425.758 325.026 430.36 329.628 430.36 335.305" fill="#141414"/><path id="Fill 9" fill-rule="evenodd" clip-rule="evenodd" d="M137 302.416C137 257.608 179.97 221.284 232.979 221.284C285.987 221.284 328.958 257.608 328.958 302.416C328.958 347.224 285.987 383.546 232.979 383.546C225.687 383.546 218.595 382.837 211.769 381.535C208.101 389.005 197.141 404.743 170.359 402.883C178.19 399.32 180.25 384.26 180.38 370.268C154.261 355.769 137 330.803 137 302.416" fill="#FF4B33"/><path id="Fill 11" fill-rule="evenodd" clip-rule="evenodd" d="M202.051 306.179C202.051 311.857 197.449 316.459 191.772 316.459C186.094 316.459 181.492 311.857 181.492 306.179C181.492 300.502 186.094 295.9 191.772 295.9C197.449 295.9 202.051 300.502 202.051 306.179" fill="white"/><path id="Fill 13" fill-rule="evenodd" clip-rule="evenodd" d="M242.387 306.179C242.387 311.857 237.785 316.459 232.108 316.459C226.43 316.459 221.828 311.857 221.828 306.179C221.828 300.502 226.43 295.9 232.108 295.9C237.785 295.9 242.387 300.502 242.387 306.179" fill="white"/><path id="Fill 15" fill-rule="evenodd" clip-rule="evenodd" d="M282.727 306.179C282.727 311.857 278.125 316.459 272.447 316.459C266.77 316.459 262.168 311.857 262.168 306.179C262.168 300.502 266.77 295.9 272.447 295.9C278.125 295.9 282.727 300.502 282.727 306.179" fill="white"/><path id="Stroke 17" d="M460.89 215.695C461.473 214.144 463.203 213.359 464.754 213.942C466.25 214.504 467.033 216.132 466.564 217.639L466.507 217.806L456.688 243.937C456.105 245.488 454.375 246.273 452.824 245.69C451.329 245.128 450.546 243.5 451.014 241.993L451.071 241.827L460.89 215.695Z" fill="#141414"/><path id="Stroke 19" d="M492.359 238.905C493.64 237.854 495.531 238.041 496.581 239.322C497.592 240.553 497.458 242.349 496.307 243.419L496.164 243.544L475.106 260.816C473.825 261.867 471.934 261.68 470.884 260.399C469.873 259.167 470.007 257.372 471.158 256.302L471.301 256.177L492.359 238.905Z" fill="#141414"/><path id="Stroke 21" d="M508.282 274.056C509.922 273.822 511.442 274.962 511.676 276.602C511.902 278.183 510.85 279.653 509.304 279.966L509.13 279.996L484.932 283.45C483.292 283.684 481.772 282.544 481.538 280.904C481.313 279.323 482.364 277.853 483.91 277.54L484.084 277.51L508.282 274.056Z" fill="#141414"/></g></g></g><g id="Plant" transform="translate(1570 555) scale(1 1)"><g id="Plant/Plant 6"><g id="Plant"><path id="Fill 1" fill-rule="evenodd" clip-rule="evenodd" d="M226.829 426.385C178.48 432.74 140.157 520.068 304.291 608.259C309.19 483.322 286.165 418.584 226.829 426.385" fill="#FFC81A"/><path id="Fill 3" fill-rule="evenodd" clip-rule="evenodd" d="M152.789 595.688C116.696 611.566 139.253 688.867 266.977 722.927C270.938 621.904 196.305 576.545 152.789 595.688" fill="#FFC81A"/><path id="Fill 5" fill-rule="evenodd" clip-rule="evenodd" d="M453.604 656.688C465.962 619.244 403.605 571.099 292.816 643.207C365.227 713.761 438.704 701.833 453.604 656.688" fill="#FFC81A"/><path id="Fill 7" fill-rule="evenodd" clip-rule="evenodd" d="M499.721 376.808C473.27 332.932 373.03 353.652 350.336 523.898C481.178 512.236 531.612 429.708 499.721 376.808" fill="#FFC81A"/><path id="Fill 10" fill-rule="evenodd" clip-rule="evenodd" d="M252.792 853.29H252.812C253.916 853.279 254.803 852.375 254.792 851.27C254.786 850.642 254.421 787.41 274.359 706.204C286.061 658.545 302.363 614.109 322.813 574.132C348.355 524.203 380.476 481.126 418.285 446.097C419.096 445.347 419.144 444.081 418.393 443.27C417.642 442.461 416.375 442.412 415.566 443.163C377.397 478.525 344.982 521.997 319.222 572.37C298.629 612.639 282.219 657.382 270.448 705.359C250.409 787.032 250.786 850.676 250.792 851.31C250.803 852.407 251.696 853.29 252.792 853.29" fill="#141414"/></g></g></g><g id="Screen" transform="translate(557 548.5) scale(1 1)"><g id="Screen/Stats"><g id="Window"><path id="Window_2" d="M1263.32 888.592H23.428C10.766 888.592 0.5 878.326 0.5 865.664V23.428C0.5 10.765 10.766 0.499023 23.428 0.499023H1263.32C1275.98 0.499023 1286.25 10.765 1286.25 23.428V865.664C1286.25 878.326 1275.98 888.592 1263.32 888.592Z" fill="white"/><path id="window" fill-rule="evenodd" clip-rule="evenodd" d="M23.428 -1.50098H1263.32C1277.09 -1.50098 1288.25 9.66029 1288.25 23.428V865.664C1288.25 879.431 1277.09 890.592 1263.32 890.592H23.428C9.66143 890.592 -1.5 879.431 -1.5 865.664V23.428C-1.5 9.66062 9.66126 -1.50098 23.428 -1.50098ZM1263.32 2.49902H23.428C11.8704 2.49902 2.5 11.8697 2.5 23.428V865.664C2.5 877.221 11.8706 886.592 23.428 886.592H1263.32C1274.88 886.592 1284.25 877.222 1284.25 865.664V23.428C1284.25 11.8694 1274.88 2.49902 1263.32 2.49902Z" fill="#141414"/><path id="Info" fill-rule="evenodd" clip-rule="evenodd" d="M554.121 128.536V91.2581H84.1211V128.536H554.121ZM498.327 186.525V223.804H84.1211V186.525H498.327ZM368.976 304.574V267.296H84.1211V304.574H368.976ZM412.121 353.697V390.975H84.1211V353.697H412.121ZM291.121 436.171V473.449H84.1211V436.171H291.121Z" fill="#D3E2F2"/><path id="$" d="M539.723 500.175V483.303C551.072 481.276 559.812 477.096 565.943 470.763C572.073 464.43 575.139 457.007 575.139 448.495C575.139 440.794 573.087 434.714 568.983 430.255C564.879 425.796 560.04 422.579 554.467 420.603C548.893 418.627 542.053 416.879 533.947 415.359C527.664 414.143 523.155 413.003 520.419 411.939C517.683 410.875 516.315 409.279 516.315 407.151C516.315 402.692 520.925 400.463 530.147 400.463C539.469 400.463 549.349 403.098 559.787 408.367V408.367L570.579 382.375C562.168 377.612 551.883 374.674 539.723 373.559V373.559V357.295H518.291V373.863C506.232 375.586 496.985 379.639 490.551 386.023C484.116 392.407 480.899 400.058 480.899 408.975C480.899 416.676 482.925 422.782 486.979 427.291C491.032 431.8 495.795 435.043 501.267 437.019C506.739 438.995 513.579 440.844 521.787 442.567C528.171 443.884 532.756 445.1 535.543 446.215C538.329 447.33 539.723 449.002 539.723 451.231C539.723 453.156 538.659 454.6 536.531 455.563C534.403 456.526 530.856 457.007 525.891 457.007C520.115 457.007 514.085 456.12 507.803 454.347C501.52 452.574 495.845 450.218 490.779 447.279V447.279L479.227 473.423C483.787 476.26 489.537 478.642 496.479 480.567C503.42 482.492 510.691 483.658 518.291 484.063V484.063V500.175H539.723Z" fill="#FFC81A"/><g id="Assets 101"><path id="Bg (Stroke)" fill-rule="evenodd" clip-rule="evenodd" d="M1110.19 80.5532L1112.16 80.9005C1138.27 85.5042 1161.94 99.1693 1178.98 119.48C1196.02 139.789 1205.37 165.471 1205.37 191.984V193.984H1090.19L1110.19 80.5532ZM1113.43 85.2051L1094.96 189.984H1201.35C1200.9 165.122 1191.93 141.128 1175.92 122.051C1159.91 102.972 1137.84 89.9723 1113.43 85.2051Z" fill="#D3E2F2"/><path id="Stork (Stroke)" fill-rule="evenodd" clip-rule="evenodd" d="M1070.73 99.8174C1011.05 99.8174 961.93 148.938 961.93 208.614C961.93 268.291 1011.05 317.411 1070.73 317.411C1129.74 317.411 1178.42 269.384 1179.51 210.614H1068.34L1087.65 101.141C1082.05 100.26 1076.39 99.8174 1070.73 99.8174ZM957.93 208.614C957.93 146.729 1008.84 95.8174 1070.73 95.8174C1077.29 95.8174 1083.85 96.3905 1090.31 97.5308L1092.28 97.8781L1073.11 206.614H1183.52V208.614C1183.52 270.5 1132.61 321.411 1070.73 321.411C1008.84 321.411 957.93 270.5 957.93 208.614Z" fill="#D3E2F2"/><path id="BG (Stroke)" fill-rule="evenodd" clip-rule="evenodd" d="M884.912 84.0386C858.776 84.0386 837.59 105.225 837.59 131.36C837.59 157.494 858.776 178.681 884.912 178.681C911.046 178.681 932.233 157.494 932.233 131.36C932.233 105.225 911.046 84.0386 884.912 84.0386ZM833.59 131.36C833.59 103.016 856.567 80.0386 884.912 80.0386C913.255 80.0386 936.233 103.016 936.233 131.36C936.233 159.703 913.255 182.681 884.912 182.681C856.567 182.681 833.59 159.703 833.59 131.36Z" fill="#D3E2F2"/><path id="Stork" d="M1090.19 189.667L1109.43 80.5532C1135.08 85.0752 1158.33 98.4982 1175.07 118.448C1191.81 138.397 1200.99 163.624 1200.99 189.667H1090.19Z" fill="#EDF3F9"/><path id="Stoke" d="M1068.73 206.614H1179.52C1179.52 267.395 1129.51 317.411 1068.73 317.411C1007.95 317.411 957.93 267.395 957.93 206.614C957.93 145.833 1007.95 95.8174 1068.73 95.8174C1075.18 95.8174 1081.61 96.3804 1087.97 97.5004L1068.73 206.614Z" fill="#EDF3F9"/><path id="Stroke" d="M932.233 129.36C932.233 156.599 910.151 178.681 882.912 178.681C855.672 178.681 833.59 156.599 833.59 129.36C833.59 102.121 855.672 80.0386 882.912 80.0386C910.151 80.0386 932.233 102.121 932.233 129.36Z" fill="#EDF3F9"/></g><path id="Graph" fill-rule="evenodd" clip-rule="evenodd" d="M716.782 813.781V390.011H661.941V813.781H716.782ZM918.007 813.781V599.134H863.167V813.781H918.007ZM823.312 508.177V813.781H768.472V508.177H823.312ZM1026.23 813.781V663.145H971.388V813.781H1026.23ZM1132.83 698.156V813.781H1077.99V698.156H1132.83ZM1223.25 813.781V671.2H1168.41V813.781H1223.25Z" fill="#D3E2F2"/><path id="Up" d="M1094.88 458.233L920.508 551.848L713.159 234.624L734.278 222.432L666.461 178.246L670.821 259.069L688.593 248.808L911.011 589.09L1085.42 495.457L1197.2 665.867L1220.88 650.323L1094.88 458.233Z" fill="#02BAD3"/></g></g></g></g></g><g id="Master/Character/Standing" transform="matrix(-1 0 0 1 2103 338) scale(1 1)"><g id="Master/Character/Standing"><g id="Lower Body" transform="translate(0 569) scale(1 1)"><g id="Lower Body/Jeans"><g id="shoe 2"><path id="SKIN" fill-rule="evenodd" clip-rule="evenodd" d="M662.405 631.541L670.484 686.721L749.846 694.919L737.541 638.068L662.405 631.541Z" fill="white"/><path id="path 6" fill-rule="evenodd" clip-rule="evenodd" d="M750.107 696.919L670.087 689.063C669.115 688.967 668.333 688.221 668.191 687.254L660.023 631.433C659.853 630.271 660.658 629.191 661.82 629.021C662.984 628.858 664.061 629.657 664.232 630.818L672.159 684.992L747.598 692.4L735.561 638.621C735.304 637.475 736.026 636.338 737.171 636.081C738.322 635.824 739.456 636.547 739.711 637.692L752.39 694.338C752.54 695.004 752.36 695.701 751.908 696.212C751.502 696.67 750.921 696.93 750.315 696.93C750.246 696.93 750.176 696.926 750.107 696.919Z" fill="#141414"/><path id="path 23" fill-rule="evenodd" clip-rule="evenodd" d="M666.891 680.25C667.149 679.233 668.149 678.59 669.182 678.774C670.165 678.951 671.41 679.19 672.875 679.473C681.857 681.201 700.546 684.798 718.257 684.812H718.302C728.736 684.812 737.912 681.958 744.14 676.773C744.635 676.361 745.297 676.215 745.923 676.375C776.321 684.289 798.284 690.007 814.56 700.862C817.42 702.771 827.737 711.099 825.953 716.989C825.127 719.713 822.189 721.094 817.219 721.094C799.075 721.094 759.984 721.195 725.495 721.285C697.588 721.358 673.488 721.421 664.414 721.421C663.455 721.421 662.59 720.986 661.977 720.197C658.404 715.601 664.223 690.729 666.891 680.25" fill="#02bad3"/><path id="Fill 47" fill-rule="evenodd" clip-rule="evenodd" d="M664.78 730.227H821.616C824.222 730.227 826.336 728.115 826.336 725.508V723.949C826.336 721.342 824.222 719.229 821.616 719.229H664.78C662.174 719.229 660.06 721.342 660.06 723.949V725.508C660.06 728.115 662.174 730.227 664.78 730.227" fill="#141414"/><path id="path 25" fill-rule="evenodd" clip-rule="evenodd" d="M777.074 695.217C777.869 695.217 778.631 694.77 778.995 694.004C782.332 686.996 788.743 688.711 789.464 688.932C790.582 689.271 791.771 688.646 792.119 687.53C792.466 686.412 791.851 685.227 790.737 684.873C787.101 683.719 779.163 683.761 775.155 692.176C774.65 693.237 775.1 694.505 776.161 695.01C776.456 695.151 776.767 695.217 777.074 695.217" fill="#141414"/><path id="path 26" fill-rule="evenodd" clip-rule="evenodd" d="M758.293 690.095C759.088 690.095 759.851 689.648 760.215 688.882C763.552 681.874 769.963 683.589 770.683 683.81C771.802 684.15 772.991 683.524 773.338 682.408C773.685 681.29 773.07 680.105 771.956 679.751C768.316 678.598 760.38 678.641 756.375 687.054C755.87 688.115 756.32 689.383 757.381 689.888C757.676 690.029 757.986 690.095 758.293 690.095" fill="#141414"/></g><g id="shoe 1"><path id="SKIN_2" fill-rule="evenodd" clip-rule="evenodd" d="M519.973 631.395L517.596 687.152L447.699 693.144L448.766 637.159L519.973 631.395Z" fill="white"/><path id="path 1" fill-rule="evenodd" clip-rule="evenodd" d="M447.536 695.259C446.998 695.259 446.478 695.055 446.082 694.684C445.643 694.273 445.399 693.695 445.41 693.093L446.429 637.094C446.451 635.92 447.454 634.978 448.594 635.007C449.768 635.029 450.703 635.997 450.682 637.172L449.705 690.817L515.548 685.307L517.896 631.035C517.946 629.863 518.936 628.948 520.112 629.002C521.286 629.053 522.196 630.046 522.145 631.219L519.717 687.362C519.671 688.431 518.836 689.3 517.769 689.389L447.713 695.251C447.654 695.256 447.595 695.259 447.536 695.259" fill="#141414"/><path id="path 2" fill-rule="evenodd" clip-rule="evenodd" d="M522.445 680.573C522.187 679.556 521.187 678.913 520.154 679.097C519.17 679.274 517.926 679.513 516.46 679.796C507.479 681.524 488.79 685.121 471.079 685.135H471.033C460.6 685.135 451.424 682.281 445.195 677.096C444.701 676.684 444.038 676.538 443.412 676.698C413.015 684.612 391.052 690.33 374.776 701.185C371.915 703.094 361.599 711.422 363.383 717.312C364.209 720.036 367.147 721.417 372.116 721.417C390.261 721.417 429.352 721.518 463.841 721.608C491.747 721.681 515.848 721.744 524.922 721.744C525.88 721.744 526.746 721.309 527.359 720.52C530.932 715.924 525.113 691.052 522.445 680.573" fill="#02bad3"/><path id="path 3" fill-rule="evenodd" clip-rule="evenodd" d="M524.556 730.55H367.72C365.113 730.55 363 728.438 363 725.831V724.272C363 721.665 365.113 719.552 367.72 719.552H524.556C527.162 719.552 529.275 721.665 529.275 724.272V725.831C529.275 728.438 527.162 730.55 524.556 730.55" fill="#141414"/><path id="path 4" fill-rule="evenodd" clip-rule="evenodd" d="M412.261 695.541C411.466 695.541 410.704 695.094 410.34 694.328C407.003 687.32 400.592 689.035 399.871 689.256C398.753 689.595 397.563 688.97 397.216 687.854C396.869 686.736 397.483 685.551 398.598 685.197C402.234 684.043 410.172 684.085 414.179 692.5C414.684 693.561 414.234 694.829 413.174 695.334C412.879 695.475 412.568 695.541 412.261 695.541" fill="#141414"/><path id="path 5" fill-rule="evenodd" clip-rule="evenodd" d="M431.042 690.418C430.247 690.418 429.485 689.971 429.121 689.205C425.783 682.197 419.372 683.912 418.653 684.133C417.534 684.473 416.344 683.847 415.997 682.731C415.65 681.613 416.265 680.428 417.379 680.074C421.019 678.921 428.955 678.964 432.96 687.377C433.465 688.438 433.015 689.706 431.955 690.211C431.66 690.352 431.349 690.418 431.042 690.418" fill="#141414"/></g><g id="pant"><path id="path 10" fill-rule="evenodd" clip-rule="evenodd" d="M427.273 2.94933L375 662.091C426.539 666.307 481.337 665.697 538.159 662.091C538.159 662.091 547.164 111.164 552.11 110.605C561.369 109.561 606.852 662.091 606.852 662.091C658.259 670.419 708.68 667.882 758.805 662.091C758.805 662.091 720.659 173.983 655.364 0.486328C552.164 5.07233 427.273 2.94933 427.273 2.94933" fill="#0B379B"/><path id="path 21" fill-rule="evenodd" clip-rule="evenodd" d="M484.299 24.4327C483.072 23.7977 481.563 24.2757 480.929 25.5017C464.357 57.4647 428.583 54.4417 427.025 54.2907C425.641 54.1567 424.427 55.1617 424.292 56.5357C424.157 57.9097 425.162 59.1327 426.536 59.2677C426.606 59.2747 427.845 59.3837 429.944 59.3837C440.092 59.3837 470.319 56.8287 485.367 27.8027C486.003 26.5777 485.525 25.0687 484.299 24.4327" fill="white"/><path id="path 22" fill-rule="evenodd" clip-rule="evenodd" d="M667.829 49.5812C666.357 49.7272 631.643 52.7752 615.567 20.7922C614.949 19.5652 613.486 19.0882 612.3 19.7232C611.111 20.3582 610.647 21.8672 611.263 23.0932C625.854 52.1222 655.159 54.6742 664.997 54.6742C667.03 54.6742 668.232 54.5642 668.3 54.5582C669.631 54.4232 670.603 53.2012 670.475 51.8282C670.345 50.4552 669.157 49.4502 667.829 49.5812" fill="white"/></g></g></g><g id="Upper Body" transform="translate(272 187) scale(1 1)"><g id="Upper Body/On Macbook"><g id="T Shirt"><path id="Fill 1" fill-rule="evenodd" clip-rule="evenodd" d="M162.181 260.449C162.185 260.785 162.194 261.107 162.197 261.446C162.255 267.151 161.899 276.275 161.279 287.232C152.253 287.175 143.887 286.552 139.712 284.749C144.908 277.475 153.459 268.668 162.181 260.449ZM406.789 393.85C405.649 299.96 409.623 199.196 371.281 137.717C328.842 69.6684 195.102 81.4044 147.841 121.884C124.329 138.22 88.4238 169.329 57.3728 222.144C34.3858 261.242 20.2348 337.082 55.1588 361.551C85.9818 376.881 126.447 379.568 157.123 377.932C156.527 384.04 155.966 389.454 155.47 393.85H406.789Z" fill="#02bad3"/><path id="Fill 3" fill-rule="evenodd" clip-rule="evenodd" d="M143.196 283.636C147.556 278.026 153.626 271.656 160.056 265.436C159.976 270.556 159.696 277.296 159.276 285.066C152.856 284.966 147.076 284.556 143.196 283.636ZM158.846 391.726C159.226 388.276 159.636 384.306 160.066 379.956C187.156 378.266 203.046 373.406 204.736 372.986C205.756 372.726 206.436 371.766 206.336 370.716L197.996 285.406C197.876 284.236 196.856 283.376 195.676 283.496C188.936 284.126 175.646 285.056 163.536 285.096C164.076 275.106 164.376 266.786 164.326 261.426V261.366C178.816 247.776 193.616 235.896 193.856 235.706C194.776 234.976 194.916 233.636 194.186 232.716C193.456 231.796 192.116 231.646 191.196 232.386C190.286 233.116 177.566 243.316 164.226 255.616C162.826 256.896 161.426 258.206 160.036 259.526C151.946 267.206 144.046 275.356 138.846 282.346C127.986 279.496 119.496 273.806 119.396 273.746C118.426 273.086 117.106 273.346 116.446 274.316C115.786 275.286 116.046 276.606 117.016 277.266C117.436 277.556 126.866 283.896 139.066 286.786C143.186 288.486 150.746 289.176 159.046 289.336C160.446 289.356 161.866 289.366 163.296 289.366C175.796 289.346 188.906 288.346 193.966 287.916L201.916 369.296C190.756 371.956 178.706 374.556 160.486 375.636C159.066 375.716 157.636 375.796 156.186 375.856C125.416 377.246 85.2758 374.106 56.2458 359.716C36.1758 345.526 35.3658 314.656 36.6658 297.496C38.6058 272.036 47.2458 243.576 59.2058 223.226C83.7158 181.536 111.446 153.386 133.526 135.446C138.946 131.026 144.026 127.236 148.636 124.016C155.596 117.936 164.646 112.456 175.146 107.796C199.256 97.0758 231.036 90.6658 262.836 91.2458C312.306 92.1558 351.176 109.506 369.476 138.846C403.356 193.166 403.896 279.626 404.416 363.246C404.466 372.606 404.526 382.256 404.636 391.726H158.846ZM373.087 136.596C354.016 106.006 313.856 87.9358 262.916 86.9958C236.766 86.5158 209.576 90.6958 186.366 98.7658C170.116 104.416 156.556 111.736 146.746 120.036C142.606 122.926 138.066 126.266 133.226 130.116C112.506 146.566 82.2058 175.706 55.5358 221.066C31.2058 262.466 18.4758 338.446 53.9358 363.296C54.0258 363.356 54.1158 363.406 54.2158 363.456C80.7758 376.666 111.346 380.526 137.976 380.526C142.716 380.526 151.326 380.406 155.766 380.186C155.266 385.286 154.786 389.826 154.356 393.616C154.286 394.216 154.476 394.816 154.886 395.266C155.286 395.716 155.866 395.976 156.466 395.976H406.786C407.356 395.976 407.906 395.746 408.306 395.346C408.696 394.936 408.926 394.396 408.916 393.826C408.796 383.686 408.726 373.276 408.666 363.216C408.146 279.016 407.606 191.936 373.087 136.596Z" fill="#141414"/></g><path id="Tie" fill-rule="evenodd" clip-rule="evenodd" d="M264.824 134.109L277.057 153.139L262.105 263.92L296.767 306.737L325.312 267.998L289.291 153.139L297.447 133.429L276.418 121.791L264.824 134.109Z" fill="#FFC81A"/><g id="Neck"><path id="Fill 6" fill-rule="evenodd" clip-rule="evenodd" d="M297.934 61.7372L300.06 85.9732C300.407 100.325 278.229 125.401 278.229 125.401C278.229 125.401 235.227 98.2632 234.891 84.3442L237.395 58.1262" fill="white"/><path id="Fill 8" fill-rule="evenodd" clip-rule="evenodd" d="M278.229 127.528C277.839 127.528 277.445 127.421 277.095 127.2C272.595 124.36 233.119 99.0308 232.766 84.3958C232.764 84.3108 232.767 84.2258 232.775 84.1418L235.279 57.9238C235.392 56.7548 236.432 55.9028 237.599 56.0088C238.768 56.1208 239.625 57.1588 239.514 58.3278L237.022 84.4078C237.164 87.3508 240.14 94.3088 257.979 108.404C266.194 114.894 274.478 120.426 277.823 122.609C279.734 120.341 283.671 115.514 287.544 109.834C294.445 99.7118 298.038 91.5038 297.937 86.0898L295.816 61.9238C295.714 60.7528 296.579 59.7218 297.749 59.6188C298.919 59.5198 299.951 60.3808 300.054 61.5508L302.18 85.7878C302.184 85.8328 302.187 85.8778 302.187 85.9228C302.55 100.936 280.751 125.761 279.823 126.81C279.407 127.281 278.821 127.528 278.229 127.528" fill="#141414"/><path id="Fill 13" fill-rule="evenodd" clip-rule="evenodd" d="M299.165 85.289C295.255 99.301 288.826 112.842 278.458 123.338C260.124 111.322 244.619 98.601 234.179 84.615C208.531 95.435 245.952 151.918 245.952 151.918C245.952 151.918 275.664 126.359 278.458 123.83C281.252 126.359 315.851 142.74 315.851 142.74C315.851 142.74 315.131 87.244 299.165 85.289" fill="white"/><path id="Fill 15" fill-rule="evenodd" clip-rule="evenodd" d="M281.462 123.273C286.23 126.034 300.198 132.934 313.644 139.338C313.018 119.812 309.151 92.1899 300.616 87.9259C296.335 102.299 289.9 114.172 281.462 123.273M233.541 87.2909C230.83 88.8209 229.043 91.1059 228.098 94.2339C225.854 101.667 228.494 113.74 235.732 129.149C239.794 137.797 244.269 145.257 246.423 148.706C252.147 143.78 269.444 128.888 275.284 123.791C256.587 111.338 242.898 99.3699 233.541 87.2909M245.95 154.045C245.853 154.045 245.756 154.039 245.658 154.025C245.054 153.941 244.515 153.602 244.177 153.093C243.103 151.472 217.942 113.155 224.026 93.0049C225.5 88.1269 228.637 84.6449 233.351 82.6559C234.252 82.2769 235.296 82.5589 235.881 83.3429C245.04 95.6119 258.877 107.807 278.15 120.588C286.621 111.533 292.997 99.4759 297.115 84.7169C297.398 83.7049 298.384 83.0489 299.422 83.1779C316.732 85.2979 317.9 136.842 317.975 142.712C317.985 143.446 317.616 144.133 316.999 144.529C316.379 144.926 315.601 144.976 314.939 144.662C309.698 142.18 285.527 130.686 278.638 126.507C272.419 131.954 248.447 152.576 247.337 153.531C246.949 153.865 246.456 154.045 245.95 154.045" fill="#141414"/></g><g id="Macbook"><path id="Fill 19" fill-rule="evenodd" clip-rule="evenodd" d="M436.792 343.93H223.965C217.89 343.93 212.965 337.885 212.965 330.43C212.965 322.974 217.89 316.93 223.965 316.93H436.792C442.867 316.93 447.792 322.974 447.792 330.43C447.792 337.885 442.867 343.93 436.792 343.93" fill="#141414"/><path id="Fill 23" fill-rule="evenodd" clip-rule="evenodd" d="M570.901 343.93H360.226C352.595 343.93 346.41 337.744 346.41 330.113V177.518C346.41 169.888 352.595 163.701 360.226 163.701H570.901C578.531 163.701 584.717 169.888 584.717 177.518V330.113C584.717 337.744 578.531 343.93 570.901 343.93" fill="#13D6C3"/><path id="Fill 43" fill-rule="evenodd" clip-rule="evenodd" d="M491.472 255.292C491.472 267.22 482.363 274.752 470.016 274.752C457.669 274.752 447.66 265.082 447.66 253.154C447.66 241.226 460.903 221.039 470.712 235.867C477.525 246.164 491.472 243.364 491.472 255.292" fill="white"/><path id="Fill 45" fill-rule="evenodd" clip-rule="evenodd" d="M462.957 232.742C462.276 232.742 461.752 232.9 461.435 232.995C455.434 234.801 449.785 245.882 449.785 253.154C449.785 263.89 458.859 272.625 470.014 272.625C481.575 272.625 489.343 265.659 489.343 255.292C489.343 250.169 486.504 248.62 481.062 246.109C476.929 244.2 472.243 242.038 468.936 237.04C466.569 233.461 464.408 232.742 462.957 232.742M470.014 276.878C456.515 276.878 445.531 266.236 445.531 253.154C445.531 244.179 452.079 231.368 460.209 228.923C462.841 228.13 467.94 227.825 472.483 234.693C475.123 238.683 479.049 240.495 482.845 242.247C488.131 244.686 493.597 247.209 493.597 255.292C493.597 268.002 483.898 276.878 470.014 276.878" fill="#141414"/></g><g id="Hand"><path id="Fill 47" fill-rule="evenodd" clip-rule="evenodd" d="M196.102 288.725C212.107 285.487 249.717 280.561 283.156 276.453C345.601 268.78 350.199 309.648 334.029 304.158C323.254 300.499 316.355 301.353 308.135 300.881C317.19 302.322 321.304 308.245 318.938 312.005C315.62 317.277 293.089 307.8 268.427 320.588C246.533 331.941 219.073 349.429 202.632 352.012L196.102 288.725Z" fill="white"/><path id="Fill 49" fill-rule="evenodd" clip-rule="evenodd" d="M198.418 290.437L204.511 349.487C216.316 346.845 233.252 337.456 249.664 328.357C255.898 324.9 261.787 321.636 267.45 318.7C283.106 310.582 297.848 311.149 307.602 311.522C311.574 311.674 316.515 311.863 317.14 310.872C317.58 310.172 317.584 309.333 317.151 308.379C316.27 306.435 313.292 303.854 307.802 302.981C306.683 302.803 305.9 301.779 306.022 300.653C306.144 299.526 307.126 298.685 308.258 298.758C310.082 298.862 311.883 298.901 313.625 298.939C319.743 299.072 326.07 299.208 334.714 302.144C335.846 302.528 337.914 302.975 339.036 301.646C340.133 300.347 340.34 297.375 338.333 293.666C332.974 283.761 315.733 274.593 283.417 278.563C240.899 283.787 212.331 287.778 198.418 290.437M202.634 354.138C202.168 354.138 201.711 353.984 201.336 353.696C200.874 353.34 200.578 352.81 200.519 352.229L193.988 288.943C193.876 287.854 194.608 286.857 195.682 286.64C208.897 283.966 238.241 279.829 282.898 274.342C299.07 272.353 312.777 273.376 323.642 277.377C332.271 280.556 338.815 285.621 342.073 291.641C344.718 296.528 344.799 301.413 342.286 304.39C340.278 306.768 337.022 307.42 333.347 306.171C327.594 304.218 323.022 303.601 318.66 303.36C319.684 304.338 320.486 305.435 321.025 306.623C322.04 308.862 321.936 311.236 320.739 313.137C318.807 316.208 314.285 316.034 307.439 315.772C298.131 315.416 284.066 314.874 269.408 322.475C263.797 325.385 257.934 328.635 251.726 332.077C233.938 341.938 215.544 352.136 202.964 354.112C202.854 354.129 202.744 354.138 202.634 354.138" fill="#141414"/></g><g id="Finger"><path id="Fill 1" fill-rule="evenodd" clip-rule="evenodd" d="M498.704 339.365C498.066 337.009 496.246 333.272 492.454 332.455C487.371 331.361 485.034 335.533 484.801 340.057C484.579 339.219 484.302 338.343 483.957 337.42C481.113 329.81 472.116 330.995 470.903 336.619C470.433 338.795 470.324 340.915 470.478 342.858C468.932 337.953 464.893 333.995 460.369 335.234C456.982 336.162 455.084 339.47 455.206 343.964C454.046 341.615 451.892 339.792 449.385 339.496C445.467 339.034 441.449 343.354 443.84 350.86C445.594 356.366 452.329 355.592 454.856 351.887C455.509 350.929 455.882 349.89 456.033 348.835C456.281 349.663 456.574 350.508 456.938 351.372C459.235 356.822 468.705 356.344 470.596 350.659C471.032 349.346 471.195 347.938 471.134 346.523C471.84 349.001 472.995 350.9 474.287 351.792C478.549 354.733 485.199 352.834 485.469 345.26C486.143 347.309 487.291 348.954 488.839 349.544C495.498 352.082 500.965 347.713 498.704 339.365" fill="white"/><path id="Fill 3_2" fill-rule="evenodd" clip-rule="evenodd" d="M495.428 347.276C494.037 348.471 491.947 348.589 489.694 347.597C488.251 346.963 486.485 341.322 487.853 337.098C488.55 334.942 489.731 334.403 490.888 334.4C491.269 334.4 491.647 334.457 492.004 334.534C495.224 335.227 496.439 339.141 496.651 339.921C497.517 343.122 497.06 345.872 495.428 347.276M481.281 350.046C479.683 351.292 477.303 351.291 475.493 350.042C474.656 349.464 473.8 348.082 473.226 346.176C473.15 344.941 472.932 343.695 472.575 342.485C472.465 340.825 472.566 338.991 472.981 337.068C473.403 335.11 475.191 334.297 476.593 334.195C476.676 334.189 476.778 334.184 476.895 334.184C478.031 334.182 480.629 334.594 481.964 338.165C484.02 343.667 483.765 348.109 481.281 350.046M468.576 349.987C467.856 352.151 465.511 353.002 463.722 353.071C462.01 353.138 459.726 352.516 458.896 350.546C457.133 346.359 456.827 342.32 458.081 339.74C458.704 338.458 459.662 337.632 460.929 337.285C463.101 336.692 464.847 337.934 465.935 339.08C467.039 340.246 467.862 341.749 468.384 343.347C468.498 344.553 468.706 345.697 468.991 346.762C469.026 347.891 468.907 348.993 468.576 349.987M452.88 351.097C452.439 352.199 451.052 352.922 449.47 352.875C448.631 352.844 446.6 352.524 445.864 350.214C444.878 347.12 445.077 344.42 446.408 342.806C447.055 342.023 447.913 341.591 448.803 341.589C448.913 341.589 449.024 341.595 449.134 341.608C450.673 341.79 451.655 342.933 452.204 343.859C453.442 345.941 453.726 348.984 452.88 351.097M500.755 338.809V338.808C500.3 337.129 498.388 331.558 492.901 330.376C489.236 329.588 486.229 330.948 484.555 334.039C482.598 331.269 479.568 329.718 476.284 329.953C472.624 330.219 469.674 332.649 468.871 336.012C466.265 333.352 462.975 332.315 459.806 333.183C457.34 333.858 455.421 335.483 454.256 337.881C454.056 338.294 453.89 338.733 453.74 339.181C452.545 338.188 451.151 337.563 449.631 337.384C447.202 337.098 444.769 338.112 443.128 340.099C440.859 342.85 440.379 347.007 441.812 351.505C442.875 354.843 445.75 356.996 449.315 357.125C449.43 357.13 449.545 357.131 449.66 357.131C452.324 357.126 454.709 355.923 456.077 354.005C457.734 356.084 460.421 357.336 463.47 357.33C463.609 357.33 463.748 357.326 463.888 357.321C467.488 357.181 470.539 355.385 472.038 352.636C472.373 352.984 472.72 353.295 473.078 353.543C474.736 354.686 476.627 355.255 478.491 355.25C480.42 355.246 482.321 354.628 483.896 353.4C484.601 352.85 485.589 351.876 486.369 350.354C486.857 350.838 487.391 351.231 487.981 351.49C489.541 352.177 491.114 352.515 492.607 352.512C494.708 352.507 496.657 351.829 498.2 350.5C501.106 348.002 502.061 343.631 500.755 338.809" fill="#141414"/></g></g></g><g id="Head" transform="translate(439 92) scale(1 1)"><g id="Head/Short Hair 3"><g id="Short Hair"><path id="SKIN" fill-rule="evenodd" clip-rule="evenodd" d="M81.0758 62.1135C71.3628 66.0515 56.3708 95.9825 56.3708 95.9825L30.4718 91.9975C30.4718 91.9975 18.5178 123.077 34.8538 139.414C51.1908 155.751 48.3338 150.709 50.4328 154.245C52.5328 157.78 61.8278 181.823 103.041 183.37C144.253 184.917 152.636 146.069 153.299 141.981C153.961 137.893 154.846 109.055 153.409 103.089C151.973 97.1225 151.641 79.0525 146.559 73.3675C135.489 60.9835 96.4698 55.8715 81.0758 62.1135" fill="white"/><path id="ink" fill-rule="evenodd" clip-rule="evenodd" d="M54.5636 157.2C71.1326 185.743 122.727 192.091 142.809 162.458C154.743 146.339 153.794 110.994 145.198 84.8123C122.76 93.1483 95.2986 92.8023 73.5856 87.6983C71.8546 100.607 52.3636 115.69 49.4986 112.708C48.0571 111.207 47.3274 109.956 46.6704 108.829C45.6482 107.075 44.8021 105.624 41.7256 104.005C34.6046 100.74 27.6786 106.397 28.2786 114.255C28.5686 120.699 30.9626 131.51 43.7336 131.51C44.7426 131.51 45.5936 132.262 45.7186 133.264C46.7766 141.788 49.8866 150.041 54.5636 157.2ZM62.3376 29.1543C94.8356 16.7173 184.372 42.7283 155.453 77.9443C159.935 86.6453 166.021 103.11 155.213 113.99C158.406 147.561 149.407 177.019 116.778 184.032C90.8126 189.849 62.9936 180.442 49.8706 157.206C19.0406 155.166 -1.51242 80.6453 37.0106 63.9163C32.7296 50.9193 42.6646 36.4133 62.3376 29.1543ZM36.355 110.837C33.4 110.734 33.4 118.966 36.355 118.863C39.311 118.966 39.311 110.733 36.355 110.837Z" fill="#141414"/></g></g></g><g id="Face" transform="translate(499 178) scale(1 1)"><g id="Face/Open Mouth"><g id="Open Mouth"><path id="face" fill-rule="evenodd" clip-rule="evenodd" d="M70.9882 13.9992C68.0522 13.1742 65.0782 13.0552 62.1032 13.8122C61.3352 13.9612 60.5912 13.4602 60.4422 12.6922C60.2782 10.4482 64.6642 9.45818 66.4202 9.12918C68.9872 8.53018 78.2462 9.98018 75.8402 14.0072C74.8739 14.9846 73.5478 14.6298 72.2836 14.2916C71.838 14.1724 71.4 14.0552 70.9882 13.9992ZM79.0837 28.4098C82.3627 26.3868 77.0907 22.1598 75.2657 21.4738C69.4397 18.6568 61.9697 21.0418 58.6887 26.5268C58.2247 27.2298 58.3157 28.1878 58.9497 28.7888C59.6937 29.4978 60.8847 29.4128 61.5407 28.6288C62.6357 27.4718 63.7997 26.4788 65.0977 25.7828C68.6977 23.8368 74.1807 24.5208 76.8177 27.5978C77.2937 28.3478 78.2017 28.7898 79.0837 28.4098ZM53.2121 41.7435C64.1301 46.3135 60.3391 58.0745 48.9291 57.1785C46.3381 57.1585 46.3271 53.2175 48.9111 53.1785C51.0741 53.1255 54.3141 52.8435 55.2651 50.9605C56.4161 48.0585 53.4991 46.1325 50.9521 45.1195C49.8511 44.6065 49.4721 43.1815 49.3121 42.3375C48.4978 37.2812 48.6234 32.2363 48.7496 27.1678L48.7601 26.7445C48.7891 25.0005 51.4901 24.9795 51.5791 26.6915C51.7055 28.058 51.8056 29.4359 51.9059 30.8166C52.173 34.4938 52.4415 38.1905 53.2121 41.7435ZM30.3622 32.9675C29.6752 32.1725 28.7082 31.6365 27.5622 31.4665C23.6152 30.9165 20.4002 34.4195 19.1242 37.9275C18.7892 38.8765 17.7262 39.3655 16.7902 38.9875C14.522 37.8155 16.3701 34.8966 17.597 32.9588C17.8105 32.6215 18.0053 32.3139 18.1562 32.0505C20.3672 29.0185 24.0882 26.8595 28.0172 27.2305C30.0292 27.4015 32.0852 28.2865 33.5832 29.8225C35.6322 31.9375 32.4222 35.0645 30.3622 32.9675ZM23.7171 17.8459H23.7171C24.9032 17.8693 26.1151 17.8932 26.6225 16.807C27.4035 13.736 19.8595 14 17.9705 14.2C15.5715 14.569 10.0895 15.517 9.99951 18.591C10.1315 19.604 11.0595 20.318 12.0715 20.187C13.5777 19.9711 15.0595 19.5563 16.5438 19.1407C18.3183 18.6439 20.0965 18.1461 21.9245 17.986C22.4365 17.8206 23.073 17.8331 23.7171 17.8459ZM58.3953 62.0875C62.3488 61.5386 68.1152 60.738 69.169 62.5403C72.497 69.5353 66.256 77.4383 59.985 80.2743C50.105 84.8163 30.721 80.4693 32.805 66.7053C32.769 66.2653 33.383 65.5403 33.895 65.5473C34.7414 65.42 35.5932 65.2916 36.4491 65.1625C42.6883 64.2219 49.1471 63.2481 55.329 62.4453C56.0061 62.4192 57.104 62.2668 58.3953 62.0875Z" fill="#141414"/><path id="dot" fill-rule="evenodd" clip-rule="evenodd" d="M71.0965 36.1706C69.5995 36.1836 69.6205 38.5066 71.1165 38.4936C72.6135 38.4816 72.5915 36.1576 71.0965 36.1706ZM30.8523 42.5124C28.8363 43.4524 30.2933 46.5864 32.3133 45.6444C34.3283 44.7044 32.8713 41.5714 30.8523 42.5124ZM23.5066 45.0485C22.0286 45.7375 23.0976 48.0355 24.5786 47.3455C26.0566 46.6555 24.9866 44.3585 23.5066 45.0485ZM27.7127 52.1735C25.2727 53.3125 27.0367 57.1085 29.4827 55.9675C31.9227 54.8285 30.1577 51.0335 27.7127 52.1735ZM20.0076 53.3102C18.6656 50.1012 14.3706 55.1302 18.2626 55.7892C19.8626 56.3762 20.8486 54.5802 20.0076 53.3102ZM70.4275 43.7263C67.9545 43.7473 67.9905 47.5833 70.4595 47.5633C72.9335 47.5423 72.8965 43.7053 70.4275 43.7263ZM77.2517 41.6266C77.0577 43.0086 78.5807 44.1076 79.6737 42.9896C82.6337 40.9086 77.0957 38.4416 77.2517 41.6266ZM64.0183 36.9704C61.9763 36.9884 62.0063 40.1564 64.0443 40.1384C66.0863 40.1204 66.0573 36.9524 64.0183 36.9704Z" fill="#FF4B33"/></g></g></g><g id="Accessories" transform="translate(491 176) scale(103 60)"><g id="Accessories/None" stroke="none" stroke-width="1" fill="none" fill-rule="evenodd" fill-opacity="0"/></g><g id="Facial Hair" transform="translate(501 234) scale(90 60)"><g id="Facial Hair/None" stroke="none" stroke-width="1" fill="none" fill-rule="evenodd" fill-opacity="0"/></g></g></g><g id="Master/Character/Standing" transform="translate(368 338) scale(1 1)"><g id="Master/Character/Standing"><g id="Lower Body" transform="translate(0 569) scale(1 1)"><g id="Lower Body/Climb"><path id="Rectangle" d="M607 590C607 534.772 651.772 490 707 490H891C946.228 490 991 534.772 991 590V730H607V590Z" fill="#D3E2F2"/><g id="Assets 44"><path id="SKIN" fill-rule="evenodd" clip-rule="evenodd" d="M755.01 330.843L726 455L803.361 452.145L860 318" fill="white"/><path id="Fill 2" fill-rule="evenodd" clip-rule="evenodd" d="M726.004 457C725.402 457 724.832 456.722 724.452 456.24C724.056 455.739 723.909 455.076 724.056 454.446L753.064 330.413C753.325 329.304 754.404 328.621 755.483 328.889C756.558 329.157 757.219 330.275 756.959 331.385L728.571 452.768L802.027 450.06L858.159 317.241C858.601 316.194 859.778 315.716 860.797 316.173C861.812 316.629 862.275 317.848 861.832 318.896L805.196 452.908C804.887 453.637 804.202 454.119 803.431 454.147L726.075 456.999C726.052 457 726.027 457 726.004 457" fill="#141414"/><path id="Fill 4" fill-rule="evenodd" clip-rule="evenodd" d="M725.031 443.104C725.288 442.044 726.287 441.374 727.318 441.566C728.299 441.75 729.541 441.999 731.004 442.294C739.969 444.094 758.623 447.842 776.301 447.857H776.345C786.76 447.857 795.919 444.883 802.135 439.481C802.629 439.052 803.29 438.899 803.915 439.066C834.256 447.312 856.177 453.269 872.423 464.579C875.278 466.568 885.575 475.245 883.794 481.382C882.97 484.22 880.038 485.659 875.077 485.659C856.967 485.659 817.949 485.765 783.525 485.858C755.67 485.934 731.616 486 722.559 486C721.601 486 720.738 485.547 720.126 484.725C716.56 479.936 722.368 454.022 725.031 443.104" fill="#ffc81a"/><path id="Fill 6" fill-rule="evenodd" clip-rule="evenodd" d="M723.712 495H880.288C882.89 495 885 492.887 885 490.279V488.72C885 486.112 882.89 484 880.288 484H723.712C721.11 484 719 486.112 719 488.72V490.279C719 492.887 721.11 495 723.712 495" fill="#141414"/><path id="Fill 8" fill-rule="evenodd" clip-rule="evenodd" d="M836.093 459C836.876 459 837.626 458.548 837.984 457.773C841.27 450.685 847.581 452.42 848.291 452.643C849.392 452.986 850.562 452.354 850.905 451.225C851.246 450.095 850.641 448.896 849.544 448.538C845.965 447.371 838.15 447.413 834.204 455.924C833.707 456.997 834.15 458.28 835.194 458.791C835.485 458.933 835.791 459 836.093 459" fill="#141414"/><path id="Fill 10" fill-rule="evenodd" clip-rule="evenodd" d="M817.092 453C817.875 453 818.626 452.548 818.985 451.773C822.27 444.685 828.582 446.419 829.291 446.643C830.392 446.987 831.563 446.354 831.905 445.225C832.246 444.094 831.641 442.895 830.544 442.537C826.96 441.371 819.147 441.415 815.204 449.924C814.707 450.997 815.15 452.28 816.194 452.791C816.485 452.933 816.79 453 817.092 453" fill="#141414"/></g><g id="Assets 45"><path id="SKIN_2" fill-rule="evenodd" clip-rule="evenodd" d="M230.491 517L159 689L235.082 683.756L323 556.778" fill="white"/><path id="Fill 14" fill-rule="evenodd" clip-rule="evenodd" d="M159.001 692C158.355 692 157.745 691.677 157.369 691.126C156.966 690.538 156.888 689.775 157.162 689.112L228.652 516.257C229.086 515.205 230.262 514.718 231.279 515.167C232.295 515.619 232.767 516.836 232.331 517.888L162.128 687.634L234.003 682.655L321.368 555.845C322.011 554.913 323.261 554.694 324.161 555.361C325.06 556.025 325.27 557.32 324.628 558.251L236.711 685.861C236.363 686.367 235.813 686.684 235.215 686.725L159.135 691.995C159.09 691.998 159.045 692 159.001 692" fill="#141414"/><path id="Fill 16" fill-rule="evenodd" clip-rule="evenodd" d="M242.969 677.104C242.712 676.044 241.713 675.374 240.682 675.566C239.7 675.75 238.459 675.999 236.995 676.294C228.031 678.094 209.377 681.842 191.699 681.857H191.654C181.24 681.857 172.081 678.883 165.864 673.481C165.371 673.052 164.709 672.899 164.084 673.066C133.744 681.312 111.823 687.269 95.5771 698.579C92.7215 700.568 82.4249 709.245 84.2055 715.382C85.03 718.22 87.9625 719.659 92.9221 719.659C111.033 719.659 150.051 719.765 184.475 719.858C212.329 719.934 236.384 720 245.441 720C246.398 720 247.262 719.547 247.874 718.725C251.44 713.936 245.632 688.022 242.969 677.104" fill="#ffc81a"/><path id="Fill 18" fill-rule="evenodd" clip-rule="evenodd" d="M245.289 729H88.7122C86.1095 729 84 726.888 84 724.28V722.72C84 720.112 86.1095 718 88.7122 718H245.289C247.89 718 250 720.112 250 722.72V724.28C250 726.888 247.89 729 245.289 729" fill="#141414"/><path id="Fill 21" fill-rule="evenodd" clip-rule="evenodd" d="M132.908 693C132.125 693 131.375 692.548 131.016 691.773C127.731 684.685 121.419 686.42 120.709 686.643C119.609 686.986 118.437 686.354 118.095 685.225C117.754 684.095 118.358 682.896 119.456 682.538C123.036 681.371 130.851 681.413 134.796 689.924C135.293 690.997 134.85 692.28 133.807 692.791C133.516 692.933 133.21 693 132.908 693" fill="#141414"/><path id="Fill 23" fill-rule="evenodd" clip-rule="evenodd" d="M151.908 688C151.125 688 150.375 687.548 150.016 686.773C146.73 679.685 140.418 681.419 139.71 681.643C138.609 681.987 137.437 681.354 137.095 680.225C136.754 679.094 137.359 677.895 138.456 677.537C142.04 676.371 149.853 676.415 153.796 684.924C154.293 685.997 153.85 687.28 152.807 687.791C152.516 687.933 152.21 688 151.908 688" fill="#141414"/></g><g id="pant"><path id="Fill 25" fill-rule="evenodd" clip-rule="evenodd" d="M429.868 -1.06255C429.868 -1.06255 383.003 133.395 366.119 174.029C322.522 278.947 199 568.222 199 568.222C199 568.222 331.116 621.762 400.094 587.612C436.783 517.338 559.895 199.222 572.176 167.426L582.683 132.675C583.012 131.586 584.134 130.976 585.189 131.319C586.245 131.659 586.833 132.815 586.504 133.904L577.138 164.882L738.029 166.231C747.755 146.254 752.376 135.575 752.438 135.43C752.888 134.388 754.069 133.921 755.079 134.383C756.089 134.845 756.544 136.065 756.096 137.106C756.035 137.248 751.661 147.355 742.487 166.269L742.859 166.272C742.859 166.272 676.807 346.979 678.738 355.861C690.364 366.268 792.274 360.132 860.125 346.98C884.958 268.721 920.228 121.743 922.871 80.3007C929.769 -27.84 657.077 -1.06255 657.077 -1.06255H429.868Z" fill="#141414"/><g id="Combined Shape"><path fill-rule="evenodd" clip-rule="evenodd" d="M443.28 38.1546C443.433 38.1917 443.586 38.2093 443.739 38.2093C444.647 38.2093 445.47 37.5671 445.686 36.6143C446.318 33.8321 446.695 31.7581 446.84 30.2715C446.952 29.1369 446.149 28.1242 445.048 28.0106C443.954 27.896 442.967 28.7229 442.856 29.8575C442.729 31.1459 442.37 33.1032 441.786 35.6738C441.534 36.7836 442.203 37.8954 443.28 38.1546ZM305.208 435.126C304.182 434.7 303.016 435.213 302.603 436.271C301.12 440.072 299.645 443.833 298.181 447.547C297.766 448.604 298.259 449.808 299.283 450.237C299.53 450.34 299.785 450.39 300.036 450.39C300.827 450.39 301.576 449.902 301.892 449.101C303.356 445.384 304.832 441.619 306.318 437.812C306.731 436.754 306.233 435.552 305.208 435.126ZM311.345 413.678C311.753 412.618 312.915 412.098 313.944 412.519C314.973 412.938 315.476 414.138 315.069 415.199C313.609 419.002 312.155 422.775 310.709 426.513C310.396 427.321 309.644 427.812 308.848 427.812C308.602 427.812 308.351 427.766 308.106 427.665C307.08 427.243 306.579 426.042 306.989 424.982C308.434 421.248 309.887 417.479 311.345 413.678ZM296.336 457.681C295.312 457.249 294.143 457.753 293.723 458.808C292.21 462.61 290.709 466.359 289.223 470.049C288.799 471.102 289.284 472.311 290.305 472.749C290.557 472.855 290.816 472.907 291.072 472.907C291.857 472.907 292.602 472.427 292.922 471.633C294.41 467.938 295.912 464.184 297.428 460.374C297.847 459.32 297.359 458.114 296.336 457.681ZM319.975 391.04C320.378 389.976 321.539 389.455 322.568 389.867C323.599 390.281 324.108 391.479 323.706 392.542C322.266 396.343 320.831 400.123 319.4 403.875C319.091 404.688 318.336 405.186 317.537 405.186C317.293 405.186 317.046 405.14 316.805 405.041C315.776 404.625 315.268 403.427 315.674 402.365C317.103 398.615 318.536 394.839 319.975 391.04ZM287.3 480.17C286.28 479.728 285.107 480.224 284.677 481.272C283.126 485.081 281.592 488.816 280.08 492.47C279.645 493.52 280.118 494.732 281.135 495.18C281.391 495.293 281.658 495.347 281.92 495.347C282.698 495.347 283.438 494.876 283.762 494.091C285.278 490.429 286.815 486.687 288.37 482.874C288.798 481.823 288.32 480.612 287.3 480.17ZM275.418 503.642C275.857 502.595 277.037 502.115 278.052 502.569C279.066 503.023 279.532 504.24 279.091 505.285C277.481 509.11 275.898 512.834 274.346 516.45C274.014 517.221 273.281 517.681 272.513 517.681C272.243 517.681 271.968 517.623 271.704 517.503C270.692 517.042 270.236 515.822 270.684 514.779C272.233 511.171 273.812 507.456 275.418 503.642ZM429.618 84.7906C429.824 84.8587 430.032 84.8917 430.236 84.8917C431.081 84.8917 431.866 84.3363 432.141 83.463C433.417 79.4017 434.624 75.5241 435.751 71.8458C436.085 70.7588 435.501 69.5984 434.446 69.2546C433.39 68.9119 432.268 69.5138 431.933 70.5998C430.807 74.2709 429.604 78.1381 428.331 82.189C427.99 83.274 428.566 84.4385 429.618 84.7906ZM328.505 368.359C328.903 367.295 330.061 366.766 331.093 367.175C332.126 367.585 332.639 368.78 332.242 369.844C330.821 373.646 329.402 377.431 327.986 381.197C327.678 382.015 326.921 382.516 326.118 382.516C325.878 382.516 325.633 382.471 325.394 382.377C324.363 381.964 323.851 380.767 324.252 379.705C325.667 375.94 327.085 372.157 328.505 368.359ZM436.771 61.5585C436.965 61.6194 437.162 61.6483 437.355 61.6483C438.214 61.6483 439.006 61.0754 439.271 60.1855C440.549 55.8599 441.685 51.9132 442.642 48.4538C442.945 47.3574 442.33 46.2146 441.266 45.9007C440.205 45.5869 439.095 46.2239 438.791 47.3202C437.84 50.7559 436.712 54.6789 435.439 58.9807C435.117 60.0719 435.712 61.2261 436.771 61.5585ZM265.86 525.872C266.318 524.833 267.504 524.377 268.512 524.845C269.519 525.317 269.964 526.542 269.507 527.579C267.799 531.457 266.132 535.186 264.551 538.662C264.21 539.41 263.488 539.85 262.735 539.85C262.451 539.85 262.162 539.788 261.887 539.655C260.886 539.171 260.455 537.942 260.924 536.91C262.498 533.447 264.159 529.734 265.86 525.872ZM258.52 546.923C257.526 546.424 256.326 546.848 255.842 547.871C253.993 551.767 252.213 555.411 250.553 558.7C250.043 559.713 250.424 560.959 251.405 561.486C251.7 561.645 252.016 561.719 252.327 561.719C253.05 561.719 253.748 561.314 254.106 560.608C255.782 557.287 257.576 553.612 259.438 549.686C259.925 548.662 259.513 547.424 258.52 546.923ZM417.17 116.835C417.525 115.755 418.659 115.176 419.709 115.542C420.757 115.907 421.318 117.08 420.964 118.16C419.729 121.918 418.46 125.764 417.158 129.69C416.873 130.548 416.096 131.088 415.263 131.088C415.049 131.088 414.829 131.052 414.615 130.976C413.569 130.607 413.01 129.433 413.369 128.354C414.669 124.432 415.937 120.59 417.17 116.835ZM388.583 207.463C387.544 207.077 386.395 207.637 386.021 208.71C384.704 212.5 383.374 216.317 382.032 220.158C381.657 221.231 382.196 222.413 383.236 222.8C383.46 222.883 383.69 222.924 383.915 222.924C384.736 222.924 385.505 222.399 385.799 221.557C387.143 217.714 388.473 213.895 389.792 210.104C390.165 209.03 389.624 207.848 388.583 207.463ZM393.945 185.793C394.316 184.718 395.459 184.151 396.502 184.537C397.545 184.917 398.089 186.097 397.721 187.172C396.418 190.96 395.1 194.785 393.766 198.642C393.475 199.486 392.703 200.014 391.88 200.014C391.656 200.014 391.43 199.974 391.208 199.893C390.166 199.51 389.622 198.329 389.994 197.254C391.327 193.399 392.644 189.579 393.945 185.793ZM404.338 161.579C403.295 161.206 402.152 161.771 401.787 162.845C400.503 166.625 399.2 170.453 397.877 174.324C397.51 175.4 398.057 176.579 399.101 176.958C399.32 177.038 399.544 177.076 399.765 177.076C400.591 177.076 401.364 176.545 401.654 175.696C402.978 171.822 404.283 167.992 405.567 164.21C405.932 163.133 405.381 161.955 404.338 161.579ZM378.022 231.597C378.399 230.524 379.545 229.971 380.587 230.359C381.628 230.748 382.165 231.931 381.788 233.003C380.455 236.797 379.112 240.612 377.76 244.443C377.464 245.281 376.696 245.803 375.878 245.803C375.65 245.803 375.419 245.762 375.193 245.678C374.154 245.287 373.618 244.102 373.996 243.031C375.348 239.202 376.691 235.39 378.022 231.597ZM339.53 344.45C338.496 344.045 337.34 344.579 336.946 345.645C335.543 349.444 334.139 353.232 332.736 357.007C332.341 358.072 332.857 359.267 333.891 359.673C334.126 359.767 334.368 359.812 334.606 359.812C335.411 359.812 336.171 359.307 336.477 358.485C337.88 354.707 339.284 350.916 340.689 347.115C341.082 346.049 340.564 344.857 339.53 344.45ZM409.535 139.861C409.895 138.783 411.034 138.209 412.081 138.583C413.126 138.954 413.682 140.13 413.32 141.208C412.059 144.981 410.769 148.818 409.456 152.713C409.168 153.566 408.393 154.101 407.564 154.101C407.346 154.101 407.125 154.064 406.908 153.985C405.862 153.612 405.31 152.435 405.673 151.358C406.986 147.465 408.273 143.631 409.535 139.861ZM372.52 253.228C371.485 252.837 370.332 253.386 369.952 254.456C368.605 258.251 367.25 262.059 365.89 265.876C365.508 266.947 366.04 268.133 367.077 268.526C367.306 268.613 367.539 268.654 367.769 268.654C368.584 268.654 369.35 268.136 369.648 267.302C371.01 263.483 372.366 259.673 373.712 255.876C374.093 254.804 373.559 253.619 372.52 253.228ZM345.306 322.897C345.696 321.829 346.85 321.289 347.886 321.693C348.922 322.095 349.444 323.286 349.054 324.352C347.664 328.153 346.273 331.949 344.881 335.737C344.577 336.562 343.816 337.071 343.007 337.071C342.772 337.071 342.533 337.027 342.299 336.937C341.264 336.532 340.744 335.341 341.136 334.274C342.527 330.488 343.917 326.694 345.306 322.897ZM356.186 298.853C355.148 298.452 353.996 298.999 353.61 300.066C352.234 303.868 350.854 307.672 349.471 311.476C349.082 312.543 349.607 313.732 350.642 314.134C350.873 314.223 351.112 314.266 351.345 314.266C352.156 314.266 352.919 313.754 353.22 312.925C354.605 309.12 355.986 305.315 357.362 301.509C357.749 300.441 357.222 299.253 356.186 298.853ZM361.81 277.291C362.194 276.22 363.346 275.673 364.383 276.07C365.42 276.465 365.95 277.652 365.567 278.722C364.209 282.511 362.846 286.309 361.478 290.109C361.178 290.94 360.414 291.455 359.601 291.455C359.368 291.455 359.133 291.412 358.903 291.325C357.867 290.928 357.338 289.739 357.723 288.671C359.09 284.872 360.454 281.079 361.81 277.291ZM248.074 567.826C247.112 567.259 245.889 567.602 245.341 568.591C244.273 570.514 243.252 572.279 242.305 573.84C241.719 574.807 242.003 576.08 242.941 576.685C243.271 576.899 243.638 577 244.001 577C244.668 577 245.32 576.656 245.701 576.03C246.675 574.424 247.723 572.612 248.815 570.644C249.366 569.655 249.033 568.393 248.074 567.826ZM491.085 32.4135C491.417 31.3254 492.539 30.7194 493.595 31.0611C494.651 31.4018 495.238 32.5601 494.908 33.6482C494.674 34.4183 489.044 52.7128 477.79 70.2969C464.537 91.005 449.033 101.745 432.589 101.745C430.562 101.745 428.523 101.571 426.471 101.244C425.901 103.011 425.323 104.796 424.733 106.613C424.453 107.477 423.672 108.023 422.835 108.023C422.624 108.023 422.41 107.989 422.199 107.916C421.151 107.554 420.585 106.384 420.936 105.303C422.223 101.336 423.466 97.483 424.659 93.7552C425.007 92.6722 426.141 92.0858 427.188 92.442C428.239 92.7992 428.809 93.9668 428.463 95.0497C428.23 95.7765 427.987 96.5301 427.75 97.2652C469.094 103.074 490.868 33.13 491.085 32.4135Z" fill="white" style="mix-blend-mode:overlay"/></g></g></g></g><g id="Upper Body" transform="translate(272 187) scale(1 1)"><g id="Upper Body/Taking Picture"><g id="Assets 118"><path id="SKIN" fill-rule="evenodd" clip-rule="evenodd" d="M466.685 529.488C465.542 525.352 462.461 516.072 460.903 506.043C451.004 442.277 436.137 281.143 434.877 274.126L360.129 290.095C360.129 290.095 412.121 500.742 411.664 523.123C411.006 555.331 421.927 575.03 424.231 581.787C426.775 589.246 433.469 593.949 437.487 590.949C437.634 595.709 443.96 599.4 446.77 595.218C447.147 598.093 451 598.589 452.2 598.529C457.363 598.269 460.218 594.961 463.327 587.04C468.91 572.817 471.401 546.562 466.685 529.488" fill="white"/><path id="Fill 3" fill-rule="evenodd" clip-rule="evenodd" d="M468.734 528.922C454.066 472.762 448.755 375.189 440.959 311.709C438.783 290.105 437.343 275.833 436.969 273.751C436.761 272.595 435.655 271.826 434.5 272.033C433.344 272.241 432.575 273.346 432.783 274.503C433.128 276.423 434.639 291.403 436.73 312.135C444.247 374.434 450.121 472.051 463.788 527.151C465.484 532.694 466.517 537.802 466.771 544.044C467.788 548.287 459.7 578.017 454.641 564.795C453.457 561.078 453.048 556.9 452.692 552.945C452.612 551.984 451.881 551.166 450.885 551.018C443.443 549.999 437.709 542.816 436.519 535.554C436.262 533.814 433.531 534.222 433.772 535.953C434.671 544.315 440.397 552.298 448.603 554.856C449.397 560.372 449.319 566.955 453.705 571.129C459.166 575.312 464.475 568.828 466.292 564.13C464.944 574.525 461.54 596.205 452.093 596.406C451.355 596.445 449.026 596.07 448.878 594.943C448.687 593.032 446.02 592.43 445.005 594.032C444.661 594.544 444.053 595.18 442.749 594.804C441.285 594.382 439.67 592.764 439.611 590.884C439.61 589.205 437.522 588.214 436.213 589.246C435.497 589.781 434.579 589.881 433.488 589.544C429.216 588.417 426.425 582.17 424.5 576.713C420.847 567.963 413.246 549.754 413.789 523.167C412.292 499.951 366.977 293.89 359.622 288.029C358.478 288.312 357.781 289.464 358.063 290.605C358.582 292.709 409.983 501.234 409.537 523.08C408.976 550.564 416.81 569.332 420.575 578.352C423.2 585.993 427.716 594.877 436.009 593.866C437.498 597.617 442.393 600.51 446.173 598.541C470.847 613.151 474.7 544.875 468.734 528.922" fill="#141414"/></g><g id="Assets 119"><path id="t-shirt" fill-rule="evenodd" clip-rule="evenodd" d="M82.8516 219.661C85.9366 222.672 96.7216 232.22 96.7216 232.22L168.471 281.966L156.296 402.216H395.192L374.662 288.549C374.662 288.549 403.831 286.387 445.737 272.44C434.648 207.492 422.316 133.432 343.865 106.975C312.101 105.918 230.412 101.323 198.003 103.186C182.951 106.655 169.05 112.791 155.267 122.014C118.322 146.736 95.7266 191.199 82.8516 219.661Z" fill="#ffc81a"/><path id="path 12" fill-rule="evenodd" clip-rule="evenodd" d="M364.46 213.366C364.283 212.275 363.257 211.535 362.166 211.71C361.075 211.887 360.335 212.914 360.51 214.004L372.624 288.825C372.644 288.957 372.68 289.083 372.726 289.203L392.94 400.216H157.659L170.444 282.297C170.572 281.533 170.247 280.764 169.611 280.323L97.9586 230.644C97.0216 229.814 88.9296 222.637 85.2596 219.195C98.9076 189.212 121.011 147.343 156.379 123.677C169.897 114.631 183.606 108.578 198.287 105.174C222.881 103.783 275.312 106.069 313.619 107.738C325.557 108.258 335.889 108.708 343.504 108.964C419.892 134.893 432.553 207.103 443.477 271.081C408.862 282.436 383.052 285.683 376.281 286.387L364.46 213.366ZM447.57 271.287C436.409 205.909 423.76 131.808 344.504 105.08C344.319 105.018 344.127 104.983 343.931 104.976C336.311 104.723 325.876 104.268 313.793 103.742C275.312 102.065 222.613 99.7689 197.888 101.19C197.775 101.197 197.663 101.213 197.553 101.238C182.329 104.746 168.134 110.998 154.155 120.352C117.426 144.929 94.8296 188.33 81.0296 218.837C80.6826 219.604 80.8526 220.505 81.4546 221.093C84.5396 224.103 94.9536 233.326 95.3956 233.717C95.4546 233.77 95.5166 233.819 95.5816 233.864L166.288 282.887L153.323 401.885C153.226 402.465 153.389 403.059 153.769 403.508C154.149 403.957 154.707 404.216 155.296 404.216H395.192C395.763 404.216 396.308 403.972 396.687 403.544C397.067 403.116 397.246 402.547 397.178 401.98L376.89 290.345C384.324 289.558 411.002 286.109 446.37 274.338C447.306 274.027 447.876 273.077 447.71 272.104L447.57 271.287Z" fill="#141414"/></g><g id="phone"><path id="path 13" fill-rule="evenodd" clip-rule="evenodd" d="M296.509 296.227L245.111 311.852C239.622 313.52 233.82 310.423 232.151 304.935L200.155 199.681C198.487 194.193 201.583 188.391 207.072 186.722L258.471 171.098C263.96 169.429 269.761 172.526 271.43 178.015L303.426 283.268C305.095 288.756 301.998 294.558 296.509 296.227" fill="#141414"/><path id="path 14" fill-rule="evenodd" clip-rule="evenodd" d="M250.153 189.003C250.688 190.868 249.61 192.813 247.744 193.348C245.88 193.883 243.934 192.804 243.399 190.94C242.864 189.074 243.943 187.129 245.808 186.594C247.673 186.06 249.618 187.138 250.153 189.003" fill="white"/><path id="path 15" fill-rule="evenodd" clip-rule="evenodd" d="M262.89 185.35C263.425 187.215 262.347 189.161 260.481 189.695C258.617 190.23 256.671 189.152 256.137 187.287C255.601 185.422 256.68 183.476 258.545 182.942C260.41 182.407 262.355 183.485 262.89 185.35" fill="white"/><path id="path 16" fill-rule="evenodd" clip-rule="evenodd" d="M292.929 186.069L292.859 186.029L284.066 180.975L290.617 170.645C290.722 170.477 290.81 170.284 290.863 170.083C291.144 169.014 290.506 167.921 289.437 167.639L279.834 165.111L280.366 149.693C280.381 149.253 280.251 148.803 279.967 148.424C279.304 147.54 278.05 147.361 277.166 148.024L267.167 155.523L258.348 141.516C258.062 141.065 257.592 140.723 257.025 140.616C255.939 140.413 254.894 141.128 254.69 142.214L251.599 158.7L237.364 153.701L237.264 153.666C236.895 153.536 236.483 153.515 236.079 153.632C235.048 153.931 234.454 155.009 234.753 156.04L238.325 168.374C238.511 169.007 239.148 169.418 239.812 169.3C240.526 169.175 241.002 168.494 240.877 167.781L239.261 158.606L252.472 163.246C252.564 163.277 252.669 163.306 252.766 163.324C253.852 163.528 254.897 162.813 255.101 161.727L257.681 147.965L264.939 159.49C264.967 159.535 264.999 159.582 265.031 159.625C265.694 160.508 266.948 160.687 267.831 160.024L276.224 153.731L275.781 166.571C275.749 167.484 276.35 168.332 277.271 168.574L285.775 170.812L279.57 180.597C279.556 180.619 279.538 180.648 279.525 180.671C278.974 181.629 279.304 182.851 280.262 183.402L288.568 188.177L280.95 195.574C280.415 196.097 280.356 196.955 280.841 197.543C281.352 198.164 282.269 198.253 282.89 197.742L293.196 189.255C293.369 189.111 293.526 188.929 293.645 188.722C294.18 187.792 293.859 186.604 292.929 186.069" fill="white"/></g><g id="hand"><path id="SKIN_2" fill-rule="evenodd" clip-rule="evenodd" d="M274.143 250.486C272.61 247.791 268.879 246.875 266.747 249.126C266.747 249.126 269.683 246.233 271.299 243.362C272.829 240.645 272.735 237.452 271.066 235.654C268.492 232.882 265.223 233.668 262.74 236.187L265.202 233.207C267.722 230.45 268.276 226.656 265.601 223.504C263.61 221.157 258.522 221.532 255.552 224.149C254.482 225.091 251.309 227.983 251.309 227.983C253.416 225.555 252.696 221.128 250.247 219.045V219.045C248.004 217.138 244.649 217.192 242.54 219.247C232.816 228.722 220.77 238.643 213.132 244.659C213.132 244.659 210.433 233.512 208.976 230.114C207.62 226.948 201.128 223.596 199.511 228.96C197.317 236.232 196.068 248.148 194.894 257.182C182.395 266.904 175.712 272.011 162.873 278.166C150.294 269.769 88.5257 224.865 88.5257 224.865C83.0817 234.228 23.3017 348.167 74.5307 365.91C121.795 382.28 177.027 353.496 223.613 312.482C251.571 287.869 264.945 269.245 270.519 262.36C272.53 259.876 276.291 254.264 274.143 250.486" fill="white"/><path id="path 18" fill-rule="evenodd" clip-rule="evenodd" d="M272.603 256.021C271.902 257.774 270.824 259.481 269.609 261.047C266.985 264.318 264.434 267.672 261.771 270.89C256.466 277.362 250.89 283.602 245.085 289.627C239.285 295.657 233.233 301.445 227.018 307.05C220.799 312.655 214.436 318.097 207.872 323.282C194.752 333.646 180.879 343.098 166.119 350.868C151.381 358.601 135.67 364.714 119.308 367.354C111.145 368.678 102.839 369.063 94.6417 368.305C90.5437 367.919 86.4767 367.253 82.4867 366.27C80.4897 365.787 78.5127 365.223 76.5617 364.581C74.5707 363.96 72.7887 363.25 71.0247 362.332C67.5417 360.503 64.5197 357.911 62.2427 354.721C59.9477 351.542 58.3947 347.819 57.4087 343.928C55.4547 336.102 55.5847 327.737 56.5027 319.549C57.4477 311.333 59.2557 303.185 61.4797 295.158C63.7167 287.128 66.3997 279.208 69.3637 271.393C72.3317 263.579 75.5867 255.865 79.0657 248.254C80.8067 244.451 82.6037 240.671 84.4627 236.925C85.9887 233.866 87.5577 230.785 89.1817 227.811L124.411 253.305L142.998 266.646C148.295 270.416 153.568 274.184 158.945 277.893C156.218 279.155 153.369 280.331 150.552 281.49C146.578 283.1 142.571 284.655 138.556 286.191C130.52 289.248 122.437 292.222 114.339 295.118C113.598 295.383 113.196 296.196 113.446 296.946C113.7 297.706 114.522 298.117 115.282 297.863C123.469 295.13 131.619 292.326 139.751 289.429C143.815 287.972 147.873 286.497 151.917 284.957C155.968 283.383 159.973 281.86 164.028 279.864C164.038 279.859 164.057 279.85 164.066 279.845C164.157 279.797 164.237 279.739 164.317 279.68C169.948 276.963 175.47 273.874 180.645 270.316C186.011 266.653 191.064 262.681 196.121 258.762C196.52 258.451 196.807 257.983 196.876 257.441C197.474 252.781 198.055 248.151 198.729 243.556C199.42 238.977 200.162 234.377 201.389 230.082C201.556 229.471 201.66 229.197 201.818 228.917C201.971 228.655 202.123 228.517 202.263 228.414C202.413 228.325 202.603 228.256 202.891 228.237C203.179 228.224 203.544 228.278 203.924 228.394C204.69 228.625 205.511 229.107 206.151 229.693C206.471 229.984 206.751 230.303 206.944 230.602C206.981 230.674 207.04 230.75 207.065 230.815L207.118 230.917L207.19 231.093C207.286 231.33 207.385 231.559 207.478 231.825C208.23 233.893 208.837 236.164 209.449 238.387C210.051 240.624 210.629 242.885 211.177 245.132C211.244 245.401 211.37 245.674 211.553 245.905C212.24 246.777 213.503 246.926 214.374 246.239C221.896 240.307 229.253 234.184 236.393 227.774C238.172 226.165 239.942 224.544 241.686 222.89L242.99 221.644L243.641 221.019L243.965 220.708L244.179 220.521C244.762 220.046 245.492 219.746 246.266 219.714C247.035 219.669 247.823 219.868 248.472 220.285C248.806 220.492 249.09 220.733 249.336 221.039C249.594 221.333 249.817 221.692 249.992 222.083C250.741 223.631 250.647 225.7 249.764 226.644C249.66 226.755 249.576 226.877 249.501 227.005C248.624 227.999 247.686 228.992 246.738 229.973C245.687 231.059 244.618 232.137 243.539 233.209C241.384 235.352 239.192 237.478 236.992 239.576L236.984 239.584C236.425 240.119 236.374 241.003 236.881 241.601C237.408 242.221 238.338 242.296 238.958 241.77C241.3 239.781 243.615 237.78 245.916 235.742C247.066 234.723 248.21 233.695 249.347 232.648C250.384 231.69 251.412 230.722 252.435 229.69C252.498 229.644 252.564 229.604 252.623 229.55L252.684 229.496L255.566 226.886L256.982 225.611C257.347 225.299 257.765 225.024 258.216 224.795C259.116 224.333 260.152 224.051 261.152 223.993C262.145 223.926 263.125 224.125 263.679 224.5C263.821 224.59 263.933 224.688 264.021 224.79C264.134 224.928 264.324 225.163 264.452 225.35C264.728 225.751 264.932 226.172 265.092 226.6C265.382 227.461 265.41 228.366 265.171 229.269C264.912 230.186 264.451 231.013 263.699 231.851L261.181 234.901C261.144 234.947 261.117 234.998 261.084 235.045C258.457 237.849 255.666 240.616 252.898 243.366L244.256 251.815L244.239 251.832C243.645 252.415 243.612 253.369 244.178 253.991C244.756 254.627 245.741 254.674 246.378 254.096L255.354 245.94C258.293 243.224 261.219 240.535 264.103 237.667C264.124 237.648 264.149 237.633 264.17 237.612L264.177 237.606C264.771 237.008 265.433 236.523 266.088 236.226C266.749 235.946 267.364 235.858 267.913 235.983C268.465 236.09 269.014 236.442 269.54 236.977C269.944 237.396 270.213 237.963 270.318 238.679C270.431 239.379 270.366 240.174 270.147 240.934C269.936 241.712 269.579 242.383 269.048 243.201C268.049 244.727 266.745 246.258 265.438 247.599C265.403 247.633 265.363 247.66 265.33 247.697L265.316 247.712L254.757 259.307L254.749 259.316C254.191 259.93 254.205 260.88 254.794 261.478C255.404 262.097 256.401 262.105 257.02 261.495L268.03 250.65C268.069 250.616 268.112 250.588 268.149 250.551C268.166 250.535 268.181 250.517 268.197 250.5L268.198 250.501C268.463 250.216 268.754 250.022 269.107 249.874C269.459 249.732 269.893 249.648 270.36 249.696C270.825 249.74 271.316 249.89 271.754 250.153C272.19 250.419 272.554 250.8 272.816 251.24C273.538 252.446 273.304 254.28 272.603 256.021M275.467 249.733C275.007 248.912 274.384 248.188 273.653 247.591C273.07 247.109 272.402 246.713 271.671 246.435C271.919 246.092 272.168 245.75 272.408 245.389C273.022 244.461 273.677 243.274 274.011 242.027C274.365 240.782 274.5 239.443 274.293 238.077C274.105 236.727 273.502 235.286 272.449 234.196C271.532 233.24 270.273 232.357 268.764 232.044C268.655 232.019 268.545 232.005 268.436 231.987C268.697 231.454 268.929 230.901 269.084 230.322C269.295 229.51 269.402 228.661 269.388 227.803C269.356 226.946 269.197 226.096 268.933 225.288C268.646 224.49 268.269 223.736 267.807 223.061C267.565 222.713 267.349 222.435 267.044 222.075C266.701 221.689 266.31 221.363 265.903 221.1C264.249 220.047 262.512 219.855 260.923 219.929C259.32 220.025 257.788 220.443 256.364 221.164C255.673 221.515 255.011 221.946 254.397 222.459C254.251 221.739 254.025 221.036 253.711 220.362C253.1 218.993 252.02 217.656 250.643 216.814C249.278 215.952 247.645 215.539 246.036 215.633C244.424 215.709 242.83 216.339 241.574 217.377L241.118 217.783L240.798 218.091L240.161 218.707L238.881 219.932C237.169 221.562 235.425 223.164 233.67 224.755C227.399 230.405 220.915 235.848 214.314 241.133C213.412 237.588 212.47 234.074 211.262 230.461C211.168 230.173 211.045 229.861 210.926 229.554L210.837 229.324L210.701 229.029C210.61 228.826 210.503 228.658 210.401 228.473C209.975 227.778 209.48 227.208 208.949 226.699C207.879 225.694 206.662 224.917 205.201 224.424C204.469 224.185 203.669 224.02 202.786 224.033C201.906 224.049 200.929 224.274 200.07 224.783C198.313 225.804 197.593 227.789 197.326 228.912C196.027 233.63 195.329 238.303 194.665 242.975C194.051 247.37 193.567 251.758 193.01 256.113C188.179 259.861 183.373 263.612 178.395 267.009C173.517 270.362 168.373 273.25 163.035 275.851C157.108 271.801 151.208 267.58 145.322 263.39L126.749 250.06L89.6997 223.249L89.6767 223.231C89.6177 223.189 89.5567 223.15 89.4927 223.114C88.5407 222.575 87.3327 222.91 86.7947 223.861C84.6647 227.625 82.7817 231.359 80.8907 235.156C79.0167 238.944 77.2067 242.762 75.4547 246.605C71.9507 254.293 68.6727 262.087 65.6807 269.999C62.6917 277.91 59.9817 285.938 57.7167 294.114C55.4627 302.289 53.6217 310.614 52.6537 319.112C52.1757 323.36 51.9157 327.65 52.0247 331.965C52.1337 336.275 52.5977 340.621 53.6857 344.877C54.7677 349.123 56.4977 353.305 59.1367 356.956C61.7497 360.614 65.2847 363.634 69.2517 365.704C71.2167 366.733 73.3597 367.57 75.3837 368.196C77.4277 368.866 79.4977 369.453 81.5877 369.956C85.7647 370.979 90.0177 371.669 94.2917 372.067C102.847 372.847 111.474 372.429 119.903 371.052C136.803 368.3 152.85 362.008 167.834 354.125C182.839 346.201 196.87 336.609 210.117 326.118C223.364 315.612 235.848 304.182 247.49 291.926C253.3 285.79 258.878 279.426 264.173 272.841L272.019 262.926C273.372 261.172 274.576 259.297 275.441 257.142C275.863 256.062 276.2 254.903 276.289 253.632C276.383 252.375 276.169 250.954 275.467 249.733" fill="#141414"/></g><g id="neck"><path id="SKIN_3" fill-rule="evenodd" clip-rule="evenodd" d="M241.062 34C241.062 34 240.975 69.356 240.975 87.263C240.975 100.44 215.821 97.81 196 103.187C207.482 123.075 230.617 141.046 269.005 141.049H269.023C307.411 141.046 330.388 126.865 341.869 106.977C321.733 99.262 297.053 100.44 297.053 87.263C297.053 69.356 296.966 34 296.966 34H241.062Z" fill="white"/><path id="path 20" fill-rule="evenodd" clip-rule="evenodd" d="M296.962 32.0001C298.017 31.9975 298.882 32.8112 298.961 33.8459L298.984 41.3075L299.054 86.1883L299.054 87.2631C299.054 92.7776 303.989 95.4269 318.346 98.6634L325.642 100.278L326.962 100.578C329.104 101.071 330.966 101.526 332.769 102.002C336.387 102.959 339.599 103.965 342.586 105.109C343.734 105.549 344.217 106.912 343.602 107.977C330.807 130.141 305.998 142.792 270.115 143.045L269.006 143.049C233.807 143.046 208.077 128.104 194.269 104.187C193.613 103.05 194.211 101.6 195.478 101.257C198.513 100.433 201.788 99.7557 205.592 99.1309L206.415 98.9977C207.786 98.7793 209.212 98.5686 210.84 98.3409L217.9 97.3827C233.801 95.1562 238.976 92.9251 238.976 87.2631L239.023 52.3L239.063 33.9951C239.066 32.8906 239.964 31.9973 241.068 32.0001C242.173 32.0028 243.066 32.9004 243.063 34.005L242.977 83.8997L242.976 87.2631C242.976 92.193 240.121 95.5628 234.864 97.7475L234.518 97.8883C230.781 99.3756 226.645 100.213 218.547 101.333L212.008 102.217L210.228 102.468C209.093 102.631 208.052 102.787 207.044 102.948C204.359 103.375 201.955 103.824 199.733 104.324L199.107 104.467L199.359 104.868C212.656 125.761 236.096 138.773 267.996 139.045L269.024 139.049C302.739 139.046 326.051 127.986 338.623 108.462L338.899 108.024L338.228 107.795C336.467 107.203 334.606 106.643 332.61 106.101L331.746 105.869L330.682 105.592C329.069 105.179 327.367 104.772 325.421 104.329L317.968 102.678C310.162 100.937 305.869 99.6774 302.323 97.8183C297.592 95.3378 295.054 91.9296 295.054 87.2631L295.004 50.7027L294.967 34.005C294.964 32.9004 295.858 32.0028 296.962 32.0001Z" fill="#141414"/></g></g></g><g id="Head" transform="translate(439 92) scale(1 1)"><g id="Head/Plain Hair"><path id="SKIN" fill-rule="evenodd" clip-rule="evenodd" d="M157.837 107.187C157.437 100.319 153.857 97.2413 150.161 97.0853C149.836 94.9583 149.483 92.8303 149.083 90.7003C139.153 38.0093 106.305 30.9203 78.8369 37.7423C60.6489 42.2583 36.0879 55.0433 41.1669 102.786C30.2109 100.058 25.0799 106.064 25.4579 114.462C25.7979 122.002 31.4799 127.501 42.6549 128.1C45.9089 153.668 69.8449 193.4 116.132 184.305C143.146 178.997 153.241 149.953 152.015 116.364C157.006 115.528 158.089 111.493 157.837 107.187" fill="white"/><path id="Combined Shape" fill-rule="evenodd" clip-rule="evenodd" d="M151.091 99.3922C151.732 104.172 152.191 109.032 152.441 113.882C154.002 112.632 154.601 110.592 154.402 107.222C154.032 100.952 152.412 99.6622 151.091 99.3922ZM70.0613 173.492C82.6813 182.592 97.5723 185.552 114.301 182.262C135.912 178.012 157.091 151.562 145.671 90.9922C144.431 84.4022 142.801 78.4022 140.792 73.0022C137.872 66.8122 134.551 64.1222 130.551 62.6112C126.189 60.9673 124.176 62.4984 121.069 64.861C118.187 67.0529 114.364 69.9604 106.851 71.7122C98.7859 73.5906 93.7679 71.4836 88.4579 69.254C83.959 67.3649 79.2505 65.3878 72.3013 65.6722C58.5066 66.2411 55.2666 77.4857 52.3563 87.5858C50.9185 92.5757 49.5612 97.2863 47.0513 100.292C44.9123 102.842 43.0023 103.856 41.1153 104.547C40.5883 104.74 39.7923 104.782 39.2423 104.642C37.6223 104.242 36.1223 104.042 34.7523 104.042C32.4023 104.042 30.4523 104.632 29.0113 105.812C26.9123 107.532 25.8513 110.542 26.0113 114.292C26.3323 121.242 31.9123 125.512 41.3223 126.022C42.2823 126.072 43.0723 126.802 43.2023 127.762C44.9023 141.142 52.9623 161.142 70.0613 173.492ZM150.492 95.3422C157.712 95.6222 158.232 104.152 158.391 106.992C158.611 110.692 158.271 115.882 152.822 118.292C152.752 118.322 152.671 118.342 152.591 118.361C153.261 150.152 143.941 180.512 115.082 186.182C110.381 187.111 105.822 187.572 101.402 187.572C89.0023 187.572 77.7123 183.942 67.7213 176.732C57.0623 169.039 49.7323 158.549 45.1193 148.328C43.2313 148.106 38.9893 145.383 32.8263 128.716C32.8058 128.661 32.7868 128.605 32.7678 128.549C32.7488 128.492 32.7298 128.436 32.7093 128.381C26.1863 125.971 22.3203 121.1 22.0213 114.472C21.7923 109.432 23.3723 105.262 26.4713 102.722C26.5118 102.689 26.5557 102.657 26.5994 102.624C26.6303 102.602 26.661 102.579 26.6903 102.556C24.5013 86.5072 22.2023 66.8302 27.1453 52.2252C34.0113 31.9382 49.9623 16.0222 69.8413 13.7922C135.641 6.39219 152.702 52.5722 151.982 79.8122C151.907 82.5526 151.427 86.4117 151.028 89.618C150.681 92.4138 150.395 94.7134 150.492 95.3422ZM33.3839 112.884C33.3839 110.668 34.4059 108.871 35.6679 108.871C36.9309 108.871 37.9529 110.668 37.9529 112.884C37.9529 115.1 36.9309 116.897 35.6679 116.897C34.4059 116.897 33.3839 115.1 33.3839 112.884Z" fill="#141414"/></g></g><g id="Face" transform="translate(499 178) scale(1 1)"><g id="Face/Happy Teeth"><path id="happy" fill-rule="evenodd" clip-rule="evenodd" d="M22.0073 16.1298C21.2611 16.03 20.5134 15.93 19.7634 15.946C17.7104 15.896 15.8084 16.321 13.8334 16.983C12.4564 17.451 11.3764 15.585 12.4114 14.616C15.1454 11.727 19.4234 10.675 23.2934 11.086C25.6994 10.977 29.5814 14.227 26.1914 15.923C24.7997 16.5034 23.4063 16.317 22.0073 16.1298ZM62.1316 28.901C65.8716 26.102 71.0336 26.767 74.5036 29.366C76.3106 30.622 74.4186 33.473 72.5656 32.328C71.2706 31.551 69.8196 31.109 68.4416 31.133C67.3189 30.9731 66.3557 31.5613 65.4444 32.1178C64.2119 32.8704 63.0742 33.5652 61.7646 32.274C60.8406 31.285 61.0226 29.67 62.1316 28.901ZM50.972 39.9271C63.513 44.9991 58.198 58.2721 45.571 53.1821C43.602 51.5601 45.875 49.8141 47.75 50.6141L47.9028 50.6233L48.0142 50.6302C50.409 50.7781 55.1459 51.0708 54.046 47.4831C53.6944 46.0007 52.2187 45.1294 50.7351 44.2535C49.2482 43.3757 47.7534 42.4932 47.374 40.9861C46.543 38.9921 45.668 27.3381 48.466 27.5051C49.058 27.5951 49.477 28.1211 49.447 28.7061C49.4474 29.1003 49.4452 29.4998 49.4429 29.9031C49.4237 33.3028 49.4031 36.9654 50.972 39.9271ZM32.1852 34.1042C32.8422 34.4982 33.7062 34.4282 34.2982 33.8822C36.7002 30.5912 29.0312 27.0892 26.1792 27.3372C22.9342 26.7482 12.4212 31.8242 14.8212 35.6072C15.4982 36.3332 16.6452 36.3592 17.3572 35.6662C19.4462 33.7012 21.8632 32.1702 24.6752 31.8182C27.5382 31.3312 29.6352 32.5622 32.1852 34.1042ZM77.2292 16.3435C73.1682 12.7715 67.0922 10.5375 61.8292 12.9185C60.3132 13.5675 60.6732 16.0275 62.3572 16.1655C63.4751 16.2892 64.5859 16.3152 65.6902 16.341C67.9772 16.3945 70.2363 16.4473 72.4732 17.3665L75.9492 18.6135C77.2762 19.1385 78.3892 17.2305 77.2292 16.3435ZM46.4511 65.3132C44.6891 65.2012 42.9131 65.0152 41.1951 64.7702C41.1171 66.2652 41.1151 67.8362 41.4401 69.2822C43.3725 69.5861 45.3739 69.4425 47.3318 69.3019C47.4287 69.295 47.5254 69.288 47.6221 69.2812C46.6373 68.1783 46.5514 66.856 46.4643 65.5146C46.4599 65.4475 46.4556 65.3803 46.4511 65.3132ZM49.4221 65.4443C49.5687 66.6128 49.7409 67.9857 49.0491 68.9752C49.0248 69.0223 48.9908 69.0588 48.9565 69.0955C48.9429 69.1101 48.9292 69.1248 48.9161 69.1402C49.3214 69.0874 49.7493 69.0407 50.1872 68.9929C51.7511 68.822 53.4429 68.6373 54.6921 68.1162C55.1486 67.4498 55.0629 66.3083 54.9938 65.3889C54.9898 65.3355 54.9859 65.2829 54.9821 65.2312C53.2821 65.3592 51.3401 65.4542 49.4201 65.4282L49.4221 65.4443ZM66.2871 59.6602C66.6831 59.1322 67.3751 58.8652 68.0241 59.0022C69.3891 59.3022 69.7971 60.5432 69.4141 61.5862C69.0501 70.9412 62.7521 80.6062 45.9841 80.6062C37.4081 80.6062 28.1781 74.3822 28.1781 60.7182C28.0561 59.6192 28.3241 58.2482 29.6121 58.0462C37.5791 61.9012 55.8621 63.5012 66.2871 59.6602Z" fill="#141414"/></g></g><g id="Accessories" transform="translate(491 176) scale(103 60)"><g id="Accessories/None" stroke="none" stroke-width="1" fill="none" fill-rule="evenodd" fill-opacity="0"/></g><g id="Facial Hair" transform="translate(501 234) scale(90 60)"><g id="Facial Hair/None" stroke="none" stroke-width="1" fill="none" fill-rule="evenodd" fill-opacity="0"/></g></g></g></g></svg>