<svg viewBox="120 -80 3039.999999999999 2159.999999999999" xmlns="http://www.w3.org/2000/svg" overflow="visible" xmlns:xlink="http://www.w3.org/1999/xlink" width="3039.999999999999px" height="2159.999999999999px"><g id="Master/Scenes/Freelancing" stroke="none" stroke-width="1" fill="none" fill-rule="evenodd"><g id="Background" transform="translate(0.000000, -177.000000)"><g id="Flying Objects" opacity=".5" transform="translate(2014.000000, 215.000000) scale(1 1)"><g id="Flying Objects/Cloud 1" stroke="none" stroke-width="1" fill="none" fill-rule="evenodd"><path d="M479.95575,473.895048 C489.613069,459.137123 499.099888,436.733126 487.997876,423.547909 C481.436886,415.755283 470.330969,416.37302 462.370839,421.934228 C454.409408,427.495437 448.858402,436.870226 443.55859,445.96136 C452.064059,424.955151 460.742631,403.137375 461.346539,379.753193 C461.950447,356.369012 452.155166,330.873179 433.86613,323.327963 C414.905507,315.50382 394.716245,328.774134 378.352165,342.761464 C343.415317,372.620853 311.811676,408.189581 284.665759,448.195929 C286.38117,435.63948 288.09658,422.759979 286.097437,410.263412 C284.098294,397.765269 277.573747,385.527143 267.572825,381.604829 C257.656503,377.714031 246.935838,382.62441 237.627328,388.303808 C205.588977,407.842892 177.856072,437.617184 158,473.792617 C160.945352,473.792617 156.578734,478.669903 159.524086,478.669903 L479.95575,473.895048 Z" id="cloud" fill="#F0F1FF" transform="translate(325.500000, 399.834951) scale(-1, 1) translate(-325.500000, -399.834951)"/></g></g><g id="Phone" transform="translate(1218.000000, 483.000000) scale(1 1)"><g id="Phone/Screen 1" stroke="none" stroke-width="1" fill="none" fill-rule="evenodd"><g id="Group-19"><path d="M855.432,1748.85552 L106.6968,1748.85552 C47.7696,1748.85552 0,1701.08592 0,1642.15872 L0,106.69632 C0,47.76912 47.7696,-0.000479999997 106.6968,-0.000479999997 L855.432,-0.000479999997 C914.3592,-0.000479999997 962.1288,47.76912 962.1288,106.69632 L962.1288,1642.15872 C962.1288,1701.08592 914.3592,1748.85552 855.432,1748.85552 Z" id="Stroke-1" fill="#090E2B"/><path d="M827.33976,71.99976 L714.03336,71.99976 L714.03336,101.26056 C714.03336,141.15336 681.69336,173.49576 641.79816,173.49576 L320.33016,173.49576 C280.43496,173.49576 248.09256,141.15336 248.09256,101.25816 L248.09256,71.99976 L134.79096,71.99976 C100.11096,71.99976 71.99736,100.11096 71.99736,134.79096 L71.99736,1614.06456 C71.99736,1648.74456 100.11096,1676.85576 134.79096,1676.85576 L827.33736,1676.85576 C862.01736,1676.85576 890.12856,1648.74456 890.12856,1614.06456 L890.12856,134.79096 C890.12856,100.11096 862.01736,71.99976 827.33976,71.99976 Z" id="Stroke-3" fill="#FFF"/><path d="M280.88976,1317.76248 L190.76016,1317.76248 C169.25616,1317.76248 151.82496,1300.33128 151.82496,1278.82728 L151.82496,1188.69768 C151.82496,1167.19368 169.25616,1149.76248 190.76016,1149.76248 L280.88976,1149.76248 C302.39376,1149.76248 319.82496,1167.19368 319.82496,1188.69768 L319.82496,1278.82728 C319.82496,1300.33128 302.39376,1317.76248 280.88976,1317.76248 Z" id="Stroke-13" stroke="#C7D2F2" stroke-width="5" stroke-linecap="round" stroke-linejoin="round" stroke-dasharray="10,12"/></g><path d="M281.0648,1318 L190.9352,1318 C169.4312,1318 152,1300.5688 152,1279.0648 L152,1188.9352 C152,1167.4312 169.4312,1150 190.9352,1150 L281.0648,1150 C302.5688,1150 320,1167.4312 320,1188.9352 L320,1279.0648 C320,1300.5688 302.5688,1318 281.0648,1318 Z" id="Stroke-13-Copy-2" fill="#A191FF"/><path d="M781.741436,802.6768 L191.258564,802.6768 C169.575969,802.6768 152,785.2456 152,763.7416 L152,444.9352 C152,423.4312 169.575969,406 191.258564,406 L781.741436,406 C803.424031,406 821,423.4312 821,444.9352 L821,763.7416 C821,785.2456 803.424031,802.6768 781.741436,802.6768 Z" id="Stroke-5-Copy" fill="#FFB201"/><path d="M281.0648,1069 L190.9352,1069 C169.4312,1069 152,1051.5664 152,1030.0648 L152,939.9352 C152,918.4312 169.4312,901 190.9352,901 L281.0648,901 C302.5688,901 320,918.4312 320,939.9352 L320,1030.0648 C320,1051.5664 302.5688,1069 281.0648,1069 Z" id="Stroke-7-Copy" fill="#FF0057"/><rect id="Rectangle" fill="#E7EAFD" x="378" y="901" width="443" height="18" rx="9"/><rect id="Rectangle-Copy-3" fill="#E7EAFD" x="378" y="1162" width="443" height="18" rx="9"/><rect id="Rectangle-Copy" fill="#E7EAFD" x="378" y="965" width="332" height="18" rx="9"/><rect id="Rectangle-Copy-4" fill="#E7EAFD" x="378" y="1226" width="332" height="18" rx="9"/><rect id="Rectangle-Copy-2" fill="#E7EAFD" x="378" y="1029" width="257" height="18" rx="9"/><rect id="Rectangle-Copy-5" fill="#E7EAFD" x="378" y="1290" width="257" height="18" rx="9"/></g></g><path d="M2776.5,2228 C2778.433,2228 2780,2229.567 2780,2231.5 C2780,2233.36856 2778.53572,2234.89513 2776.69204,2234.99482 L2776.5,2235 L130.5,2235 C128.567003,2235 127,2233.433 127,2231.5 C127,2229.63144 128.464278,2228.10487 130.307965,2228.00518 L130.5,2228 L2776.5,2228 Z" id="Floor" fill="#090E2B" fill-rule="nonzero"/><g id="Outdoor Plants" transform="translate(2401.000000, 1267.000000) scale(1 1)"><g id="Outdoor Plants/Trees" stroke="none" stroke-width="1" fill="none" fill-rule="evenodd"><g id="Group" transform="translate(50.000000, 27.000000)"><path d="M246.327941,707.554023 C202.725234,648.694159 266.995654,634.469818 237.177083,579.041474 C201.045875,511.877502 252.889207,525.364984 230.558991,457.77841 C212.889507,404.298257 182.034281,401.995081 179.286724,325.770544 C176.543382,249.546006 39.2582753,245.25238 68.925141,351.777408 C98.5962208,458.302435 22.2672523,432.071593 35.6974086,509.466735 C53.6492336,612.915227 -18.38566,571.479753 4.55980649,651.097777 C24.0792556,718.828035 -59.1552187,832.362634 138.705486,859 C314.797719,849.998599 289.934862,766.418112 246.327941,707.554023 Z" id="Fill-1" fill="#009BA0"/><path d="M95,585 C95,585 102.269883,617.395249 137,651" id="Stroke-5" stroke="#090E2B" stroke-width="9.107" stroke-linecap="round" stroke-linejoin="round"/><path d="M63,713 C63,713 75.8067111,744.89889 137,778" id="Stroke-7" stroke="#090E2B" stroke-width="9.107" stroke-linecap="round" stroke-linejoin="round"/><path d="M199,637 C199,637 190.990083,687.972701 137,725" id="Stroke-9" stroke="#090E2B" stroke-width="9.107" stroke-linecap="round" stroke-linejoin="round"/><path d="M608.603445,473.480495 C570.590587,379.998182 626.937388,314.013535 549.627883,136.939688 C472.318378,-40.1341592 367.026875,-40.7590157 351.056381,107.78507 C335.090104,256.329155 210.936686,350.641456 268.195115,484.721371 C324.468099,616.493705 207.88992,647.351714 245.711222,745.061987 C293.787219,869.262883 452.912681,874 452.912681,874 C626.199908,874 654.358401,816.786582 667.882995,767.076651 C703.354583,636.700085 625.009296,513.826235 608.603445,473.480495 Z" id="Fill-11" fill="#FFB201"/><path d="M535,314 C535,314 520.978644,385.165722 454,459" id="Stroke-15" stroke="#090E2B" stroke-width="9.107" stroke-linecap="round" stroke-linejoin="round"/><path d="M560,611 C560,611 541.481013,682.167801 453,756" id="Stroke-17" stroke="#090E2B" stroke-width="9.107" stroke-linecap="round" stroke-linejoin="round"/><path d="M365,465 C365,465 376.498556,549.574282 454,611" id="Stroke-19" stroke="#090E2B" stroke-width="9.107" stroke-linecap="round" stroke-linejoin="round"/><line x1="136" y1="938" x2="136" y2="511" id="Stroke-3" stroke="#090E2B" stroke-width="9.107" stroke-linecap="round" stroke-linejoin="round"/><line x1="453" y1="932" x2="453" y2="226" id="Stroke-13" stroke="#090E2B" stroke-width="9.107" stroke-linecap="round" stroke-linejoin="round"/></g></g></g><g id="Outdoor Plants" transform="translate(2106.000000, 1267.000000) scale(1 1)"><g id="Outdoor Plants/Plant 1" stroke="none" stroke-width="1" fill="none" fill-rule="evenodd"><g id="Group-6" transform="translate(3.000000, 208.000000)"><path d="M199.883326,757 C199.883326,757 154.639614,615.704437 63.7021884,486.352218 C-27.2352371,357 -13.9695544,268.907181 63.7021884,246.214912 C141.373931,223.522642 267.592553,290.509829 306.646043,382.031679 C331.898655,441.210897 374.804123,628.371706 268.960535,757 C238.721051,756.165996 199.883326,757 199.883326,757 Z" id="Stroke-8" fill="#017C7F"/><path d="M180.80074,266.460237 C125.13078,13.4204746 221.50036,-21.2992546 328.620701,9.33958092 C435.741041,39.9784164 507.960342,173.305169 491.620701,300.677192 C466.681525,495.084959 320.447913,757 320.447913,757 L236.4707,757 C236.4707,598.666667 217.914047,435.153412 180.80074,266.460237 Z" id="Stroke-10" fill="#009BA0"/><path d="M299.869545,92.3392506 C301.326008,91.6825172 303.029928,92.2842179 303.76044,93.6823222 L303.857175,93.8846724 L304.316098,94.9397143 L304.887232,96.295742 C305.10977,96.8312409 305.345953,97.4073406 305.595259,98.0239333 L305.978996,98.9791786 C307.658678,103.18678 309.527498,108.198532 311.537907,114.004614 C317.270818,130.561319 322.999418,150.177346 328.343248,172.774008 C340.981111,226.213867 349.496836,287.717379 351.998041,356.891597 C354.239813,418.890863 350.075029,478.447706 339.405709,544.65636 L339.021897,547.023799 C329.749389,603.877937 316.614263,662.450624 292.750418,757.276586 C292.346063,758.883341 290.715735,759.858079 289.10898,759.453724 C287.502225,759.049369 286.527487,757.419042 286.931842,755.812287 L289.047362,747.388625 C311.539988,657.63471 324.138912,601.00352 333.100137,546.058001 C343.991922,479.275307 348.255457,419.431969 346.001959,357.108403 C343.515192,288.333464 335.05336,227.219184 322.504303,174.154847 L321.81134,171.250364 C316.714465,150.074656 311.289348,131.624212 305.868175,115.96781 L305.247809,114.188627 C303.503926,109.222351 301.87886,104.891689 300.406603,101.203688 L299.855033,99.8349225 C299.678602,99.4014064 299.50967,98.9906447 299.348457,98.6026828 L298.799647,97.2995385 L298.367875,96.3072458 C297.686818,94.7968393 298.359139,93.0203074 299.869545,92.3392506 Z" id="Path-6" fill="#090E2B" fill-rule="nonzero"/><path d="M589.575739,282.556489 C750.420208,274.363901 760.643075,407.886816 739.778496,462.864438 C715.162837,527.72606 641.307604,570.960237 582.304218,596.642758 C443.495397,657.062349 408.155852,757 408.155852,757 L286.620701,757 C286.620701,757 309.812449,296.806189 589.575739,282.556489 Z" id="Stroke-12" fill="#FFB201"/><path d="M613.533995,384.77167 C615.068698,384.147289 616.818982,384.88525 617.443363,386.419953 C618.067745,387.954656 617.329784,389.70494 615.795081,390.329322 C475.369379,447.460406 387.980539,569.583887 353.571426,757.085934 C353.272365,758.715574 351.708844,759.794222 350.079203,759.495162 C348.449563,759.196101 347.370914,757.63258 347.669975,756.002939 C382.426899,566.605602 471.067283,442.733123 613.533995,384.77167 Z" id="Path-3" fill="#090E2B" fill-rule="nonzero"/></g></g></g><g id="Flying Objects" opacity=".5" transform="translate(905.000000, 400.000000) scale(-1, 1) translate(-905.000000, -400.000000) translate(555.000000, 0.000000) scale(1 1)"><g id="Flying Objects/Balloon Red" stroke="none" stroke-width="1" fill="none" fill-rule="evenodd"><g id="Group" transform="translate(246.000000, 137.000000)"><path d="M149.733462,285.734603 C157.805348,279.54733 124.836431,253.662324 120.161114,258.629066 C117.939588,260.988931 139.248923,293.771476 149.733462,285.734603 M86.1666056,282.995283 C95.1123205,293.59321 106.764338,273.462252 111.037176,264.277843 C122.832311,238.928805 77.2415824,272.420712 86.1666056,282.995283 M100.300795,579.794123 C92.0143674,575.010056 138.47669,513.857006 113.251575,477.770702 C110.299901,473.549007 118.940081,466.496386 119.230848,457.799105 C122.459484,441.684398 125.355937,423.424182 117.251562,408.33457 C98.7960546,418.451213 96.7555088,377.803537 116.173912,389.75894 C131.761439,356.831108 126.97198,307.088419 116.68901,272.649372 C97.7270329,309.677586 58.363049,290.166113 92.3663939,257.726132 C103.469034,247.691809 120.600991,248.016755 133.151426,255.333665 C154.493896,267.775187 162.517167,288.762347 155.549975,294.360078 C151.134976,297.906753 138.799381,299.036697 125.022892,277.928224 C130.927102,301.145811 132.951254,326.066115 132.506044,354.691665 C132.278262,369.406074 126.249808,390.345575 123.180793,395.783 C131.333485,416.680909 132.47412,453.698724 122.446541,472.666022 C149.246285,504.684006 108.587223,584.579057 100.300795,579.794123" id="Fill-1" fill="#090E2B"/><path d="M208.173357,132.995103 C205.463986,196.578147 148.224495,284.469563 73.1038794,237.934573 C24.2441433,207.668031 -3.509826,160.19487 0.357108028,106.142496 C11.5397013,-50.1285311 223.8484,-27.6724767 208.173357,132.995103" id="Path" fill="#FF0057"/><path d="M38.113339,128.891654 C42.1480359,113.398009 14.6564956,114.349394 17.9793987,128.621374 C18.3868228,141.021815 37.9599558,143.299374 38.113339,128.891654" id="Path" fill="#FFF"/><path d="M122.516035,121.066751 C123.097213,103.445703 108.90088,102.103914 101.279652,108.245874 C93.6596235,114.387834 92.6135022,128.013544 106.566579,130.866499 C117.298609,133.05997 122.220053,129.993194 122.516035,121.066751" id="Path" fill="#FFF"/><path d="M182.391799,126.08795 C198.758265,129.058627 205.424442,100.655213 186.887844,100.801765 C170.959958,101.26064 163.25485,123.261423 182.391799,126.08795" id="Path" fill="#FFF"/><path d="M63.3640468,190.825389 C90.2863916,194.985297 71.7617764,151.393355 55.2754801,164.649082 C47.9490361,173.159896 50.3744078,190.537091 63.3640468,190.825389" id="Path" fill="#FFF"/><path d="M135.750103,208.918174 C148.077079,215.362847 164.275043,204.550403 167.03213,193.218717 C169.123779,184.621999 164.185638,165.408212 145.472765,174.065297 C127.282055,182.480815 122.382346,196.421621 135.750103,208.918174 Z" id="Path" fill="#FFF"/><path d="M40.1252951,61.6784509 C36.0198981,85.6264503 76.1559652,93.026113 76.6089249,68.5195352 C78.620881,38.3611046 45.0778945,31.228118 40.1252951,61.6784509" id="Path" fill="#FFF"/><path d="M129.137874,44.035781 C126.699321,78.140298 170.660382,77.4387715 171.871869,50.7219048 C173.68251,28.3571449 132.615359,16.8984789 129.137874,44.035781" id="Path" fill="#FFF"/></g></g></g></g><g id="Chair" transform="translate(666.000000, 1259.000000) scale(1 1)"><g id="Chair/Stool" stroke="none" stroke-width="1" fill="none" fill-rule="evenodd"><g id="Group" transform="translate(249.000000, 425.000000)" fill="#8E2420"><path d="M32,0.639462324 L21.361,173.639462 L181.639,173.639462 L171,0.639462324 L189,0.639462324 L195.476,173.639462 L196,173.639462 L196,186.639462 L195.963,186.639462 L203,374.639462 L194,374.639462 L182.439,186.639462 L20.561,186.639462 L9,374.639462 L0,374.639462 L14,0.639462324 L32,0.639462324 Z" id="Combined-Shape"/></g><path d="M233.392254,403.051901 L352.708336,399.021055 C353.123705,399.007023 353.539436,399.00738 353.95478,399.022127 L466.638699,403.023039 C476.325148,403.366962 484,411.319151 484,421.011704 L484,430.639462 C484,440.580588 475.941125,448.639462 466,448.639462 L234,448.639462 C224.058875,448.639462 216,440.580588 216,430.639462 L216,421.041638 C216,411.337076 223.693225,403.379563 233.392254,403.051901 Z" id="Rectangle" fill="#FF0057"/></g></g><g transform="translate(501.000000, 557.000000) scale(1 1)" id="Master/Character/Sitting"><g id="Master/Character/Sitting" stroke="none" stroke-width="1" fill="none" fill-rule="evenodd"><g id="Sitting" transform="translate(179.000000, 940.000000) scale(1 1)"><g id="Sitting/On Chair 1" stroke="none" stroke-width="1" fill="none" fill-rule="evenodd"><path d="M410.615323,399.49997 C410.615323,399.49997 400.357969,471.949685 396.171539,502.905682 C391.949971,534.125643 467.0487,503.736716 467.0487,503.736716 C467.0487,503.736716 453.509565,484.44329 453.304761,479.157997 C453.100961,473.870697 476.218696,412 476.218696,412 L410.615323,399.49997 Z" id="Fill-3" fill="#09b9c6"/><path d="M561.035706,7.46069873e-14 C597.897949,16.8477074 635.153618,59.3884812 602.589029,139.128809 C570.024441,218.869137 493.394303,411.87247 481.349448,420.555326 C469.305594,429.239182 405.784608,412 405.784608,412 C405.784608,412 412.732597,330.944505 426.534884,251.242608 C436.641716,192.880271 457.952435,150.325862 457.952435,150.325862 C457.952435,150.325862 286.540837,174.784268 243.98254,146.076381 C188.124727,108.397247 229.480836,6.86053872 261.586066,-5.71064401 C302.858588,-21.8713886 490.854841,-32.0758202 561.035706,7.46069873e-14 Z" id="Fill-5" fill="#090E2B"/><path d="M559.105053,537.550495 C553.718837,520.869499 514.662001,509.852921 486.4598,501.514412 C476.966506,498.70607 463.702961,484.835405 457.545853,485.001479 C448.581857,485.24512 457.367415,503.898122 427.362791,502.274176 C419.4193,501.844571 418.851908,493.484184 401.591555,491.580796 C398.786673,491.272515 394.499152,490.727553 390.796066,497.394383 C388.732001,501.110663 380.282268,534.66359 388.577622,548.345309 C446.664152,549.845942 506.41276,548.363209 558.020392,547.881892 C563.059757,547.834159 560.482433,541.818697 559.105053,537.550495" id="Fill-17" fill="#FF0057"/><path d="M654.970564,412 C654.970564,412 665.530533,466.509706 672.596211,475.377601 C679.662889,484.243493 716.32892,494.221378 717.974942,499.698195 C719.618961,505.175012 639.820958,518 639.820958,518 L591,416.698422 L654.970564,412 Z" id="Fill-1" fill="#09b9c6"/><path d="M790.105053,534.5497 C784.718837,517.869641 745.662001,506.853025 717.4598,498.513492 C707.966506,495.706135 694.702961,481.834427 688.545853,482.001496 C679.581857,482.244144 688.367415,500.898205 658.362791,499.274253 C650.420302,498.844647 649.85291,490.483237 632.591555,488.580837 C629.786673,488.27156 625.499152,487.727591 621.796066,494.393449 C619.732001,498.109742 611.282268,531.662786 619.577622,545.345546 C677.664152,546.846185 737.41276,545.362452 789.020392,544.881134 C794.059757,544.8334 791.482433,538.817918 790.105053,534.5497" id="Fill-10" fill="#FF0057"/><path d="M722.704751,510.429527 C726.392384,503.004274 728.005104,501.713139 726.433049,500.543939 C722.673012,497.748284 703.571309,506.385021 702.069675,511.523009 C700.944937,515.373796 713.664197,504.228541 723.820563,502.565701 C719.658833,506.366337 715.778784,518.019983 719.874061,515.696334 C739.826756,504.381943 742.973841,507.006496 742.998637,506.585624 C743.116665,504.585496 735.565843,502.966906 722.704751,510.429527" id="Fill-15" fill="#FFB201"/><path d="M180.126096,77 C192.090433,138.955221 247.290014,161.21191 295.189049,159.361921 C368.355288,156.536045 442.938988,124.042498 468.151215,113.183029 C465.930109,129.164147 477.804596,220.024734 497.628146,262.074146 C517.451696,304.123559 582.008895,430.623213 582.008895,430.623213 C582.008895,430.623213 654.850327,431.050084 657.965073,413.369038 C660.014248,401.737852 591.630112,76.8494703 569.008895,20.5961921 C556.018259,-11.7082512 513.975789,-25.6487365 427.5,-33 C340.646127,-40.3834042 214.030282,-26.7715765 214.030282,-26.7715765 C214.030282,-26.7715765 168.16176,15.0447792 180.126096,77 Z" id="Fill-7" fill="#001386"/><path d="M491.704751,514.429893 C495.392384,507.004835 497.005104,505.713735 495.432058,504.543583 C491.67202,501.748984 472.571309,510.385493 471.069675,515.522362 C469.944937,519.373048 482.664197,508.228087 492.820563,506.566274 C488.658833,510.36681 484.777792,522.019165 488.874061,519.69656 C508.826756,508.381485 511.973841,511.005969 511.998637,510.585107 C512.116665,508.585032 504.565843,506.966486 491.704751,514.429893" id="Fill-22" fill="#FFB201"/><path d="M546.8316,554.3915 L407.0166,556.8575 C397.6626,557.2315 383.6706,554.0145 382.3176,546.2435 C381.3066,540.4375 383.5546,527.7955 384.0206,526.9545 C387.2776,521.0945 415.0326,526.0385 423.1176,545.8275 C474.1316,549.6495 561.0086,545.9125 561.0086,545.9125 C561.0086,545.9125 562.3126,553.5935 546.8316,554.3915" id="Fill-19" fill="#090E2B"/><path d="M777.7223,550.7851 L637.9073,553.2511 C628.5543,553.6251 614.5613,550.4091 613.2083,542.6381 C612.1983,536.8321 614.4453,524.1901 614.9123,523.3491 C618.1683,517.4891 645.9233,522.4331 654.0083,542.2221 C705.0223,546.0441 791.9003,542.3071 791.9003,542.3071 C791.9003,542.3071 793.2033,549.9881 777.7223,550.7851" id="Fill-12" fill="#090E2B"/></g></g><g id="Upper Body/Sitting" transform="translate(243.000000, 170.000000) scale(1 1.0010526315789474)"><g id="Upper Body/Sitting/Reading Book 1" stroke="none" stroke-width="1" fill="none" fill-rule="evenodd"><path d="M459,586.835192 C459,586.835192 477.747127,576.82565 489.003701,569.661714 C514.007015,553.749045 524.307595,546.820919 526.267274,533.245081 C529.138804,513.380052 537.723397,513.254869 544.72225,513.254869 C548.821578,513.254869 558.433003,509.136852 561.715465,515.820619 C561.558491,521.017212 562.96626,534.245543 560.667637,536.608997 C557.1166,540.260498 526.504749,581.162253 500.905949,610.394851 C484.808536,628.777322 468.591037,639 468.591037,639 C468.591037,639 465.394025,621.611731 459,586.835192 Z" id="Fill-1" fill="#09b9c6"/><path d="M366.211468,542.746682 C371.031929,593.150552 385.461867,610.402764 387.45985,618.355772 C387.45985,618.355772 449.07185,584.537316 475.966956,572.798331 C486.73814,611.410755 492.252755,675.201635 493,678.947349 C486.273793,687.187718 369.516303,724.697377 356.830231,721.845666 C352.717956,720.921265 330.896112,722.636909 324.729337,691.157548 C311.553071,623.897035 315.773638,503.983167 333.202648,480 C333.202648,480 361.391006,492.342812 366.211468,542.746682 Z" id="Fill-3" fill="#FF0057"/><polygon id="Fill-5" fill="#090E2B" points="510.969919 377.281843 454 521.593005 540.179285 528 595 392.763083 565.218314 348 553.78891 384.437785"/><path d="M208.790041,448.406505 C205.996263,461.316702 156,471.803353 156,471.803353 C156,471.803353 252.987464,531.327979 269.715391,527.853615 C300.560547,521.448378 315.341479,490.273832 321,475.480856 C304.182843,471.025212 285.379589,464.806458 274.396404,459.875134 C263.412216,454.94381 268.561741,418.73679 267.890018,400.336817 C245.135624,395.831312 213.128272,387 213.128272,387 C213.128272,387 211.58382,435.496308 208.790041,448.406505 Z" id="Fill-8" fill="#09b9c6"/><path d="M181.312855,464 C181.312855,464 237.839397,505.314096 266.696933,505.992421 C280.837236,506.324091 296.733328,477.513738 299.528993,467.329863 C314.882133,472.44108 329.686323,478.286751 337.082486,483.047236 C342.981778,507.573849 348.969059,563.684059 347.868191,586.968906 C346.814318,609.286716 332.147078,652.366881 333.149958,671.170185 C333.831354,683.959326 334.198135,700.833325 337.779757,735.306821 C338.480609,742.052597 327.186879,767.629873 225,767.629873 C147.18877,767.629873 124.666695,813.744229 102.065692,803.52059 C100.040935,784.647355 145.485481,719.85278 146.65334,701.680849 C147.8202,683.507918 140.963023,650.469768 138.506318,625.831266 C136.050613,601.193763 117.206896,498.743299 121.294796,487.954485 C124.020062,480.761943 144.026082,472.777114 181.312855,464 Z" id="Fill-10" fill="#FF0057"/><path d="M175.618135,899.320199 C181.881797,905.360124 184.925178,908.521854 187.253434,914.186343 C190.482821,922.041542 191.503878,931.882724 192.386906,934.72745 C195.66859,945.305557 184.84095,938.985163 182.010882,931.782454 C176.441172,944.987615 185.329778,971.383957 176.441172,968.826798 C149.999628,961.219228 152.726151,941.884277 150.455222,910.932779 C149.658687,900.080084 114.563877,866.761143 109.173185,856.523524 C106.308877,851.0817 139.841795,817.78872 145.595554,825.023849 C151.348307,832.258979 164.152859,888.260815 175.618135,899.320199 Z" id="Fill-12" fill="#09b9c6"/><path d="M140.304538,476 C140.304538,476 99.4531268,487.045798 88.5149257,532.694102 C77.5767246,578.341406 25.9818326,673.81939 20.5949742,707.479625 C12.0347737,760.963242 24.534572,814.963078 59.8565567,907 C73.8507543,896.869716 145.805583,838.84918 149.972851,823.091516 C133.448204,792.88174 115.75612,738.58778 117.973648,712.329676 C120.191176,686.070571 163.117548,632.607962 165.603867,600.989591 C167.994906,570.569393 159.561796,528.906196 140.304538,476 Z" id="Fill-15" fill="#FF0057"/><path d="M538.847874,508.082556 C546.83495,522.301006 537.403477,521.610412 535.366586,529.293637 C531.371534,544.354152 561.347549,532.697774 561.347549,532.697774 C561.347549,532.697774 562.367004,521.611409 561.857276,517.212738 C560.861037,508.617691 557.74211,498.266763 549.454243,493.233305 C546.36156,491.354851 534.999178,501.231432 538.847874,508.082556" id="Fill-17" fill="#09b9c6"/><path d="M373.720806,642.745385 C373.322387,643.717771 370.094305,651.112734 369.010207,652.989528 C368.650895,653.611569 377.840005,626.345685 386.831465,618.082479 C387.234334,617.713875 386.822144,618.671011 386.558538,619.173284 C382.602454,626.718523 377.072087,634.56623 373.720806,642.745385 Z" id="Fill-19" fill="#090E2B"/><path d="M333.699946,653.074671 C335.443776,640.667987 339.084492,628.614202 341.483124,616.399112 C345.25961,596.044288 344.133504,574.373636 338.999687,555.113462 C338.937372,554.887941 338.261183,552.058616 338.451096,552.001736 C338.641008,551.944857 339.69801,554.658427 339.762304,554.909894 C351.84053,595.67243 344.066983,614.726014 335.865144,653.420936 C334.060623,666.801978 333.883108,683.711695 334.783021,700.5276 C335.034231,705.221763 335.106604,710.350111 335.557059,712.754462 C335.697074,713.501807 335.727046,713.881154 335.656022,713.979165 C335.472973,714.231769 334.661243,712.233456 333.699946,705.459149 C331.461693,689.686073 331.405186,668.457615 333.699946,653.074671 Z" id="Fill-21" fill="#090E2B"/><path d="M166.034626,557.921793 C172.614809,592.820294 162.180462,628.246502 142.079421,656.934218 C141.872859,657.237475 142.110207,656.413494 142.324713,656.063352 C157.692709,630.151834 167.001891,601.606767 165.512263,571.030677 C165.302722,566.722233 164.885626,560.520427 164.40398,556.25787 C164.279844,555.369047 165.898573,556.989078 166.034626,557.921793" id="Fill-23" fill="#090E2B"/><path d="M138.870584,800.49312 C139.916681,803.568288 134.375696,792.007189 131.079256,783.179662 C128.154162,773.278257 123.614607,761.392143 123,752 C128.856671,767.664078 133.460155,784.588303 138.870584,800.49312 Z" id="Fill-25" fill="#090E2B"/><path d="M534.710282,536.510255 C532.454763,529.677208 535.928745,525.430788 540.109478,521.812478 C540.586587,521.400002 541.506201,520.48306 541.94661,520.025084 C542.125919,519.839124 541.813439,520.735293 541.601623,521.126008 C539.867254,524.324918 536.276878,526.326957 535.233529,531.940383 C535.074144,532.795008 535.439053,538.718037 534.710282,536.510255" id="Fill-27" fill="#090E2B"/><polygon id="Fill-29" fill="#FFB201" points="543.342219 354 530 380.50771 587.323352 390 588 389.103302"/></g></g><g id="Head" transform="translate(341.000000, 346.000000) scale(1 1)"><g id="Head/Long Hair Hat Gray" stroke="none" stroke-width="1" fill="none" fill-rule="evenodd"><path d="M70.2561019,97.4988116 C55.8815648,61.6950724 65.0293703,37.9505667 97.6995186,26.2652945 C146.704741,8.73738625 185.296388,17.974116 190.235438,59.3051654 C198.157562,125.599223 94.9177557,158.925445 70.2561019,97.4988116 Z" id="Path-10" fill="#090E2B"/><path d="M146.175763,222.265294 C53.2245817,222.265294 -22,206.483116 -22,143.463659 C-22,80.4451763 31.2016807,46.241742 130.854945,31.590673 C230.508209,16.939604 302,13.2004582 302,96.454099 C302,159.473556 239.129312,222.265294 146.175763,222.265294 Z" id="Fill-1" fill="#090E2B"/><path d="M-106.281498,235.5 C-66.0679622,209.611032 -17.144614,224.3795 8.88738598,215.1235 C51.195386,200.0805 45.4881941,152.689596 85.35,135.013504 C96.1764599,100.831573 126.660547,83.7612703 171.658946,83.7612703 C242.273176,83.7612703 244.238693,140.447 245.970693,150 C252.335693,185.102 239.1158,253.4885 252.4698,276.9925 C274.8878,316.4545 264.5268,342.2155 252.8368,351.6275 C240.2348,361.7745 203.5688,352.4845 195.6138,345.8925 C180.4328,333.3135 165.1148,328.3775 165.1148,286.6725 C157.1888,274.5035 156.7218,270.9005 158.5118,256.1275 C160.6658,238.3535 162.69106,222.2745 124.43506,215.1235 C127.545511,245.85586 132.654096,267.016784 118.354071,282.575637 C104.054045,298.13449 89.6971105,298.13449 72.0618,304 C35.0070839,316.324411 22.5879437,420.655109 -90.4692058,376.973466 C-151.085206,354.330466 -146.495034,261.388968 -106.281498,235.5 Z" id="Fill-3" fill="#E3E4E6"/><path d="M234.766351,156.809989 C243.747501,193.621941 240.591641,218.766488 232.575188,234.654952 C223.138867,253.357571 215.14308,262.203043 198.631249,262.783783 C166.782298,263.903948 146.769876,252.085896 135.517429,241.802756 C123.663779,230.9702 119.685475,218.292019 116.4017,210.0813 C115.990445,209.052937 115.616439,207.955724 115.276593,206.802752 L115.615,206.7175 C104.397,209.6475 85.35,199.8205 85.35,176.7455 C85.35,166.516571 101.568204,153.837822 112.35613,165.811952 C112.490126,163.05239 112.62352,161.390056 112.62352,161.390056 C120.16352,131.230056 163.008694,114.037304 190.5347,110.2713 C238.201544,103.749703 225.785202,119.998038 234.766351,156.809989 Z" id="Combined-Shape" fill="#09b9c6"/><path d="M110.260906,179.030159 C107.387906,173.262159 100.466906,169.688159 94.4889061,173.724159 C93.1359061,174.637159 94.9599061,175.262159 95.5309061,175.198159 C102.631906,174.269159 105.450906,176.210159 107.783906,180.247159 C105.552906,180.794159 103.323906,182.779159 103.038906,185.021159 C102.864906,186.397159 103.340906,190.470159 104.390906,189.185159 C105.116906,188.297159 103.516906,182.239159 108.805906,182.792159 C108.885906,182.810159 108.957906,182.814159 109.032906,182.821159 C109.281906,183.419159 111.272906,184.657159 112.127906,183.619159 C112.651906,182.985159 111.572906,181.667159 110.260906,179.030159" id="Fill-8" fill="#090E2B"/><path d="M184.510972,83.8578 C156.443412,85.8888 116.344674,115.8978 109.891199,137.8978 C108.798428,141.6248 109.800397,161.00949 112.187365,165.38949 C115.363503,171.22049 115.016418,184.5168 124.481581,186.0588 C141.168954,188.7758 124.021313,163.9558 126.553271,157.4708 C136.09628,133.0178 166.368842,148.5498 184.510972,143.0138 C209.353739,135.4338 218.55617,130.0448 219.193538,129.0798 C222.416384,141.4558 239.795617,165.1488 245.815099,169.7678 C247.772938,171.2688 245.134915,144.3788 238.851728,122.6218 C235.049899,109.4558 211.193836,81.9268 184.510972,83.8578 Z" id="Fill-9" fill="#E3E4E6"/><path d="M107.2742,236.0906 C95.6422,236.0906 86.1782,226.6266 86.1782,214.9946 C86.1782,208.8476 88.8402,202.9286 93.5032,198.9136 C94.2692,199.6966 95.1862,200.5656 95.8692,201.1486 C91.8702,204.5926 89.1782,209.7216 89.1782,214.9946 C89.1782,224.9726 97.2962,233.0906 107.2742,233.0906 C117.2522,233.0906 125.3702,224.9726 125.3702,214.9946 C125.3702,205.0176 117.2522,196.8996 107.2742,196.8996 C106.4462,196.8996 105.7742,196.2276 105.7742,195.3996 C105.7742,194.5706 106.4462,193.8996 107.2742,193.8996 C118.9062,193.8996 128.3702,203.3626 128.3702,214.9946 C128.3702,226.6266 118.9062,236.0906 107.2742,236.0906" id="Fill-11" fill="#FFF"/><path d="M152.051658,254.807156 C147.761215,252.73178 139.062884,248.94355 137.181884,246.48855 C136.201884,245.20955 139.422217,246.726877 141.112217,247.783877 C143.361217,249.189877 152.489516,253.11955 163.690516,257.23955 C164.661516,257.59655 170.871516,259.58955 171.049516,259.91355 C171.216516,260.21655 170.663516,260.81555 169.946516,260.78355 C165.129516,260.56555 156.78076,257.09472 152.051658,254.807156 Z" id="Fill-4" fill="#090E2B" transform="translate(154.039749, 253.392391) rotate(5.000000) translate(-154.039749, -253.392391)"/></g></g><g id="Expressions" transform="translate(462.000000, 479.000000) scale(1 1)"><g id="Expressions/Relaxed" stroke="none" stroke-width="1" fill="none" fill-rule="evenodd"><path d="M93.917,85.9779 C78.288,85.3499 67.34,84.9099 56.819,84.4879 C53.549,84.3559 50.673,90.0739 56.294,97.5689 C64.259,108.1889 84.891,111.8759 93.281,99.0539 C97.555,92.5239 97.31,86.1149 93.917,85.9779" id="Fill-1" fill="#FFF"/><path d="M82.7872,55.7084 C86.8282,59.4834 96.9612,74.6464 87.8282,76.8394 C85.9422,77.2914 77.3212,77.5114 78.5922,75.6374 C79.6052,74.1434 85.9772,75.0244 86.8982,72.1854 C88.1082,68.4554 83.7122,61.1524 80.9722,56.1434 C80.5012,55.2804 82.1522,54.9674 82.7872,55.7084" id="nose" fill="#090E2B"/><path d="M63.2787643,47.5005595 C63.8977643,55.1465595 54.2727643,60.0135595 46.1077643,56.1935595 C41.9017643,54.2275595 39.7587643,51.2665595 40.7837643,50.0295595 C41.4397643,49.2375595 43.3107643,50.3635595 43.9337643,50.7335595 C52.2097643,55.6545595 58.7657643,51.2125595 60.7667643,46.8055595 C61.5487643,45.0855595 63.0797643,45.0435595 63.2787643,47.5005595 Z M104.514164,42.1987595 C103.866164,45.3027595 102.660164,46.8727595 101.140164,47.9767595 C96.7091643,51.1937595 89.4801643,47.9737595 88.0981643,45.0087595 C87.0641643,42.7917595 88.5051643,42.7377595 90.1931643,43.7887595 C92.8701643,45.4587595 95.4171643,45.8007595 97.1021643,45.4817595 C100.340164,44.8707595 101.879164,41.6127595 103.045164,40.2707595 C103.679164,39.5417595 105.019164,39.7827595 104.514164,42.1987595 Z" id="eye" fill="#090E2B" transform="translate(72.577838, 48.716394) rotate(3.000000) translate(-72.577838, -48.716394)"/><path d="M62.79355,24.2519929 C66.09155,27.4989929 65.39755,33.0019929 61.13355,31.9079929 C49.32655,25.7259929 38.64055,24.0389929 28.38555,32.9259929 C24.70055,36.1199929 22.78655,33.4669929 23.96555,30.1789929 C24.80555,27.8369929 28.41655,23.5259929 31.44155,21.8919929 C41.35255,16.5349929 55.59955,17.1699929 62.79355,24.2519929 Z M106.56795,16.9292929 C108.41995,18.3412929 109.65195,21.1502929 106.65095,21.9192929 C105.57695,22.1952929 94.27495,18.5422929 86.72495,27.4442929 C85.02995,29.4432929 81.19395,28.9722929 81.57395,25.6042929 C82.55195,16.9622929 97.18895,9.78229286 106.56795,16.9292929 Z" id="eybrow" fill="#090E2B" transform="translate(66.040205, 24.189369) rotate(3.000000) translate(-66.040205, -24.189369)"/></g></g><g id="Facial Accesories" transform="translate(459.000000, 529.000000) scale(1 1)" fill="#000"><g id="Facial Accesories/None" stroke="none" stroke-width="1" fill="none" fill-rule="evenodd" fill-opacity="0"/></g><g id="Glass" transform="translate(462.000000, 484.000000) scale(1 1)" fill="#000"><g id="Glass/None" stroke="none" stroke-width="1" fill="none" fill-rule="evenodd" fill-opacity="0"/></g></g></g></g></svg>