<?xml version="1.0" encoding="UTF-8"?>
<svg xmlns="http://www.w3.org/2000/svg" xmlns:xlink="http://www.w3.org/1999/xlink" width="100px" height="100px" viewBox="0 0 100 100" version="1.1">
<g id="surface1">
<path style=" stroke:none;fill-rule:nonzero;fill:rgb(25.882354%,50.196081%,93.725491%);fill-opacity:1;" d="M 80 50.734375 C 80 48.667969 79.800781 46.535156 79.464844 44.535156 L 50.601562 44.535156 L 50.601562 56.332031 L 67.132812 56.332031 C 66.464844 60.132812 64.265625 63.464844 61 65.601562 L 70.867188 73.265625 C 76.667969 67.867188 80 60 80 50.734375 Z M 80 50.734375 "/>
<path style=" stroke:none;fill-rule:nonzero;fill:rgb(20.392157%,63.921571%,32.549021%);fill-opacity:1;" d="M 50.601562 80.601562 C 58.867188 80.601562 65.800781 77.867188 70.867188 73.199219 L 61 65.601562 C 58.265625 67.464844 54.734375 68.535156 50.601562 68.535156 C 42.601562 68.535156 35.867188 63.132812 33.398438 55.933594 L 23.265625 63.734375 C 28.464844 74.066406 39 80.601562 50.601562 80.601562 Z M 50.601562 80.601562 "/>
<path style=" stroke:none;fill-rule:nonzero;fill:rgb(96.470588%,71.764708%,1.568628%);fill-opacity:1;" d="M 33.398438 55.867188 C 32.132812 52.066406 32.132812 47.933594 33.398438 44.132812 L 23.265625 36.265625 C 18.933594 44.933594 18.933594 55.132812 23.265625 63.734375 Z M 33.398438 55.867188 "/>
<path style=" stroke:none;fill-rule:nonzero;fill:rgb(89.803922%,26.274511%,20.784314%);fill-opacity:1;" d="M 50.601562 31.535156 C 54.933594 31.464844 59.199219 33.132812 62.332031 36.132812 L 71.066406 27.332031 C 65.535156 22.132812 58.199219 19.332031 50.601562 19.398438 C 39 19.398438 28.464844 25.933594 23.265625 36.265625 L 33.398438 44.132812 C 35.867188 36.867188 42.601562 31.535156 50.601562 31.535156 Z M 50.601562 31.535156 "/>
</g>
</svg>
